<?xml version="1.0" standalone="no"?>
<!DOCTYPE svg PUBLIC "-//W3C//DTD SVG 1.1//EN" "http://www.w3.org/Graphics/SVG/1.1/DTD/svg11.dtd" >
<svg xmlns="http://www.w3.org/2000/svg" xmlns:xlink="http://www.w3.org/1999/xlink" version="1.1">
<metadata></metadata>
<defs>
<font id="dejavu_sansregular" horiz-adv-x="0" >
<font-face units-per-em="2048" ascent="1556" descent="-492" />
<missing-glyph horiz-adv-x="618" />
<glyph unicode=" "  horiz-adv-x="618" />
<glyph unicode="&#x09;" horiz-adv-x="618" />
<glyph unicode="&#xa0;" horiz-adv-x="618" />
<glyph unicode="!" horiz-adv-x="779" d="M294 0h192v241h-192v-241zM314 457h172v339v622h-172v-622v-339z" />
<glyph unicode="&#x22;" horiz-adv-x="894" d="M187 891h162v527h-162v-527zM546 891h162v527h-162v-527z" />
<glyph unicode="#" horiz-adv-x="1630" d="M150 393h299l-98 -393h153l97 393h279l-98 -393h152l99 393h339v146h-302l78 317h333v146h-296l97 394h-152l-99 -394h-278l99 394h-154l-97 -394h-343v-146h306l-80 -317h-334v-146zM638 539l80 317h277l-78 -317h-279z" />
<glyph unicode="$" horiz-adv-x="1236" d="M162 87q67 -28 133.5 -47t133.5 -29t133 -11v-286h95v288q203 14 311 107t108 253q0 149 -101 234t-318 118v407q171 -8 333 -88v166q-157 52 -333 58v221h-95v-223q-193 -13 -296.5 -102.5t-103.5 -244.5q0 -143 95.5 -225t304.5 -115v-434q-210 3 -400 124v-171z M336 924q0 84 58 135t168 62v-389q-119 20 -172.5 65.5t-53.5 126.5zM657 138v411q126 -22 185 -72t59 -133q0 -173 -244 -206z" />
<glyph unicode="%" horiz-adv-x="1847" d="M107 1058q0 -178 88 -284q87 -102 239.5 -102t239.5 102q89 105 89 284q0 178 -89 281q-90 105 -240 105t-237 -105q-90 -103 -90 -281zM258 1058q0 123 47 194t129 71t129.5 -71t47.5 -194q0 -125 -47 -195.5t-130 -70.5q-82 0 -129 70.5t-47 195.5zM405 -28h152 l887 1472h-152zM1086 358q0 -177 89 -282q86 -104 240 -104q152 0 237 104q89 105 89 282q0 176 -87 282q-89 105 -239 105q-154 0 -240 -105q-89 -105 -89 -282zM1238 358q0 62 12 112t34.5 84t55.5 52t75 18q81 0 127.5 -70.5t46.5 -195.5q0 -122 -47 -193.5t-127 -71.5 q-55 0 -95 32t-61 92t-21 141z" />
<glyph unicode="&#x26;" horiz-adv-x="1517" d="M123 438q0 -202 146 -334q142 -132 373 -132q245 0 440 168l136 -140h239l-265 271q176 240 199 490h-177q-11 -218 -124 -386l-483 494q-87 90 -115 139q-27 54 -27 97q0 83 62 137q61 52 162 52q128 0 297 -91v173q-164 68 -316 68q-175 0 -280.5 -94t-105.5 -247 q0 -112 93 -236q-254 -188 -254 -429zM306 449q0 84 40.5 160t126.5 154l504 -516q-135 -121 -318 -121q-148 0 -252 92q-101 92 -101 231z" />
<glyph unicode="'" horiz-adv-x="534" d="M187 891h162v527h-162v-527z" />
<glyph unicode="(" horiz-adv-x="758" d="M167 611q0 -425 284 -867h152q-251 434 -251 867t251 865h-152q-284 -445 -284 -865z" />
<glyph unicode=")" horiz-adv-x="758" d="M156 -256h152q284 442 284 867q0 420 -284 865h-152q251 -432 251 -865q0 -438 -251 -867z" />
<glyph unicode="*" horiz-adv-x="972" d="M58 815l55 -93l319 193v-358h109v358l319 -193l55 93l-341 185l341 185l-55 94l-319 -193v358h-109v-358l-319 193l-55 -94l341 -185z" />
<glyph unicode="+" horiz-adv-x="1630" d="M206 529h529v-529h160v529h529v162h-529v529h-160v-529h-529v-162z" />
<glyph unicode="," horiz-adv-x="618" d="M150 -226h123l155 304v163h-200v-163z" />
<glyph unicode="-" horiz-adv-x="702" d="M95 455h512v156h-512v-156z" />
<glyph unicode="." horiz-adv-x="618" d="M208 0h200v241h-200v-241z" />
<glyph unicode="/" horiz-adv-x="655" d="M0 -180h162l494 1598h-162z" />
<glyph unicode="0" horiz-adv-x="1236" d="M128 708q0 -359 125.5 -547.5t364.5 -188.5t365 188.5t126 547t-126 547.5t-365 189q-159 0 -268.5 -84t-165.5 -248.5t-56 -403.5zM321 708q0 584 297 584q299 0 299 -584t-299 -584q-297 0 -297 584z" />
<glyph unicode="1" horiz-adv-x="1236" d="M214 1175l341 69v-1082h-314v-162h817v162h-313v1256h-192l-339 -68v-175z" />
<glyph unicode="2" horiz-adv-x="1236" d="M142 0h901v162h-670q463 471 511 527q86 107 118 185q34 80 34 165q0 185 -132 296q-132 109 -351 109q-167 0 -401 -94v-194q225 126 405 126q127 0 206 -70q80 -74 80 -185q0 -72 -37 -142q-37 -72 -129 -174q-47 -56 -237 -246q-186 -189 -298 -303v-162z" />
<glyph unicode="3" horiz-adv-x="1236" d="M148 43q202 -71 379 -71q270 0 411 115q144 116 144 325q0 137 -78 230q-75 94 -215 123q124 32 192 113t68 198q0 168 -127 268q-128 100 -346 100q-167 0 -385 -61v-171q209 70 368 70q144 0 221.5 -58t77.5 -168q0 -106 -75 -162.5t-217 -56.5h-173v-158h166 q157 0 244.5 -70.5t87.5 -196.5q0 -90 -42 -152t-124.5 -94t-202.5 -32q-213 0 -374 94v-185z" />
<glyph unicode="4" horiz-adv-x="1236" d="M95 334h640v-334h191v334h203v160h-203v924h-241l-590 -898v-186zM251 494l484 757v-757h-484z" />
<glyph unicode="5" horiz-adv-x="1236" d="M150 33q197 -61 373 -61q263 0 403 127q142 127 142 356q0 223 -138 353q-142 130 -377 130q-80 0 -167 -30v349h577v161h-753v-712q156 70 310 70q163 0 260 -87q96 -84 96 -234q0 -149 -96 -236q-95 -85 -260 -85q-201 0 -370 92v-193z" />
<glyph unicode="6" horiz-adv-x="1236" d="M136 708q0 -360 131 -546q128 -190 375 -190q214 0 344 133q129 133 129 350q0 224 -125 353q-124 130 -336 130q-102 0 -186 -44t-141 -127q14 260 114.5 387.5t290.5 127.5q142 0 291 -70v175q-165 57 -299 57q-268 0 -429 -200q-159 -197 -159 -536zM362 455 q0 154 76 241q72 90 204 90q129 0 204 -90q76 -87 76 -241q0 -153 -76 -243q-75 -88 -204 -88q-131 0 -204 88q-76 90 -76 243z" />
<glyph unicode="7" horiz-adv-x="1236" d="M160 1257h681l-485 -1257h201l515 1337v81h-912v-161z" />
<glyph unicode="8" horiz-adv-x="1236" d="M132 399q0 -206 125.5 -316.5t360.5 -110.5t361 110.5t126 316.5q0 136 -78 229.5t-216 126.5q82 21 140.5 65.5t89.5 110t31 145.5q0 171 -121 268q-123 100 -333 100q-212 0 -332 -100q-121 -95 -121 -268q0 -80 31.5 -145.5t90 -110t140.5 -65.5q-140 -33 -217 -126 q-78 -94 -78 -230zM325 399q0 130 78 202q81 73 215 73q136 0 217 -73q78 -72 78 -202q0 -128 -78 -200q-80 -75 -217 -75q-135 0 -215 75q-78 69 -78 200zM356 1058q0 74 30.5 126.5t89.5 80t142 27.5q124 0 194 -61.5t70 -172t-70 -172t-194 -61.5q-125 0 -193.5 61 t-68.5 172z" />
<glyph unicode="9" horiz-adv-x="1236" d="M123 961q0 -224 122 -352q126 -128 338 -128q102 0 187 43.5t140 125.5q-14 -260 -114.5 -388t-290.5 -128q-142 0 -291 70v-175q165 -57 300 -57q269 0 427 199q160 199 160 537q0 359 -129.5 547.5t-375.5 188.5q-215 0 -345 -133q-128 -131 -128 -350zM315 961.5 q0 153.5 76 241.5q76 89 205 89t204 -89q76 -88 76 -241.5t-76 -241.5q-75 -89 -204 -89t-205 89q-76 88 -76 241.5z" />
<glyph unicode=":" horiz-adv-x="655" d="M228 0h200v241h-200v-241zM228 765h200v241h-200v-241z" />
<glyph unicode=";" horiz-adv-x="655" d="M150 -226h123l155 304v163h-200v-163zM228 765h200v241h-200v-241z" />
<glyph unicode="&#x3c;" horiz-adv-x="1630" d="M206 531l1218 -442v173l-980 347l980 349v172l-1218 -441v-158z" />
<glyph unicode="=" horiz-adv-x="1630" d="M206 334h1218v162h-1218v-162zM206 724h1218v160h-1218v-160z" />
<glyph unicode="&#x3e;" horiz-adv-x="1630" d="M206 89l1218 442v158l-1218 441v-172l979 -349l-979 -347v-173z" />
<glyph unicode="?" horiz-adv-x="1032" d="M140 1158q186 130 337 130q103 0 165 -53t62 -136q0 -47 -24 -91t-79 -95l-85 -85q-86 -82 -111 -143q-28 -59 -28 -158l-6 -146h188v117q0 85 11 126q7 24 26 49.5t63 69.5l84 82q87 84 119 146q35 63 35 138q0 150 -108 243q-103 92 -279 92q-194 0 -370 -107v-179z M371 0h193v241h-193v-241z" />
<glyph unicode="@" horiz-adv-x="1945" d="M128 516q0 -180 63.5 -336t185.5 -275t277.5 -181t331.5 -62q145 0 285 49t259 141l-86 105q-66 -51 -141 -87t-155 -54t-162 -18q-149 0 -280.5 51.5t-230.5 150.5q-103 101 -158 233.5t-55 282.5q0 181 85 340q83 157 233 255q185 122 422 122q168 0 309.5 -66 t240.5 -190q121 -153 121 -357q0 -166 -80 -273.5t-215 -127.5v700h-136v-125q-110 144 -302 144q-160 0 -265 -119q-103 -121 -103 -309q0 -189 102 -308q101 -118 266 -118q97 0 171 34.5t131 107.5v-146q265 5 418 150q150 144 150 394q0 237 -147 429q-117 151 -289 235 q-174 82 -374 82q-119 0 -231 -28.5t-211 -84.5t-181 -136q-120 -118 -184.5 -275t-64.5 -330zM724 510q0 132 68 212q67 78 183 78q113 0 185 -78q67 -79 67 -212q0 -134 -67 -213q-67 -78 -183.5 -78t-184.5 76q-68 80 -68 215z" />
<glyph unicode="A" horiz-adv-x="1330" d="M15 0h203l129 364h639l129 -364h200l-541 1418h-217zM405 523l260 706l261 -706h-521z" />
<glyph unicode="B" horiz-adv-x="1333" d="M191 0h509q235 0 368 104q129 106 129 293q0 145 -78 241t-220 127q78 13 131 51t80.5 101.5t27.5 150.5q0 168 -119 259t-338 91h-490v-1418zM383 158v519h308q154 0 229 -63.5t75 -195.5q0 -88 -33 -145.5t-100.5 -86t-170.5 -28.5h-308zM383 833v428h284 q94 0 155.5 -23.5t92 -71t30.5 -119.5t-30.5 -119.5t-92 -71t-155.5 -23.5h-284z" />
<glyph unicode="C" horiz-adv-x="1357" d="M109 708q0 -340 185 -539q188 -197 508 -197q250 0 451 137v201q-191 -180 -440 -180q-162 0 -274 66.5t-169.5 196t-57.5 315.5q0 187 57.5 316.5t169.5 195.5t274 66q249 0 440 -179v202q-199 135 -451 135q-320 0 -508 -197q-185 -198 -185 -539z" />
<glyph unicode="D" horiz-adv-x="1497" d="M191 0h394q413 0 603 171q195 172 195 540q0 363 -193 536q-190 171 -605 171h-394v-1418zM383 158v1103h232q292 0 430 -132q136 -136 136 -418q0 -285 -136 -421q-138 -132 -430 -132h-232z" />
<glyph unicode="E" horiz-adv-x="1229" d="M191 0h914v162h-722v513h675v162h-675v420h705v161h-897v-1418z" />
<glyph unicode="F" horiz-adv-x="1118" d="M191 0h192v677h562v162h-562v418h623v161h-815v-1418z" />
<glyph unicode="G" horiz-adv-x="1507" d="M109 708q0 -348 186 -543q190 -193 522 -193q307 0 531 160v609h-503v-158h313v-381q-125 -72 -325 -72q-260 0 -390.5 145t-130.5 433q0 191 58 320t174 193.5t289 64.5q264 0 478 -181v204q-216 135 -494 135q-332 0 -522 -195q-186 -192 -186 -541z" />
<glyph unicode="H" horiz-adv-x="1463" d="M191 0h192v675h697v-675h192v1418h-192v-581h-697v581h-192v-1418z" />
<glyph unicode="I" horiz-adv-x="573" d="M191 0h192v1418h-192v-1418z" />
<glyph unicode="J" horiz-adv-x="573" d="M-101 -228v-162h73q214 0 312 115q99 116 99 374v1319h-192v-1319q0 -183 -53 -257q-53 -70 -179 -70h-60z" />
<glyph unicode="K" horiz-adv-x="1275" d="M191 0h192v683l681 -683h253l-755 757l704 661h-247l-636 -599v599h-192v-1418z" />
<glyph unicode="L" horiz-adv-x="1083" d="M191 0h883v162h-691v1256h-192v-1418z" />
<glyph unicode="M" horiz-adv-x="1678" d="M191 0h186v1245l366 -972h193l366 972v-1245h187v1418h-286l-364 -965l-362 965h-286v-1418z" />
<glyph unicode="N" horiz-adv-x="1454" d="M191 0h186v1187l629 -1187h258v1418h-186v-1186l-629 1186h-258v-1418z" />
<glyph unicode="O" horiz-adv-x="1530" d="M109 708q0 -336 179 -537q178 -199 479 -199q298 0 477 199q178 201 178 537q0 337 -178 536q-178 200 -477 200q-301 0 -479 -200q-179 -199 -179 -536zM312 708q0 269 122 424q126 156 333 156t330 -156q123 -155 123 -424t-123 -424q-123 -156 -330 -156t-333 156 q-122 155 -122 424z" />
<glyph unicode="P" horiz-adv-x="1172" d="M191 0h192v570h241q238 0 360.5 107.5t122.5 317.5q0 139 -54.5 233.5t-162 142t-266.5 47.5h-433v-1418zM383 728v533h241q134 0 207 -69t73 -197t-73 -197.5t-207 -69.5h-241z" />
<glyph unicode="Q" horiz-adv-x="1530" d="M109 708q0 -336 179 -537q178 -199 479 -199q39 0 79 4l210 -227h232l-252 277q188 83 287 258q99 176 99 424q0 337 -178 536q-178 200 -477 200q-301 0 -479 -200q-179 -199 -179 -536zM312 708q0 269 122 424q126 156 333 156t330 -156q123 -155 123 -424t-123 -424 q-123 -156 -330 -156t-333 156q-122 155 -122 424z" />
<glyph unicode="R" horiz-adv-x="1351" d="M191 0h192v599h209q115 0 178 -46q69 -48 138 -189l182 -364h206l-195 388q-119 237 -237 277q78 22 132.5 69.5t82.5 117t28 158.5q0 206 -120 307t-363 101h-433v-1418zM383 757v504h241q93 0 155.5 -28.5t93.5 -84.5t31 -138q0 -31 -4 -58.5t-13 -51t-22.5 -43.5 t-31 -35.5t-39.5 -28t-48 -20.5t-56.5 -12t-65.5 -4h-241z" />
<glyph unicode="S" horiz-adv-x="1235" d="M128 1039q0 -162 96 -253q98 -91 311 -134l117 -23q144 -28 210 -88q64 -59 64 -164q0 -79 -40 -135t-116.5 -85t-186.5 -29q-214 0 -449 132v-197q243 -91 449 -91q267 0 405.5 106.5t138.5 312.5q0 117 -45.5 200.5t-138 138t-235.5 81.5l-116 24q-156 28 -215 78 q-56 47 -56 141q0 113 85.5 173.5t241.5 60.5q178 0 393 -103v187q-215 72 -415 72q-236 0 -366 -107q-132 -110 -132 -298z" />
<glyph unicode="T" horiz-adv-x="1188" d="M-6 1257h504v-1257h193v1257h503v161h-1200v-161z" />
<glyph unicode="U" horiz-adv-x="1424" d="M169 533q0 -277 137.5 -419t405.5 -142q179 0 300 63.5t182 188t61 309.5v885h-193v-861q0 -227 -84 -329q-81 -100 -266 -100t-266 100q-84 102 -84 329v861h-193v-885z" />
<glyph unicode="V" horiz-adv-x="1330" d="M15 1418l542 -1418h217l541 1418h-200l-450 -1194l-449 1194h-201z" />
<glyph unicode="W" horiz-adv-x="1923" d="M65 1418l355 -1418h241l302 1231l300 -1231h241l356 1418h-195l-297 -1199l-298 1199h-216l-297 -1199l-299 1199h-193z" />
<glyph unicode="X" horiz-adv-x="1331" d="M58 0h207l402 603l399 -603h206l-486 737l456 681h-206l-355 -527l-352 527h-206l441 -661z" />
<glyph unicode="Y" horiz-adv-x="1188" d="M-4 1418l502 -743v-675h193v675l501 743h-206l-390 -583l-394 583h-206z" />
<glyph unicode="Z" horiz-adv-x="1331" d="M87 0h1158v162h-918l897 1110v146h-1115v-161h875l-897 -1111v-146z" />
<glyph unicode="[" horiz-adv-x="758" d="M167 -256h403v135h-228v1463h228v136h-403v-1734z" />
<glyph unicode="\" horiz-adv-x="655" d="M0 1418l494 -1598h162l-494 1598h-162z" />
<glyph unicode="]" horiz-adv-x="758" d="M189 -121v-135h403v1734h-403v-136h227v-1463h-227z" />
<glyph unicode="^" horiz-adv-x="1630" d="M206 889h191l418 375l418 -375h191l-516 529h-186z" />
<glyph unicode="_" horiz-adv-x="972" d="M-19 -323v-136h1011v136h-1011z" />
<glyph unicode="`" horiz-adv-x="972" d="M162 1556l309 -355h146l-268 355h-187z" />
<glyph unicode="a" horiz-adv-x="1192" d="M117 310q0 -155 95 -245q98 -93 261 -93q87 0 155 21t120.5 62.5t92.5 106.5v-162h175v607q0 244 -114 363.5t-345 119.5q-166 0 -362 -74v-162q162 87 344 87q143 0 222.5 -65.5t79.5 -186.5v-17h-245q-238 0 -358.5 -91.5t-120.5 -270.5zM292 321q0 115 81 165 q79 49 294 49h174v-39q0 -171 -88 -275q-87 -102 -233 -102q-105 0 -166.5 54.5t-61.5 147.5z" />
<glyph unicode="b" horiz-adv-x="1235" d="M177 0h175v160q110 -188 341 -188q194 0 315 154q121 157 121 405t-121 405q-121 154 -315 154q-231 0 -341 -188v576h-175v-1478zM352 531q0 192 80 302q78 110 218 110t217 -110q80 -110 80 -302q0 -190 -80 -303q-79 -109 -217.5 -109t-217.5 109q-80 113 -80 303z " />
<glyph unicode="c" horiz-adv-x="1069" d="M107 531q0 -255 142 -408q141 -151 382 -151q167 0 318 69v161q-149 -81 -299 -81q-169 0 -264 107q-94 108 -94 303q0 197 94 302q94 108 264 108q150 0 299 -81v163q-144 67 -307 67q-249 0 -393 -150q-142 -151 -142 -409z" />
<glyph unicode="d" horiz-adv-x="1235" d="M107 531q0 -248 121 -405q121 -154 314 -154q235 0 342 188v-160h174v1478h-174v-576q-107 188 -342 188q-193 0 -314 -154q-121 -157 -121 -405zM288 531q0 190 78 302q80 110 219 110q141 0 219 -110q80 -110 80 -302q0 -190 -80 -303q-79 -109 -219 -109 q-137 0 -219 109q-78 115 -78 303z" />
<glyph unicode="e" horiz-adv-x="1196" d="M107 522q0 -251 148 -401q151 -149 404 -149q206 0 394 82v165q-185 -98 -383 -98q-174 0 -271.5 94t-108.5 275h803v86q0 236 -124 375q-127 139 -340 139q-241 0 -382 -154q-140 -151 -140 -414zM295 626q12 147 102 232q87 83 234 83q128 0 208 -85.5t80 -229.5h-624z " />
<glyph unicode="f" horiz-adv-x="684" d="M45 928h167v-928h176v928h287v136h-287v94q0 96 36 138q34 37 131 37h167v145h-165q-180 0 -262.5 -81t-82.5 -259v-74h-167v-136z" />
<glyph unicode="g" horiz-adv-x="1235" d="M107 544q0 -245 121 -394q119 -150 314 -150q233 0 342 187v-86q0 -182 -85.5 -271.5t-257.5 -89.5q-154 0 -305 81v-170q149 -56 332 -56q248 0 369 133t121 404v932h-174v-162q-109 188 -342 188q-195 0 -314 -150q-121 -150 -121 -396zM288 544q0 193 78 295 q77 104 219 104t220.5 -104.5t78.5 -294.5q0 -184 -78 -293q-78 -105 -221 -105q-140 0 -218.5 104.5t-78.5 293.5z" />
<glyph unicode="h" horiz-adv-x="1233" d="M177 0h175v601q0 157 82 247q84 90 223 90q236 0 236 -302v-636h175v642q0 147 -42 246.5t-125 150.5t-205 51q-219 0 -344 -191v579h-175v-1478z" />
<glyph unicode="i" horiz-adv-x="540" d="M183 0h175v1064h-175v-1064zM183 1257h175v221h-175v-221z" />
<glyph unicode="j" horiz-adv-x="540" d="M-35 -256v-149h66q173 0 249 91q78 90 78 295v1083h-175v-1083q0 -145 -35 -191q-38 -46 -137 -46h-46zM183 1257h175v221h-175v-221z" />
<glyph unicode="k" horiz-adv-x="1125" d="M177 0h175v520l541 -520h228l-588 566l564 498h-223l-522 -459v873h-175v-1478z" />
<glyph unicode="l" horiz-adv-x="540" d="M183 0h175v1478h-175v-1478z" />
<glyph unicode="m" horiz-adv-x="1894" d="M177 0h175v601q0 154 80 245q80 92 212 92q114 0 167.5 -73.5t53.5 -228.5v-636h176v601q0 156 80 247q81 90 214 90q74 0 122.5 -33t72.5 -99.5t24 -169.5v-636h176v642q0 143 -40.5 243t-118.5 152.5t-188 52.5q-124 0 -215 -56.5t-156 -173.5q-39 112 -120 171 t-198 59q-115 0 -198.5 -47t-143.5 -144v165h-175v-1064z" />
<glyph unicode="n" horiz-adv-x="1233" d="M177 0h175v601q0 157 82 247q84 90 223 90q236 0 236 -302v-636h175v642q0 147 -42 246.5t-125 150.5t-205 51q-219 0 -344 -191v165h-175v-1064z" />
<glyph unicode="o" horiz-adv-x="1190" d="M107 531q0 -263 131 -410q128 -149 358 -149t358 149q130 147 130 410t-130 410q-128 149 -358 149t-358 -149q-131 -147 -131 -410zM292 531q0 190 81 299q82 111 223 111q140 0 221 -111q82 -111 82 -299q0 -190 -82 -299q-81 -111 -221 -111q-143 0 -225 109 q-79 113 -79 301z" />
<glyph unicode="p" horiz-adv-x="1235" d="M177 -405h175v565q110 -188 341 -188q194 0 315 154q121 157 121 405t-121 405q-121 154 -315 154q-231 0 -341 -188v162h-175v-1469zM352 531q0 192 80 302q78 110 218 110t217 -110q80 -110 80 -302q0 -190 -80 -303q-79 -109 -217.5 -109t-217.5 109q-80 113 -80 303z " />
<glyph unicode="q" horiz-adv-x="1235" d="M107 531q0 -248 121 -405q121 -154 314 -154q235 0 342 188v-565h174v1469h-174v-162q-107 188 -342 188q-193 0 -314 -154q-121 -157 -121 -405zM288 531q0 190 78 302q80 110 219 110q141 0 219 -110q80 -110 80 -302q0 -190 -80 -303q-79 -109 -219 -109 q-137 0 -219 109q-78 115 -78 303z" />
<glyph unicode="r" horiz-adv-x="798" d="M177 0h175v560q0 182 79 278t228 96q86 0 141 -33v179q-44 10 -89 10q-248 0 -359 -191v165h-175v-1064z" />
<glyph unicode="s" horiz-adv-x="1013" d="M105 39q206 -67 374 -67q208 0 323 86q117 87 117 236q0 127 -78 202q-77 71 -265 113l-60 13q-144 34 -187 67q-47 32 -47 95q0 159 260 159q171 0 320 -76v166q-147 57 -340 57q-78 0 -142.5 -13.5t-114 -39.5t-83.5 -64t-51.5 -87.5t-17.5 -109.5q0 -83 31.5 -141 t98.5 -96.5t177 -61.5l61 -14q164 -36 210 -73q48 -38 48 -110q0 -78 -66.5 -119.5t-189.5 -41.5q-186 0 -378 100v-180z" />
<glyph unicode="t" horiz-adv-x="761" d="M52 928h128v-577q0 -202 76 -275q79 -76 281 -76h179v146h-179q-109 0 -146 37q-35 38 -35 168v577h360v136h-360v302h-176v-302h-128v-136z" />
<glyph unicode="u" horiz-adv-x="1233" d="M165 420q0 -220 95 -334t279 -114q218 0 343 191v-163h174v1064h-174v-603q0 -157 -82 -247q-84 -90 -224 -90q-236 0 -236 303v637h-175v-644z" />
<glyph unicode="v" horiz-adv-x="1151" d="M58 1064l399 -1064h237l399 1064h-185l-332 -893l-333 893h-185z" />
<glyph unicode="w" horiz-adv-x="1591" d="M82 1064l278 -1064h206l230 872l229 -872h206l279 1064h-175l-218 -830l-218 830h-206l-218 -830l-219 830h-174z" />
<glyph unicode="x" horiz-adv-x="1151" d="M56 0h206l310 418l310 -418h206l-405 546l385 518h-206l-282 -379l-283 379h-206l378 -507z" />
<glyph unicode="y" horiz-adv-x="1151" d="M58 1064l430 -1047l-31 -80q-51 -131 -89 -161q-37 -34 -112 -34h-102v-147h140q119 0 189 58q68 60 143 248l467 1163h-185l-332 -832l-333 832h-185z" />
<glyph unicode="z" horiz-adv-x="1021" d="M84 0h854v140h-658l658 764v160h-831v-140h634l-657 -764v-160z" />
<glyph unicode="{" horiz-adv-x="1236" d="M243 514h58q136 0 185 -55q53 -55 53 -199v-227q0 -209 79 -280q82 -70 318 -70h59v137h-65q-132 0 -175 42q-41 41 -41 175v236q0 150 -42 215q-42 67 -149 93q102 22 149 93q42 64 42 215v236q0 134 41 175q40 42 175 42h65v136h-59q-237 0 -318 -69q-79 -71 -79 -280 v-228q0 -142 -53 -197q-48 -54 -185 -54h-58v-136z" />
<glyph unicode="|" horiz-adv-x="655" d="M247 -459h161v1946h-161v-1946z" />
<glyph unicode="}" horiz-adv-x="1236" d="M243 -180v-137h60q237 0 315 70q80 71 80 280v227q0 143 51 199q52 55 187 55h59v136h-59q-136 0 -187 54q-51 56 -51 197v228q0 209 -80 280q-77 69 -315 69h-60v-136h67q133 0 173 -42q40 -41 40 -175v-236q0 -151 43 -215q46 -71 148 -93q-103 -25 -148 -93 q-43 -65 -43 -215v-236q0 -136 -40.5 -176.5t-172.5 -40.5h-67z" />
<glyph unicode="~" horiz-adv-x="1630" d="M206 444q93 79 175 115.5t165 36.5q89 0 236 -59q5 -2 12.5 -4.5t9.5 -3.5q1 -1 6 -2t9 -4q138 -56 243 -56q92 0 177.5 33t184.5 107v169q-97 -80 -177.5 -116t-162.5 -36q-89 0 -236 59q-5 2 -12.5 4.5t-9.5 3.5q-3 0 -15 5q-140 57 -243 57q-92 0 -177.5 -33 t-184.5 -107v-169z" />
<glyph unicode="&#xa1;" horiz-adv-x="779" d="M294 0h173v622v339h-173v-339v-622zM294 1177h192v241h-192v-241z" />
<glyph unicode="&#xa2;" horiz-adv-x="1236" d="M163 531q0 -244 125 -391q64 -74 152.5 -114.5t203.5 -49.5v-273h97v269q146 12 265 69v161q-138 -73 -265 -81v820q130 -5 265 -81v163q-130 59 -265 65v272h-97v-272q-225 -20 -356 -166q-125 -144 -125 -391zM349 531q0 175 78 282q77 108 217 125v-814 q-137 14 -217 123q-78 108 -78 284z" />
<glyph unicode="&#xa3;" horiz-adv-x="1236" d="M123 0h943v162h-529v441h371v136h-371v204q0 203 55 275q57 74 196 74q117 0 259 -78v173q-152 57 -277 57q-220 0 -321.5 -115.5t-101.5 -363.5v-226h-189v-136h189v-441h-224v-162z" />
<glyph unicode="&#xa4;" horiz-adv-x="1236" d="M89 187l108 -109l196 197q118 -71 227 -71q115 0 225 74l196 -196l109 107l-199 197q74 106 74 223q0 118 -69 228l195 196l-108 109l-197 -199q-110 71 -226 71q-118 0 -223 -73l-197 197l-109 -109l197 -196q-72 -105 -72 -224q0 -109 70 -226zM364 610.5 q0 105.5 76 178.5q74 75 180 75q108 0 182 -74.5t74 -178.5q0 -106 -74 -183q-74 -74 -182 -74q-105 0 -182 74q-74 77 -74 182.5z" />
<glyph unicode="&#xa5;" horiz-adv-x="1236" d="M78 1418l301 -556h-251v-117h316l79 -147v-49h-395v-117h395v-432h191v432h393v117h-395v49l80 147h315v117h-251l302 556h-181l-359 -665l-360 665h-180z" />
<glyph unicode="&#xa6;" horiz-adv-x="655" d="M247 -332h161v720h-161v-720zM247 640h161v720h-161v-720z" />
<glyph unicode="&#xa7;" horiz-adv-x="972" d="M87 687q0 -97 61 -169q63 -75 264 -187l24 -14q210 -117 210 -213q0 -72 -54 -112t-150 -40q-109 0 -279 74v-156q166 -55 300 -55q166 0 261 80q97 78 97 214q0 61 -27.5 112.5t-85.5 101.5q176 103 176 269q0 95 -63 169q-61 72 -262 186q-11 5 -37 22 q-197 112 -197 195q0 68 51.5 105.5t143.5 37.5q106 0 268 -74v156q-147 55 -290 55q-155 0 -253 -76q-95 -74 -95 -199q0 -131 112 -213q-175 -96 -175 -269zM241 716q0 87 119 173q231 -124 301 -191q69 -65 69 -136q0 -89 -119 -172q-230 123 -303 190q-67 63 -67 136z " />
<glyph unicode="&#xa8;" horiz-adv-x="972" d="M204 1282h193v192h-193v-192zM576 1282h193v192h-193v-192z" />
<glyph unicode="&#xa9;" horiz-adv-x="1945" d="M269 704q0 -290 206 -496q208 -208 498 -208t498 208q206 206 206 496q0 293 -206 499q-208 208 -498 208t-498 -208q-206 -206 -206 -499zM364 704q0 250 180 430q179 179 429 179q252 0 430 -179q177 -179 177 -430t-177 -428q-179 -179 -430 -179q-249 0 -429 179 q-180 181 -180 428zM553 704q0 -197 119 -313t325 -116q138 0 260 54v120q-121 -61 -240 -61q-147 0 -228 82t-81 234q0 151 78 232q80 83 222 83q128 0 249 -61v122q-122 52 -260 52q-205 0 -325 -115q-119 -118 -119 -313z" />
<glyph unicode="&#xaa;" horiz-adv-x="915" d="M109 899q0 -108 71 -171q74 -65 195 -65q88 0 156.5 32t110.5 93v-107h142v426q0 171 -85 254t-259 83q-135 0 -273 -53v-121q129 65 253 65q222 0 222 -173v-4h-173q-178 0 -269 -65.5t-91 -193.5zM132 446h654v116h-654v-116zM249 910q0 77 61 106q54 33 212 33h120 v-28q0 -105 -62 -176q-63 -69 -160 -69q-78 0 -124.5 36.5t-46.5 97.5z" />
<glyph unicode="&#xab;" horiz-adv-x="1190" d="M150 531l446 -397v181l-286 255l286 255v181l-446 -397v-78zM562 531l446 -397v181l-286 255l286 255v181l-446 -397v-78z" />
<glyph unicode="&#xac;" horiz-adv-x="1630" d="M206 657h1058v-384h160v546h-1218v-162z" />
<glyph unicode="&#xad;" horiz-adv-x="702" d="M95 455h512v156h-512v-156z" />
<glyph unicode="&#xae;" horiz-adv-x="1945" d="M269 704q0 -290 206 -496q208 -208 498 -208t498 208q206 206 206 496q0 293 -206 499q-208 208 -498 208t-498 -208q-206 -206 -206 -499zM364 704q0 250 180 430q179 179 429 179q252 0 430 -179q177 -179 177 -430t-177 -428q-179 -179 -430 -179q-249 0 -429 179 q-180 181 -180 428zM683 321h147v338h63q47 0 85 -24q34 -22 92 -115l122 -199h164l-130 212q-88 137 -131 150q91 17 141 70t50 134q0 77 -36.5 127.5t-110 75.5t-185.5 25h-271v-794zM830 755v262h117q103 0 145 -30t42 -102q0 -69 -41 -101q-44 -29 -146 -29h-117z" />
<glyph unicode="&#xaf;" horiz-adv-x="972" d="M202 1309h568v141h-568v-141z" />
<glyph unicode="&#xb0;" horiz-adv-x="972" d="M185 1140q0 -128 85.5 -213.5t213.5 -85.5q130 0 214 87q90 84 90 212q0 129 -88 214q-40 43 -96 66.5t-118 23.5q-125 0 -213 -88t-88 -216zM306 1140q0 76 52 128q53 53 128 53q74 0 127 -53q54 -54 54 -128t-52.5 -126.5t-128.5 -52.5t-128 52.5t-52 126.5z" />
<glyph unicode="&#xb1;" horiz-adv-x="1630" d="M206 0h1218v162h-1218v-162zM206 691h529v-368h160v368h529v161h-529v368h-160v-368h-529v-161z" />
<glyph unicode="&#xb2;" horiz-adv-x="779" d="M89 635h568v108h-402q29 27 81 70q316 271 316 403q0 102 -84 165q-83 63 -219 63q-107 0 -254 -53v-117q136 66 234 66q80 0 129.5 -38.5t49.5 -100.5q0 -90 -328 -380q-72 -66 -91 -82v-104z" />
<glyph unicode="&#xb3;" horiz-adv-x="779" d="M93 659q133 -39 239 -39q169 0 259 63.5t90 181.5q0 52 -21.5 92.5t-62.5 67.5t-99 39q78 18 120.5 63t42.5 111q0 93 -81 149q-81 57 -216 57q-105 0 -243 -33v-109q137 38 211 38q91 0 138.5 -29t47.5 -84q0 -38 -20.5 -64t-61.5 -39t-100 -13h-89v-103h82 q102 0 155 -36.5t53 -106.5q0 -67 -57.5 -104t-160.5 -37q-131 0 -226 50v-115z" />
<glyph unicode="&#xb4;" horiz-adv-x="972" d="M352 1199h146l310 357h-190z" />
<glyph unicode="&#xb5;" horiz-adv-x="1236" d="M165 -405h175v526q78 -149 273 -149q180 0 278 151q28 -151 158 -151q66 0 141 43v141q-50 -22 -65 -22q-69 0 -69 111v819h-174v-620q0 -320 -283 -320q-128 0 -193.5 70.5t-65.5 208.5v661h-175v-1469z" />
<glyph unicode="&#xb6;" horiz-adv-x="1236" d="M150 1017q0 -175 110 -280q115 -106 318 -120v-804h134v1489h181v-1489h134v1605h-426q-204 0 -326 -111q-125 -107 -125 -290z" />
<glyph unicode="&#xb7;" horiz-adv-x="618" d="M208 555h200v241h-200v-241z" />
<glyph unicode="&#xb8;" horiz-adv-x="972" d="M276 -228v-124q82 -23 168 -23q226 0 226 171q0 86 -104 204h-113q84 -116 84 -169q0 -44 -29 -66.5t-84 -22.5q-88 0 -148 30z" />
<glyph unicode="&#xb9;" horiz-adv-x="779" d="M130 1281l212 39v-581h-194v-104h526v104h-195v689h-130l-219 -37v-110z" />
<glyph unicode="&#xba;" horiz-adv-x="915" d="M91 1053q0 -182 100 -284q97 -106 268 -106t269 104q97 105 97 285.5t-97 286.5q-100 105 -269 105q-171 0 -268 -105q-100 -106 -100 -286zM132 446h654v116h-654v-116zM239 1053q0 133 60 204q58 78 160 78q101 0 159.5 -76t58.5 -206q0 -128 -60 -203 q-59 -76 -158 -76q-98 0 -160 76q-60 74 -60 203z" />
<glyph unicode="&#xbb;" horiz-adv-x="1190" d="M183 134l446 397v78l-446 397v-181l286 -255l-286 -255v-181zM596 134l445 397v78l-445 397v-181l286 -255l-286 -255v-181z" />
<glyph unicode="&#xbc;" horiz-adv-x="1884" d="M130 1281l212 39v-581h-194v-104h526v104h-195v689h-130l-219 -37v-110zM424 -28h152l885 1472h-152zM1166 177h392v-177h137v177h128v103h-128v514h-158l-371 -502v-115zM1264 280l294 399v-399h-294z" />
<glyph unicode="&#xbd;" horiz-adv-x="1884" d="M130 1281l212 39v-581h-194v-104h526v104h-195v689h-130l-219 -37v-110zM424 -28h152l885 1472h-152zM1194 0h568v109h-402q15 13 82 70q315 270 315 402q0 102 -84 166q-83 62 -219 62q-109 0 -253 -52v-117q134 66 233 66q80 0 129.5 -38.5t49.5 -101.5 q0 -89 -327 -379q-47 -43 -92 -82v-105z" />
<glyph unicode="&#xbe;" horiz-adv-x="1884" d="M93 659q133 -39 239 -39q169 0 259 63.5t90 181.5q0 52 -21.5 92.5t-62.5 67.5t-99 39q78 18 120.5 63t42.5 111q0 93 -81 149q-81 57 -216 57q-105 0 -243 -33v-109q137 38 211 38q91 0 138.5 -29t47.5 -84q0 -38 -20.5 -64t-61.5 -39t-100 -13h-89v-103h82 q102 0 155 -36.5t53 -106.5q0 -67 -57.5 -104t-160.5 -37q-131 0 -226 50v-115zM424 -28h152l885 1472h-152zM1166 177h392v-177h137v177h128v103h-128v514h-158l-371 -502v-115zM1264 280l294 399v-399h-294z" />
<glyph unicode="&#xbf;" horiz-adv-x="1032" d="M136 308q0 -150 107 -243q104 -93 280 -93q193 0 370 108v178q-187 -130 -336 -130q-105 0 -166 52q-62 54 -62 137q0 47 24.5 91t78.5 96l86 83q85 82 111 145q27 57 27 157v148h-181v-116q0 -84 -12 -129q-11 -28 -25 -49q-43 -49 -65 -69l-83 -82q-78 -76 -121 -146 q-33 -66 -33 -138zM469 1177h192v241h-192v-241z" />
<glyph unicode="&#xc0;" horiz-adv-x="1330" d="M15 0h203l129 364h639l129 -364h200l-541 1418h-217zM405 523l260 706l261 -706h-521zM434 1803l218 -251h146l-187 251h-177z" />
<glyph unicode="&#xc1;" horiz-adv-x="1330" d="M15 0h203l129 364h639l129 -364h200l-541 1418h-217zM405 523l260 706l261 -706h-521zM531 1552h146l216 251h-175z" />
<glyph unicode="&#xc2;" horiz-adv-x="1330" d="M15 0h203l129 364h639l129 -364h200l-541 1418h-217zM375 1552h133l157 169l158 -169h133l-201 254h-179zM405 523l260 706l261 -706h-521z" />
<glyph unicode="&#xc3;" horiz-adv-x="1330" d="M15 0h203l129 364h639l129 -364h200l-541 1418h-217zM352 1584h119v5q0 42 19 66t52 24q23 0 65 -23l54 -32q56 -28 78 -33q23 -7 61 -7q80 0 128.5 56.5t49.5 151.5h-118v-6q0 -19 -5 -35.5t-13.5 -28t-21.5 -17.5t-28 -6q-24 0 -68 22l-54 30q-30 16 -53 25t-42 12.5 t-44 3.5q-54 0 -94.5 -25.5t-62.5 -72.5t-22 -110zM405 523l260 706l261 -706h-521z" />
<glyph unicode="&#xc4;" horiz-adv-x="1330" d="M15 0h203l129 364h639l129 -364h200l-541 1418h-217zM383 1584h193v192h-193v-192zM405 523l260 706l261 -706h-521zM755 1584h192v192h-192v-192z" />
<glyph unicode="&#xc5;" horiz-adv-x="1330" d="M15 0h203l129 364h639l129 -364h200l-506 1327q57 39 87 95.5t30 122.5q0 109 -76 185t-185 76q-111 0 -184 -76q-76 -76 -76 -185q0 -138 117 -218zM407 523l258 706l259 -706h-517zM522 1545q0 62 40.5 103t102.5 41t102 -43q42 -40 42 -101t-42 -101q-43 -43 -102 -43 q-58 0 -101 43q-42 40 -42 101z" />
<glyph unicode="&#xc6;" horiz-adv-x="1894" d="M8 0h194l152 364h502v-364h915v162h-722v513h675v162h-675v420h704v161h-1152zM420 523l313 745h123v-745h-436z" />
<glyph unicode="&#xc7;" horiz-adv-x="1357" d="M109 708q0 -340 185 -539q188 -197 508 -197q250 0 451 137v201q-191 -180 -440 -180q-162 0 -274 66.5t-169.5 196t-57.5 315.5q0 187 57.5 316.5t169.5 195.5t274 66q249 0 440 -179v202q-199 135 -451 135q-320 0 -508 -197q-185 -198 -185 -539zM562 -228v-124 q82 -23 168 -23q226 0 226 171q0 86 -104 204h-113q84 -116 84 -169q0 -44 -29 -66.5t-84 -22.5q-88 0 -148 30z" />
<glyph unicode="&#xc8;" horiz-adv-x="1229" d="M191 0h914v162h-722v513h675v162h-675v420h705v161h-897v-1418zM405 1803l217 -251h147l-188 251h-176z" />
<glyph unicode="&#xc9;" horiz-adv-x="1229" d="M191 0h914v162h-722v513h675v162h-675v420h705v161h-897v-1418zM502 1552h146l216 251h-175z" />
<glyph unicode="&#xca;" horiz-adv-x="1229" d="M191 0h914v162h-722v513h675v162h-675v420h705v161h-897v-1418zM347 1552h132l157 169l158 -169h132l-200 254h-180z" />
<glyph unicode="&#xcb;" horiz-adv-x="1229" d="M191 0h914v162h-722v513h675v162h-675v420h705v161h-897v-1418zM354 1584h192v192h-192v-192zM726 1584h193v192h-193v-192z" />
<glyph unicode="&#xcc;" horiz-adv-x="573" d="M56 1803l219 -251h145l-186 251h-178zM191 0h192v1418h-192v-1418z" />
<glyph unicode="&#xcd;" horiz-adv-x="573" d="M154 1552h145l217 251h-176zM191 0h192v1418h-192v-1418z" />
<glyph unicode="&#xce;" horiz-adv-x="573" d="M-2 1552h132l158 169l158 -169h132l-201 254h-178zM191 0h192v1418h-192v-1418z" />
<glyph unicode="&#xcf;" horiz-adv-x="573" d="M6 1584h193v192h-193v-192zM191 0h192v1418h-192v-1418zM377 1584h193v192h-193v-192z" />
<glyph unicode="&#xd0;" horiz-adv-x="1507" d="M10 665h190v-665h396q412 0 603 171q194 171 194 540q0 364 -192 536q-191 171 -605 171h-396v-616h-190v-137zM393 158v507h319v137h-319v459h231q293 0 430 -132q136 -136 136 -418q0 -285 -136 -421q-137 -132 -430 -132h-231z" />
<glyph unicode="&#xd1;" horiz-adv-x="1454" d="M191 0h186v1187l629 -1187h258v1418h-186v-1186l-629 1186h-258v-1418zM414 1584h119v5q0 42 19.5 66t52.5 24q23 0 65 -23l54 -32q56 -28 78 -33q23 -7 60 -7q80 0 129 56.5t50 151.5h-119v-6q0 -26 -8.5 -46t-24 -30.5t-35.5 -10.5q-24 0 -68 22l-54 30 q-44 24 -73 32.5t-65 8.5q-41 0 -74.5 -14.5t-56.5 -41.5t-36 -66t-13 -86z" />
<glyph unicode="&#xd2;" horiz-adv-x="1530" d="M109 708q0 -336 179 -537q178 -199 479 -199q298 0 477 199q178 201 178 537q0 337 -178 536q-178 200 -477 200q-301 0 -479 -200q-179 -199 -179 -536zM312 708q0 269 122 424q126 156 333 156t330 -156q123 -155 123 -424t-123 -424q-123 -156 -330 -156t-333 156 q-122 155 -122 424zM535 1803l218 -251h146l-187 251h-177z" />
<glyph unicode="&#xd3;" horiz-adv-x="1530" d="M109 708q0 -336 179 -537q178 -199 479 -199q298 0 477 199q178 201 178 537q0 337 -178 536q-178 200 -477 200q-301 0 -479 -200q-179 -199 -179 -536zM312 708q0 269 122 424q126 156 333 156t330 -156q123 -155 123 -424t-123 -424q-123 -156 -330 -156t-333 156 q-122 155 -122 424zM633 1552h145l217 251h-176z" />
<glyph unicode="&#xd4;" horiz-adv-x="1530" d="M109 708q0 -336 179 -537q178 -199 479 -199q298 0 477 199q178 201 178 537q0 337 -178 536q-178 200 -477 200q-301 0 -479 -200q-179 -199 -179 -536zM312 708q0 269 122 424q126 156 333 156t330 -156q123 -155 123 -424t-123 -424q-123 -156 -330 -156t-333 156 q-122 155 -122 424zM477 1552h132l158 169l157 -169h132l-200 254h-179z" />
<glyph unicode="&#xd5;" horiz-adv-x="1530" d="M109 708q0 -336 179 -537q178 -199 479 -199q298 0 477 199q178 201 178 537q0 337 -178 536q-178 200 -477 200q-301 0 -479 -200q-179 -199 -179 -536zM312 708q0 269 122 424q126 156 333 156t330 -156q123 -155 123 -424t-123 -424q-123 -156 -330 -156t-333 156 q-122 155 -122 424zM453 1584h119v5q0 21 5 38t14.5 28t22.5 17.5t30 6.5q22 0 64 -23l55 -32q56 -28 78 -33q23 -7 60 -7q53 0 93.5 25.5t62.5 72.5t23 110h-119v-6q0 -39 -18.5 -63t-49.5 -24q-24 0 -68 22l-55 30q-43 24 -72 32.5t-65 8.5q-82 0 -131 -56t-49 -152z" />
<glyph unicode="&#xd6;" horiz-adv-x="1530" d="M109 708q0 -336 179 -537q178 -199 479 -199q298 0 477 199q178 201 178 537q0 337 -178 536q-178 200 -477 200q-301 0 -479 -200q-179 -199 -179 -536zM312 708q0 269 122 424q126 156 333 156t330 -156q123 -155 123 -424t-123 -424q-123 -156 -330 -156t-333 156 q-122 155 -122 424zM484 1584h193v192h-193v-192zM856 1584h193v192h-193v-192z" />
<glyph unicode="&#xd7;" horiz-adv-x="1630" d="M267 175l112 -115l436 436l436 -436l113 115l-434 434l434 436l-113 115l-436 -436l-436 436l-112 -115l433 -436z" />
<glyph unicode="&#xd8;" horiz-adv-x="1530" d="M97 17l98 -83l154 181q172 -143 418 -143q298 0 477 199q178 201 178 537q0 303 -150 500l162 188l-97 85l-154 -181q-169 144 -416 144q-301 0 -479 -200q-179 -199 -179 -536q0 -306 149 -500zM312 708q0 269 122 424q126 156 333 156q182 0 301 -124l-682 -806 q-74 134 -74 350zM465 253l681 803q74 -136 74 -348q0 -269 -123 -424q-123 -156 -330 -156q-184 0 -302 125z" />
<glyph unicode="&#xd9;" horiz-adv-x="1424" d="M169 533q0 -277 137.5 -419t405.5 -142q179 0 300 63.5t182 188t61 309.5v885h-193v-861q0 -227 -84 -329q-81 -100 -266 -100t-266 100q-84 102 -84 329v861h-193v-885zM481 1803l217 -251h147l-188 251h-176z" />
<glyph unicode="&#xda;" horiz-adv-x="1424" d="M169 533q0 -277 137.5 -419t405.5 -142q179 0 300 63.5t182 188t61 309.5v885h-193v-861q0 -227 -84 -329q-81 -100 -266 -100t-266 100q-84 102 -84 329v861h-193v-885zM578 1552h146l216 251h-175z" />
<glyph unicode="&#xdb;" horiz-adv-x="1424" d="M169 533q0 -277 137.5 -419t405.5 -142q179 0 300 63.5t182 188t61 309.5v885h-193v-861q0 -227 -84 -329q-81 -100 -266 -100t-266 100q-84 102 -84 329v861h-193v-885zM422 1552h133l157 169l157 -169h133l-200 254h-180z" />
<glyph unicode="&#xdc;" horiz-adv-x="1424" d="M169 533q0 -277 137.5 -419t405.5 -142q179 0 300 63.5t182 188t61 309.5v885h-193v-861q0 -227 -84 -329q-81 -100 -266 -100t-266 100q-84 102 -84 329v861h-193v-885zM430 1584h192v192h-192v-192zM802 1584h193v192h-193v-192z" />
<glyph unicode="&#xdd;" horiz-adv-x="1188" d="M-4 1418l502 -743v-675h193v675l501 743h-206l-390 -583l-394 583h-206zM461 1552h146l216 251h-175z" />
<glyph unicode="&#xde;" horiz-adv-x="1177" d="M191 0h192v321h241q238 0 360.5 107.5t122.5 316t-122.5 316t-360.5 107.5h-241v250h-192v-1418zM383 479v531h241q134 0 207 -69t73 -196q0 -85 -32.5 -145t-95.5 -90.5t-152 -30.5h-241z" />
<glyph unicode="&#xdf;" horiz-adv-x="1225" d="M177 0h177v1076q0 126 65 191.5t188 65.5q108 0 170 -53.5t69 -150.5q-143 -28 -222.5 -110t-79.5 -202q0 -86 41.5 -150.5t132.5 -120.5l88 -52q96 -58 124 -99q28 -44 28 -100q0 -57 -25.5 -96.5t-75.5 -59.5t-124 -20q-125 0 -270 56v-156q135 -47 259 -47 q200 0 307 87.5t107 250.5q0 95 -44 163q-45 64 -205 167l-54 35q-41 28 -66.5 53.5t-38 52t-12.5 56.5q0 61 36 106t104 71t163 31q-2 213 -106.5 323t-301.5 110q-208 0 -321 -104.5t-113 -293.5v-1080z" />
<glyph unicode="&#xe0;" horiz-adv-x="1192" d="M117 310q0 -155 95 -245q98 -93 261 -93q87 0 155 21t120.5 62.5t92.5 106.5v-162h175v607q0 244 -114 363.5t-345 119.5q-166 0 -362 -74v-162q162 87 344 87q143 0 222.5 -65.5t79.5 -186.5v-17h-245q-238 0 -358.5 -91.5t-120.5 -270.5zM239 1556l310 -355h145 l-267 355h-188zM292 321q0 115 81 165q79 49 294 49h174v-39q0 -171 -88 -275q-87 -102 -233 -102q-105 0 -166.5 54.5t-61.5 147.5z" />
<glyph unicode="&#xe1;" horiz-adv-x="1192" d="M117 310q0 -155 95 -245q98 -93 261 -93q87 0 155 21t120.5 62.5t92.5 106.5v-162h175v607q0 244 -114 363.5t-345 119.5q-166 0 -362 -74v-162q162 87 344 87q143 0 222.5 -65.5t79.5 -186.5v-17h-245q-238 0 -358.5 -91.5t-120.5 -270.5zM292 321q0 115 81 165 q79 49 294 49h174v-39q0 -171 -88 -275q-87 -102 -233 -102q-105 0 -166.5 54.5t-61.5 147.5zM430 1199h146l309 357h-189z" />
<glyph unicode="&#xe2;" horiz-adv-x="1192" d="M117 310q0 -155 95 -245q98 -93 261 -93q87 0 155 21t120.5 62.5t92.5 106.5v-162h175v607q0 244 -114 363.5t-345 119.5q-166 0 -362 -74v-162q162 87 344 87q143 0 222.5 -65.5t79.5 -186.5v-17h-245q-238 0 -358.5 -91.5t-120.5 -270.5zM261 1199h132l171 233 l171 -233h132l-232 357h-141zM292 321q0 115 81 165q79 49 294 49h174v-39q0 -171 -88 -275q-87 -102 -233 -102q-105 0 -166.5 54.5t-61.5 147.5z" />
<glyph unicode="&#xe3;" horiz-adv-x="1192" d="M117 310q0 -155 95 -245q98 -93 261 -93q87 0 155 21t120.5 62.5t92.5 106.5v-162h175v607q0 244 -114 363.5t-345 119.5q-166 0 -362 -74v-162q162 87 344 87q143 0 222.5 -65.5t79.5 -186.5v-17h-245q-238 0 -358.5 -91.5t-120.5 -270.5zM251 1244h119q1 52 8.5 84 t23 47.5t40.5 15.5t64 -37l54 -52q24 -22 45 -34.5t42 -18t46 -5.5q86 0 134.5 70t50.5 197h-119q-1 -77 -18.5 -112t-53.5 -35q-25 0 -65 37l-54 53q-23 21 -44 33.5t-42 18t-46 5.5q-86 0 -135 -70t-50 -197zM292 321q0 115 81 165q79 49 294 49h174v-39q0 -171 -88 -275 q-87 -102 -233 -102q-105 0 -166.5 54.5t-61.5 147.5z" />
<glyph unicode="&#xe4;" horiz-adv-x="1192" d="M117 310q0 -155 95 -245q98 -93 261 -93q87 0 155 21t120.5 62.5t92.5 106.5v-162h175v607q0 244 -114 363.5t-345 119.5q-166 0 -362 -74v-162q162 87 344 87q143 0 222.5 -65.5t79.5 -186.5v-17h-245q-238 0 -358.5 -91.5t-120.5 -270.5zM282 1282h193v192h-193v-192z M292 321q0 115 81 165q79 49 294 49h174v-39q0 -171 -88 -275q-87 -102 -233 -102q-105 0 -166.5 54.5t-61.5 147.5zM654 1282h192v192h-192v-192z" />
<glyph unicode="&#xe5;" horiz-adv-x="1192" d="M117 310q0 -155 95 -245q98 -93 261 -93q87 0 155 21t120.5 62.5t92.5 106.5v-162h175v607q0 244 -114 363.5t-345 119.5q-166 0 -362 -74v-162q162 87 344 87q143 0 222.5 -65.5t79.5 -186.5v-17h-245q-238 0 -358.5 -91.5t-120.5 -270.5zM292 321q0 115 81 165 q79 49 294 49h174v-39q0 -171 -88 -275q-87 -102 -233 -102q-105 0 -166.5 54.5t-61.5 147.5zM304 1448q0 -110 75 -185q76 -76 185.5 -76t185.5 76q75 75 75 185q0 109 -75 184q-76 76 -185.5 76t-185.5 -76q-75 -75 -75 -184zM420 1448q0 60 41 100q40 43 103.5 43 t103.5 -43q41 -40 41 -100t-41 -104q-41 -41 -103.5 -41t-103.5 41t-41 104z" />
<glyph unicode="&#xe6;" horiz-adv-x="1910" d="M117 310q0 -161 99 -250q103 -88 280 -88q271 0 410 228q146 -228 468 -228q202 0 393 82v165q-186 -100 -384 -100q-174 0 -270.5 94.5t-108.5 276.5h804v86q0 236 -125 375q-127 139 -341 139q-255 0 -397 -175q-34 55 -91 94.5t-132.5 60t-164.5 20.5q-166 0 -362 -74 v-162q162 87 344 87q143 0 222.5 -65.5t79.5 -186.5v-17h-245q-238 0 -358.5 -91.5t-120.5 -270.5zM292 321q0 115 81 165q79 49 294 49h174v-39q0 -171 -88 -275q-87 -102 -233 -102q-105 0 -166.5 54.5t-61.5 147.5zM1010 626q13 150 100.5 232.5t233.5 82.5 q129 0 208 -85q77 -83 80 -230h-622z" />
<glyph unicode="&#xe7;" horiz-adv-x="1069" d="M107 531q0 -255 142 -408q141 -151 382 -151q167 0 318 69v161q-149 -81 -299 -81q-169 0 -264 107q-94 108 -94 303q0 197 94 302q94 108 264 108q150 0 299 -81v163q-144 67 -307 67q-249 0 -393 -150q-142 -151 -142 -409zM412 -228v-124q82 -23 168 -23 q226 0 226 171q0 86 -104 204h-113q84 -116 84 -169q0 -44 -29 -66.5t-84 -22.5q-88 0 -148 30z" />
<glyph unicode="&#xe8;" horiz-adv-x="1196" d="M107 522q0 -251 148 -401q151 -149 404 -149q206 0 394 82v165q-185 -98 -383 -98q-174 0 -271.5 94t-108.5 275h803v86q0 236 -124 375q-127 139 -340 139q-241 0 -382 -154q-140 -151 -140 -414zM294 1556l309 -355h146l-268 355h-187zM295 626q12 147 102 232 q87 83 234 83q128 0 208 -85.5t80 -229.5h-624z" />
<glyph unicode="&#xe9;" horiz-adv-x="1196" d="M107 522q0 -251 148 -401q151 -149 404 -149q206 0 394 82v165q-185 -98 -383 -98q-174 0 -271.5 94t-108.5 275h803v86q0 236 -124 375q-127 139 -340 139q-241 0 -382 -154q-140 -151 -140 -414zM295 626q12 147 102 232q87 83 234 83q128 0 208 -85.5t80 -229.5h-624z M484 1199h146l310 357h-190z" />
<glyph unicode="&#xea;" horiz-adv-x="1196" d="M107 522q0 -251 148 -401q151 -149 404 -149q206 0 394 82v165q-185 -98 -383 -98q-174 0 -271.5 94t-108.5 275h803v86q0 236 -124 375q-127 139 -340 139q-241 0 -382 -154q-140 -151 -140 -414zM295 626q12 147 102 232q87 83 234 83q128 0 208 -85.5t80 -229.5h-624z M315 1199h132l171 233l171 -233h133l-233 357h-141z" />
<glyph unicode="&#xeb;" horiz-adv-x="1196" d="M107 522q0 -251 148 -401q151 -149 404 -149q206 0 394 82v165q-185 -98 -383 -98q-174 0 -271.5 94t-108.5 275h803v86q0 236 -124 375q-127 139 -340 139q-241 0 -382 -154q-140 -151 -140 -414zM295 626q12 147 102 232q87 83 234 83q128 0 208 -85.5t80 -229.5h-624z M336 1282h193v192h-193v-192zM708 1282h193v192h-193v-192z" />
<glyph unicode="&#xec;" horiz-adv-x="540" d="M-54 1556l310 -355h145l-268 355h-187zM183 0h175v1064h-175v-1064z" />
<glyph unicode="&#xed;" horiz-adv-x="540" d="M137 1199h145l310 357h-189zM183 0h175v1064h-175v-1064z" />
<glyph unicode="&#xee;" horiz-adv-x="540" d="M-32 1199h132l171 233l171 -233h132l-233 357h-141zM183 0h175v1064h-175v-1064z" />
<glyph unicode="&#xef;" horiz-adv-x="540" d="M-11 1282h192v192h-192v-192zM183 0h175v1064h-175v-1064zM360 1282h193v192h-193v-192z" />
<glyph unicode="&#xf0;" horiz-adv-x="1190" d="M107 510q0 -244 134 -389q134 -149 355 -149q216 0 353 149q135 146 135 389q0 166 -55 301q-54 140 -173 273l-156 177l280 93l-31 92l-316 -106l-121 138h-217l172 -194l-267 -87l32 -94l303 102l152 -172q-75 10 -107 10q-212 0 -341 -148q-132 -147 -132 -385z M292 510q0 185 87 288t247 103q77 0 170 -32q103 -131 103 -359q0 -179 -84 -284q-81 -105 -219.5 -105t-222.5 105q-81 106 -81 284z" />
<glyph unicode="&#xf1;" horiz-adv-x="1233" d="M177 0h175v601q0 157 82 247q84 90 223 90q236 0 236 -302v-636h175v642q0 147 -42 246.5t-125 150.5t-205 51q-219 0 -344 -191v165h-175v-1064zM317 1244h119q1 52 9 84t23.5 47.5t39.5 15.5q25 0 65 -37l54 -52q18 -17 33.5 -28t31.5 -17.5t32.5 -9.5t34.5 -3 q57 0 98.5 31t63.5 91.5t23 144.5h-118q-2 -77 -19 -112t-54 -35q-24 0 -64 37l-54 53q-35 31 -65.5 44t-66.5 13q-87 0 -135.5 -70t-50.5 -197z" />
<glyph unicode="&#xf2;" horiz-adv-x="1190" d="M107 531q0 -263 131 -410q128 -149 358 -149t358 149q130 147 130 410t-130 410q-128 149 -358 149t-358 -149q-131 -147 -131 -410zM271 1556l309 -355h146l-268 355h-187zM292 531q0 190 81 299q82 111 223 111q140 0 221 -111q82 -111 82 -299q0 -190 -82 -299 q-81 -111 -221 -111q-143 0 -225 109q-79 113 -79 301z" />
<glyph unicode="&#xf3;" horiz-adv-x="1190" d="M107 531q0 -263 131 -410q128 -149 358 -149t358 149q130 147 130 410t-130 410q-128 149 -358 149t-358 -149q-131 -147 -131 -410zM292 531q0 190 81 299q82 111 223 111q140 0 221 -111q82 -111 82 -299q0 -190 -82 -299q-81 -111 -221 -111q-143 0 -225 109 q-79 113 -79 301zM462 1199h145l310 357h-189z" />
<glyph unicode="&#xf4;" horiz-adv-x="1190" d="M107 531q0 -263 131 -410q128 -149 358 -149t358 149q130 147 130 410t-130 410q-128 149 -358 149t-358 -149q-131 -147 -131 -410zM292 531q0 190 81 299q82 111 223 111q140 0 221 -111q82 -111 82 -299q0 -190 -82 -299q-81 -111 -221 -111q-143 0 -225 109 q-79 113 -79 301zM293 1199h132l171 233l171 -233h132l-233 357h-141z" />
<glyph unicode="&#xf5;" horiz-adv-x="1190" d="M107 531q0 -263 131 -410q128 -149 358 -149t358 149q130 147 130 410t-130 410q-128 149 -358 149t-358 -149q-131 -147 -131 -410zM282 1244h119q1 52 9 84t23.5 47.5t39.5 15.5q25 0 65 -37l54 -52q17 -17 33 -28t32 -17.5t32 -9.5t35 -3q86 0 135 70t50 197h-119 q-1 -77 -18 -112t-54 -35q-25 0 -64 37l-55 53q-34 31 -64.5 44t-67.5 13q-86 0 -134.5 -70t-50.5 -197zM292 531q0 190 81 299q82 111 223 111q140 0 221 -111q82 -111 82 -299q0 -190 -82 -299q-81 -111 -221 -111q-143 0 -225 109q-79 113 -79 301z" />
<glyph unicode="&#xf6;" horiz-adv-x="1190" d="M107 531q0 -263 131 -410q128 -149 358 -149t358 149q130 147 130 410t-130 410q-128 149 -358 149t-358 -149q-131 -147 -131 -410zM292 531q0 190 81 299q82 111 223 111q140 0 221 -111q82 -111 82 -299q0 -190 -82 -299q-81 -111 -221 -111q-143 0 -225 109 q-79 113 -79 301zM314 1282h192v192h-192v-192zM685 1282h193v192h-193v-192z" />
<glyph unicode="&#xf7;" horiz-adv-x="1630" d="M206 529h1218v162h-1218v-162zM698 142h234v233h-234v-233zM698 845h234v233h-234v-233z" />
<glyph unicode="&#xf8;" horiz-adv-x="1190" d="M68 -15l92 -74l132 159q121 -98 304 -98q230 0 358 149q130 147 130 410q0 231 -102 375l139 170l-90 75l-132 -159q-130 98 -303 98q-230 0 -358 -149q-131 -147 -131 -410q0 -228 103 -373zM292 518q0 197 79 310q81 113 225 113q118 0 196 -77l-463 -563 q-37 84 -37 217zM397 199l463 562q39 -82 39 -230q0 -190 -82 -299q-81 -111 -221 -111q-121 0 -199 78z" />
<glyph unicode="&#xf9;" horiz-adv-x="1233" d="M165 420q0 -220 95 -334t279 -114q218 0 343 191v-163h174v1064h-174v-603q0 -157 -82 -247q-84 -90 -224 -90q-236 0 -236 303v637h-175v-644zM278 1556l310 -355h145l-267 355h-188z" />
<glyph unicode="&#xfa;" horiz-adv-x="1233" d="M165 420q0 -220 95 -334t279 -114q218 0 343 191v-163h174v1064h-174v-603q0 -157 -82 -247q-84 -90 -224 -90q-236 0 -236 303v637h-175v-644zM469 1199h146l309 357h-189z" />
<glyph unicode="&#xfb;" horiz-adv-x="1233" d="M165 420q0 -220 95 -334t279 -114q218 0 343 191v-163h174v1064h-174v-603q0 -157 -82 -247q-84 -90 -224 -90q-236 0 -236 303v637h-175v-644zM300 1199h132l171 233l171 -233h132l-232 357h-141z" />
<glyph unicode="&#xfc;" horiz-adv-x="1233" d="M165 420q0 -220 95 -334t279 -114q218 0 343 191v-163h174v1064h-174v-603q0 -157 -82 -247q-84 -90 -224 -90q-236 0 -236 303v637h-175v-644zM321 1282h193v192h-193v-192zM693 1282h192v192h-192v-192z" />
<glyph unicode="&#xfd;" horiz-adv-x="1151" d="M58 1064l430 -1047l-31 -80q-51 -131 -89 -161q-37 -34 -112 -34h-102v-147h140q119 0 189 58q68 60 143 248l467 1163h-185l-332 -832l-333 832h-185zM442 1199h145l310 357h-189z" />
<glyph unicode="&#xfe;" horiz-adv-x="1235" d="M177 -405h175v565q110 -188 341 -188q194 0 315 154q121 157 121 405t-121 405q-121 154 -315 154q-231 0 -341 -188v576h-175v-1883zM352 531q0 192 80 302q78 110 218 110t217 -110q80 -110 80 -302q0 -190 -80 -303q-79 -109 -217.5 -109t-217.5 109q-80 113 -80 303z " />
<glyph unicode="&#xff;" horiz-adv-x="1151" d="M58 1064l430 -1047l-31 -80q-51 -131 -89 -161q-37 -34 -112 -34h-102v-147h140q119 0 189 58q68 60 143 248l467 1163h-185l-332 -832l-333 832h-185zM294 1282h192v192h-192v-192zM665 1282h193v192h-193v-192z" />
<glyph unicode="&#x100;" horiz-adv-x="1330" d="M15 0h203l129 364h639l129 -364h200l-541 1418h-217zM381 1609h568v140h-568v-140zM405 523l260 706l261 -706h-521z" />
<glyph unicode="&#x101;" horiz-adv-x="1192" d="M117 310q0 -155 95 -245q98 -93 261 -93q87 0 155 21t120.5 62.5t92.5 106.5v-162h175v607q0 244 -114 363.5t-345 119.5q-166 0 -362 -74v-162q162 87 344 87q143 0 222.5 -65.5t79.5 -186.5v-17h-245q-238 0 -358.5 -91.5t-120.5 -270.5zM273 1309h568v141h-568v-141z M292 321q0 115 81 165q79 49 294 49h174v-39q0 -171 -88 -275q-87 -102 -233 -102q-105 0 -166.5 54.5t-61.5 147.5z" />
<glyph unicode="&#x102;" horiz-adv-x="1330" d="M15 0h203l129 364h639l129 -364h200l-541 1418h-217zM386 1840q20 -272 297 -272t297 272h-113q-22 -141 -184 -141q-165 0 -185 141h-112zM405 523l260 706l261 -706h-521z" />
<glyph unicode="&#x103;" horiz-adv-x="1192" d="M117 310q0 -155 95 -245q98 -93 261 -93q87 0 155 21t120.5 62.5t92.5 106.5v-162h175v607q0 244 -114 363.5t-345 119.5q-166 0 -362 -74v-162q162 87 344 87q143 0 222.5 -65.5t79.5 -186.5v-17h-245q-238 0 -358.5 -91.5t-120.5 -270.5zM265 1489q7 -91 42.5 -151.5 t99.5 -91t155 -30.5q138 0 213 68.5t85 204.5h-113q-23 -143 -185 -143q-165 0 -185 143h-112zM292 321q0 115 81 165q79 49 294 49h174v-39q0 -171 -88 -275q-87 -102 -233 -102q-105 0 -166.5 54.5t-61.5 147.5z" />
<glyph unicode="&#x104;" horiz-adv-x="1330" d="M15 0h203l129 364h639l129 -364h200l-541 1418h-217zM405 523l260 706l261 -706h-521zM1017 -204q0 -89 54.5 -130t172.5 -41q47 0 128 19v126q-59 -28 -119 -28q-103 0 -103 87q0 55 83 171h-112q-104 -118 -104 -204z" />
<glyph unicode="&#x105;" horiz-adv-x="1192" d="M117 310q0 -155 95 -245q98 -93 261 -93q87 0 155 21t120.5 62.5t92.5 106.5v-162h175v607q0 244 -114 363.5t-345 119.5q-166 0 -362 -74v-162q162 87 344 87q143 0 222.5 -65.5t79.5 -186.5v-17h-245q-238 0 -358.5 -91.5t-120.5 -270.5zM292 321q0 115 81 165 q79 49 294 49h174v-39q0 -171 -88 -275q-87 -102 -233 -102q-105 0 -166.5 54.5t-61.5 147.5zM739 -204q0 -89 54.5 -130t171.5 -41q48 0 128 19v126q-58 -28 -118 -28q-103 0 -103 87q0 55 84 171h-113q-104 -118 -104 -204z" />
<glyph unicode="&#x106;" horiz-adv-x="1357" d="M109 708q0 -340 185 -539q188 -197 508 -197q250 0 451 137v201q-191 -180 -440 -180q-162 0 -274 66.5t-169.5 196t-57.5 315.5q0 187 57.5 316.5t169.5 195.5t274 66q249 0 440 -179v202q-199 135 -451 135q-320 0 -508 -197q-185 -198 -185 -539zM638 1552h146 l216 251h-175z" />
<glyph unicode="&#x107;" horiz-adv-x="1069" d="M107 531q0 -255 142 -408q141 -151 382 -151q167 0 318 69v161q-149 -81 -299 -81q-169 0 -264 107q-94 108 -94 303q0 197 94 302q94 108 264 108q150 0 299 -81v163q-144 67 -307 67q-249 0 -393 -150q-142 -151 -142 -409zM483 1199h145l310 357h-189z" />
<glyph unicode="&#x108;" horiz-adv-x="1357" d="M109 708q0 -340 185 -539q188 -197 508 -197q250 0 451 137v201q-191 -180 -440 -180q-162 0 -274 66.5t-169.5 196t-57.5 315.5q0 187 57.5 316.5t169.5 195.5t274 66q249 0 440 -179v202q-199 135 -451 135q-320 0 -508 -197q-185 -198 -185 -539zM512 1552h132 l158 169l158 -169h132l-201 254h-179z" />
<glyph unicode="&#x109;" horiz-adv-x="1069" d="M107 531q0 -255 142 -408q141 -151 382 -151q167 0 318 69v161q-149 -81 -299 -81q-169 0 -264 107q-94 108 -94 303q0 197 94 302q94 108 264 108q150 0 299 -81v163q-144 67 -307 67q-249 0 -393 -150q-142 -151 -142 -409zM338 1199h133l171 233l171 -233h132 l-233 357h-140z" />
<glyph unicode="&#x10a;" horiz-adv-x="1357" d="M109 708q0 -340 185 -539q188 -197 508 -197q250 0 451 137v201q-191 -180 -440 -180q-162 0 -274 66.5t-169.5 196t-57.5 315.5q0 187 57.5 316.5t169.5 195.5t274 66q249 0 440 -179v202q-199 135 -451 135q-320 0 -508 -197q-185 -198 -185 -539zM704 1584h195v194 h-195v-194z" />
<glyph unicode="&#x10b;" horiz-adv-x="1069" d="M107 531q0 -255 142 -408q141 -151 382 -151q167 0 318 69v161q-149 -81 -299 -81q-169 0 -264 107q-94 108 -94 303q0 197 94 302q94 108 264 108q150 0 299 -81v163q-144 67 -307 67q-249 0 -393 -150q-142 -151 -142 -409zM544 1281h195v193h-195v-193z" />
<glyph unicode="&#x10c;" horiz-adv-x="1357" d="M109 708q0 -340 185 -539q188 -197 508 -197q250 0 451 137v201q-191 -180 -440 -180q-162 0 -274 66.5t-169.5 196t-57.5 315.5q0 187 57.5 316.5t169.5 195.5t274 66q249 0 440 -179v202q-199 135 -451 135q-320 0 -508 -197q-185 -198 -185 -539zM483 1806l200 -254 h179l200 254h-132l-158 -170l-157 170h-132z" />
<glyph unicode="&#x10d;" horiz-adv-x="1069" d="M107 531q0 -255 142 -408q141 -151 382 -151q167 0 318 69v161q-149 -81 -299 -81q-169 0 -264 107q-94 108 -94 303q0 197 94 302q94 108 264 108q150 0 299 -81v163q-144 67 -307 67q-249 0 -393 -150q-142 -151 -142 -409zM314 1556l232 -357h141l233 357h-132 l-171 -233l-171 233h-132z" />
<glyph unicode="&#x10e;" horiz-adv-x="1497" d="M191 0h394q413 0 603 171q195 172 195 540q0 363 -193 536q-190 171 -605 171h-394v-1418zM383 158v1103h232q292 0 430 -132q136 -136 136 -418q0 -285 -136 -421q-138 -132 -430 -132h-232zM420 1825l200 -253h180l200 253h-133l-156 -169l-158 169h-133z" />
<glyph unicode="&#x10f;" horiz-adv-x="1235" d="M107 531q0 -248 121 -405q121 -154 314 -154q235 0 342 188v-160h174v1478h-174v-576q-107 188 -342 188q-193 0 -314 -154q-121 -157 -121 -405zM288 531q0 190 78 302q80 110 219 110q141 0 219 -110q80 -110 80 -302q0 -190 -80 -303q-79 -109 -219 -109 q-137 0 -219 109q-78 115 -78 303zM1168 1119h145l111 357h-189z" />
<glyph unicode="&#x110;" horiz-adv-x="1507" d="M10 665h190v-665h396q412 0 603 171q194 171 194 540q0 364 -192 536q-191 171 -605 171h-396v-616h-190v-137zM393 158v507h319v137h-319v459h231q293 0 430 -132q136 -136 136 -418q0 -285 -136 -421q-137 -132 -430 -132h-231z" />
<glyph unicode="&#x111;" horiz-adv-x="1235" d="M107 531q0 -248 121 -405q121 -154 314 -154q235 0 342 188v-160h174v1220h147v119h-147v139h-174v-139h-310v-119h310v-318q-107 188 -342 188q-193 0 -314 -154q-121 -157 -121 -405zM288 531q0 190 78 302q80 110 219 110q141 0 219 -110q80 -110 80 -302 q0 -190 -80 -303q-79 -109 -219 -109q-137 0 -219 109q-78 115 -78 303z" />
<glyph unicode="&#x112;" horiz-adv-x="1229" d="M191 0h914v162h-722v513h675v162h-675v420h705v161h-897v-1418zM356 1611h568v140h-568v-140z" />
<glyph unicode="&#x113;" horiz-adv-x="1196" d="M107 522q0 -251 148 -401q151 -149 404 -149q206 0 394 82v165q-185 -98 -383 -98q-174 0 -271.5 94t-108.5 275h803v86q0 236 -124 375q-127 139 -340 139q-241 0 -382 -154q-140 -151 -140 -414zM295 626q12 147 102 232q87 83 234 83q128 0 208 -85.5t80 -229.5h-624z M344 1309h569v141h-569v-141z" />
<glyph unicode="&#x114;" horiz-adv-x="1229" d="M191 0h914v162h-722v513h675v162h-675v420h705v161h-897v-1418zM342 1806q5 -57 26.5 -100t59 -72t91 -43.5t121.5 -14.5q136 0 212 58t86 172h-113q-28 -106 -185 -106q-79 0 -126.5 27.5t-58.5 78.5h-113z" />
<glyph unicode="&#x115;" horiz-adv-x="1196" d="M107 522q0 -251 148 -401q151 -149 404 -149q206 0 394 82v165q-185 -98 -383 -98q-174 0 -271.5 94t-108.5 275h803v86q0 236 -124 375q-127 139 -340 139q-241 0 -382 -154q-140 -151 -140 -414zM295 626q12 147 102 232q87 83 234 83q128 0 208 -85.5t80 -229.5h-624z M331 1528q6 -90 42 -151t100 -91.5t156 -30.5q137 0 212 68.5t85 204.5h-113q-23 -143 -184 -143q-165 0 -185 143h-113z" />
<glyph unicode="&#x116;" horiz-adv-x="1229" d="M191 0h914v162h-722v513h675v162h-675v420h705v161h-897v-1418zM542 1584h195v194h-195v-194z" />
<glyph unicode="&#x117;" horiz-adv-x="1196" d="M107 522q0 -251 148 -401q151 -149 404 -149q206 0 394 82v165q-185 -98 -383 -98q-174 0 -271.5 94t-108.5 275h803v86q0 236 -124 375q-127 139 -340 139q-241 0 -382 -154q-140 -151 -140 -414zM295 626q12 147 102 232q87 83 234 83q128 0 208 -85.5t80 -229.5h-624z M531 1281h195v193h-195v-193z" />
<glyph unicode="&#x118;" horiz-adv-x="1229" d="M191 0h914v162h-722v513h675v162h-675v420h705v161h-897v-1418zM753 -204q0 -89 54.5 -130t170.5 -41q48 0 129 19v126q-59 -28 -119 -28q-103 0 -103 87q0 55 84 171h-113q-103 -116 -103 -204z" />
<glyph unicode="&#x119;" horiz-adv-x="1196" d="M107 522q0 -251 148 -401q151 -149 404 -149q206 0 394 82v165q-185 -98 -383 -98q-174 0 -271.5 94t-108.5 275h803v86q0 236 -124 375q-127 139 -340 139q-241 0 -382 -154q-140 -151 -140 -414zM295 626q12 147 102 232q87 83 234 83q128 0 208 -85.5t80 -229.5h-624z M674 -204q0 -89 54 -130t171 -41q47 0 128 19v126q-58 -28 -119 -28q-102 0 -102 87q0 55 83 171h-113q-102 -116 -102 -204z" />
<glyph unicode="&#x11a;" horiz-adv-x="1229" d="M191 0h914v162h-722v513h675v162h-675v420h705v161h-897v-1418zM354 1799l201 -252h178l201 252h-132l-158 -169l-158 169h-132z" />
<glyph unicode="&#x11b;" horiz-adv-x="1196" d="M107 522q0 -251 148 -401q151 -149 404 -149q206 0 394 82v165q-185 -98 -383 -98q-174 0 -271.5 94t-108.5 275h803v86q0 236 -124 375q-127 139 -340 139q-241 0 -382 -154q-140 -151 -140 -414zM295 626q12 147 102 232q87 83 234 83q128 0 208 -85.5t80 -229.5h-624z M323 1552l233 -357h140l233 357h-132l-171 -232l-171 232h-132z" />
<glyph unicode="&#x11c;" horiz-adv-x="1507" d="M109 708q0 -348 186 -543q190 -193 522 -193q307 0 531 160v609h-503v-158h313v-381q-125 -72 -325 -72q-260 0 -390.5 145t-130.5 433q0 191 58 320t174 193.5t289 64.5q264 0 478 -181v204q-216 135 -494 135q-332 0 -522 -195q-186 -192 -186 -541zM527 1552h132 l158 169l158 -169h132l-201 254h-178z" />
<glyph unicode="&#x11d;" horiz-adv-x="1235" d="M107 544q0 -245 121 -394q119 -150 314 -150q233 0 342 187v-86q0 -182 -85.5 -271.5t-257.5 -89.5q-154 0 -305 81v-170q149 -56 332 -56q248 0 369 133t121 404v932h-174v-162q-109 188 -342 188q-195 0 -314 -150q-121 -150 -121 -396zM282 1199h132l171 233l172 -233 h132l-233 357h-140zM288 544q0 193 78 295q77 104 219 104t220.5 -104.5t78.5 -294.5q0 -184 -78 -293q-78 -105 -221 -105q-140 0 -218.5 104.5t-78.5 293.5z" />
<glyph unicode="&#x11e;" horiz-adv-x="1507" d="M109 708q0 -348 186 -543q190 -193 522 -193q307 0 531 160v609h-503v-158h313v-381q-125 -72 -325 -72q-260 0 -390.5 145t-130.5 433q0 191 58 320t174 193.5t289 64.5q264 0 478 -181v204q-216 135 -494 135q-332 0 -522 -195q-186 -192 -186 -541zM457 1806 q10 -114 85.5 -172t212.5 -58q136 0 212 58t86 172h-113q-28 -106 -185 -106q-79 0 -126.5 27.5t-58.5 78.5h-113z" />
<glyph unicode="&#x11f;" horiz-adv-x="1235" d="M107 544q0 -245 121 -394q119 -150 314 -150q233 0 342 187v-86q0 -182 -85.5 -271.5t-257.5 -89.5q-154 0 -305 81v-170q149 -56 332 -56q248 0 369 133t121 404v932h-174v-162q-109 188 -342 188q-195 0 -314 -150q-121 -150 -121 -396zM288 544q0 193 78 295 q77 104 219 104t220.5 -104.5t78.5 -294.5q0 -184 -78 -293q-78 -105 -221 -105q-140 0 -218.5 104.5t-78.5 293.5zM321 1528q7 -91 42.5 -151.5t99.5 -91t155 -30.5q138 0 213 68.5t85 204.5h-112q-23 -143 -186 -143q-165 0 -185 143h-112z" />
<glyph unicode="&#x120;" horiz-adv-x="1507" d="M109 708q0 -348 186 -543q190 -193 522 -193q307 0 531 160v609h-503v-158h313v-381q-125 -72 -325 -72q-260 0 -390.5 145t-130.5 433q0 191 58 320t174 193.5t289 64.5q264 0 478 -181v204q-216 135 -494 135q-332 0 -522 -195q-186 -192 -186 -541zM720 1584h195v194 h-195v-194z" />
<glyph unicode="&#x121;" horiz-adv-x="1235" d="M107 544q0 -245 121 -394q119 -150 314 -150q233 0 342 187v-86q0 -182 -85.5 -271.5t-257.5 -89.5q-154 0 -305 81v-170q149 -56 332 -56q248 0 369 133t121 404v932h-174v-162q-109 188 -342 188q-195 0 -314 -150q-121 -150 -121 -396zM288 544q0 193 78 295 q77 104 219 104t220.5 -104.5t78.5 -294.5q0 -184 -78 -293q-78 -105 -221 -105q-140 0 -218.5 104.5t-78.5 293.5zM488 1281h195v193h-195v-193z" />
<glyph unicode="&#x122;" horiz-adv-x="1507" d="M109 708q0 -348 186 -543q190 -193 522 -193q307 0 531 160v609h-503v-158h313v-381q-125 -72 -325 -72q-260 0 -390.5 145t-130.5 433q0 191 58 320t174 193.5t289 64.5q264 0 478 -181v204q-216 135 -494 135q-332 0 -522 -195q-186 -192 -186 -541zM677 -447h123 l156 305h-201z" />
<glyph unicode="&#x123;" horiz-adv-x="1235" d="M107 544q0 -245 121 -394q119 -150 314 -150q233 0 342 187v-86q0 -182 -85.5 -271.5t-257.5 -89.5q-154 0 -305 81v-170q149 -56 332 -56q248 0 369 133t121 404v932h-174v-162q-109 188 -342 188q-195 0 -314 -150q-121 -150 -121 -396zM288 544q0 193 78 295 q77 104 219 104t220.5 -104.5t78.5 -294.5q0 -184 -78 -293q-78 -105 -221 -105q-140 0 -218.5 104.5t-78.5 293.5zM484 1206h201l78 304h-123z" />
<glyph unicode="&#x124;" horiz-adv-x="1463" d="M191 0h192v675h697v-675h192v1418h-192v-581h-697v581h-192v-1418zM442 1552h132l158 169l157 -169h132l-200 254h-179z" />
<glyph unicode="&#x125;" horiz-adv-x="1233" d="M-26 1552h133l158 169l157 -169h133l-201 254h-179zM177 0h175v601q0 157 82 247q84 90 223 90q236 0 236 -302v-636h175v642q0 147 -42 246.5t-125 150.5t-205 51q-219 0 -344 -191v579h-175v-1478z" />
<glyph unicode="&#x126;" horiz-adv-x="1781" d="M191 1051h160v-1051h191v675h698v-675h192v1051h159v155h-159v212h-192v-212h-698v212h-191v-212h-160v-155zM542 837v214h698v-214h-698z" />
<glyph unicode="&#x127;" horiz-adv-x="1351" d="M115 1206h119v-1206h174v601q0 157 82 247q84 90 224 90q235 0 235 -302v-636h176v642q0 147 -42 246.5t-125 150.5t-205 51q-220 0 -345 -191v307h335v156h-335v116h-174v-116h-119v-156z" />
<glyph unicode="&#x128;" horiz-adv-x="573" d="M-28 1584h119v5q0 42 19.5 66t52.5 24q23 0 65 -23l54 -32q56 -28 78 -33q23 -7 60 -7q80 0 129 56.5t50 151.5h-118v-6q0 -26 -8.5 -46t-24 -30.5t-36.5 -10.5q-24 0 -68 22l-54 30q-44 24 -73 32.5t-65 8.5q-82 0 -131 -56t-49 -152zM191 0h192v1418h-192v-1418z" />
<glyph unicode="&#x129;" horiz-adv-x="540" d="M-43 1244h119q1 77 18.5 112t53.5 35q24 0 64 -37l55 -52q34 -32 64.5 -45t67.5 -13q86 0 134.5 69.5t49.5 197.5h-118q-2 -77 -18.5 -112t-53.5 -35q-25 0 -64 37l-54 53q-35 31 -65.5 44t-67.5 13q-86 0 -134.5 -70t-50.5 -197zM183 0h175v1064h-175v-1064z" />
<glyph unicode="&#x12a;" horiz-adv-x="573" d="M2 1609h568v140h-568v-140zM191 0h192v1418h-192v-1418z" />
<glyph unicode="&#x12b;" horiz-adv-x="540" d="M-13 1309h568v141h-568v-141zM183 0h175v1064h-175v-1064z" />
<glyph unicode="&#x12c;" horiz-adv-x="573" d="M-11 1806q20 -230 297 -230q136 0 211.5 58t85.5 172h-112q-28 -106 -185 -106q-53 0 -91.5 12.5t-62.5 36t-31 57.5h-112zM191 0h192v1418h-192v-1418z" />
<glyph unicode="&#x12d;" horiz-adv-x="540" d="M-28 1528q7 -90 43 -151t100 -91.5t156 -30.5q137 0 212 68.5t85 204.5h-113q-23 -143 -184 -143q-166 0 -185 143h-114zM183 0h175v1064h-175v-1064z" />
<glyph unicode="&#x12e;" horiz-adv-x="573" d="M167 -204q0 -89 54.5 -130t171.5 -41q48 0 129 19v126q-59 -28 -119 -28q-104 0 -104 87q0 55 84 171h-112q-104 -118 -104 -204zM191 0h192v1418h-192v-1418z" />
<glyph unicode="&#x12f;" horiz-adv-x="540" d="M142 -204q0 -89 54.5 -130t171.5 -41q47 0 128 19v126q-59 -28 -119 -28q-102 0 -102 87q0 55 83 171h-113q-103 -116 -103 -204zM183 0h175v1064h-175v-1064zM183 1257h175v221h-175v-221z" />
<glyph unicode="&#x130;" horiz-adv-x="573" d="M191 0h192v1418h-192v-1418zM191 1584h195v194h-195v-194z" />
<glyph unicode="&#x131;" horiz-adv-x="540" d="M183 0h175v1064h-175v-1064z" />
<glyph unicode="&#x132;" horiz-adv-x="1147" d="M191 0h192v1418h-192v-1418zM473 -228v-162h73q214 0 312 115q100 117 100 374v1319h-193v-1319q0 -185 -53 -257q-53 -70 -179 -70h-60z" />
<glyph unicode="&#x133;" horiz-adv-x="1081" d="M183 0h175v1064h-175v-1064zM183 1257h175v221h-175v-221zM504 -256v-149h66q172 0 249 91q78 90 78 295v1083h-175v-1083q0 -145 -35 -191q-38 -46 -136 -46h-47zM722 1257h175v221h-175v-221z" />
<glyph unicode="&#x134;" horiz-adv-x="573" d="M-101 -228v-162h73q214 0 312 115q99 116 99 374v1319h-192v-1319q0 -183 -53 -257q-53 -70 -179 -70h-60zM-4 1552h132l158 169l158 -169h132l-201 254h-178z" />
<glyph unicode="&#x135;" horiz-adv-x="540" d="M-35 -256v-149h66q173 0 249 91q78 90 78 295v1083h-175v-1083q0 -145 -35 -191q-38 -46 -137 -46h-46zM-33 1199h132l172 233l171 -233h132l-234 357h-140z" />
<glyph unicode="&#x136;" horiz-adv-x="1275" d="M191 0h192v683l681 -683h253l-755 757l704 661h-247l-636 -599v599h-192v-1418zM613 -420h122l156 305h-200z" />
<glyph unicode="&#x137;" horiz-adv-x="1125" d="M177 0h175v520l541 -520h228l-588 566l564 498h-223l-522 -459v873h-175v-1478zM508 -420h123l155 305h-201z" />
<glyph unicode="&#x138;" horiz-adv-x="1125" d="M177 0h175v518l541 -518h228l-588 564l564 500h-223l-522 -461v461h-175v-1064z" />
<glyph unicode="&#x139;" horiz-adv-x="1083" d="M191 0h883v162h-691v1256h-192v-1418zM214 1554h146l216 252h-175z" />
<glyph unicode="&#x13a;" horiz-adv-x="570" d="M183 0h175v1478h-175v-1478zM195 1554h145l217 252h-176z" />
<glyph unicode="&#x13b;" horiz-adv-x="1083" d="M191 0h883v162h-691v1256h-192v-1418zM492 -420h123l155 305h-200z" />
<glyph unicode="&#x13c;" horiz-adv-x="540" d="M130 -420h123l155 305h-200zM183 0h175v1478h-175v-1478z" />
<glyph unicode="&#x13d;" horiz-adv-x="1083" d="M191 0h883v162h-691v1256h-192v-1418zM570 1060h146l110 358h-188z" />
<glyph unicode="&#x13e;" horiz-adv-x="729" d="M183 0h175v1478h-175v-1478zM473 1121h145l112 357h-189z" />
<glyph unicode="&#x13f;" horiz-adv-x="1083" d="M191 0h883v162h-691v1256h-192v-1418zM741 667h200v241h-200v-241z" />
<glyph unicode="&#x140;" horiz-adv-x="665" d="M183 0h175v1478h-175v-1478zM410 663h201v241h-201v-241z" />
<glyph unicode="&#x141;" horiz-adv-x="1092" d="M-13 546l73 -104l140 100v-542h884v162h-691v513l374 261l-76 105l-298 -208v585h-193v-722z" />
<glyph unicode="&#x142;" horiz-adv-x="551" d="M2 650l70 -101l117 84v-633h175v757l191 134l-72 101l-119 -86v572h-175v-694z" />
<glyph unicode="&#x143;" horiz-adv-x="1454" d="M191 0h186v1187l629 -1187h258v1418h-186v-1186l-629 1186h-258v-1418zM539 1554h146l216 252h-175z" />
<glyph unicode="&#x144;" horiz-adv-x="1233" d="M177 0h175v601q0 157 82 247q84 90 223 90q236 0 236 -302v-636h175v642q0 147 -42 246.5t-125 150.5t-205 51q-219 0 -344 -191v165h-175v-1064zM414 1205h146l309 358h-188z" />
<glyph unicode="&#x145;" horiz-adv-x="1454" d="M191 0h186v1187l629 -1187h258v1418h-186v-1186l-629 1186h-258v-1418zM587 -420h124l154 305h-200z" />
<glyph unicode="&#x146;" horiz-adv-x="1233" d="M177 0h175v601q0 157 82 247q84 90 223 90q236 0 236 -302v-636h175v642q0 147 -42 246.5t-125 150.5t-205 51q-219 0 -344 -191v165h-175v-1064zM481 -420h122l156 305h-200z" />
<glyph unicode="&#x147;" horiz-adv-x="1454" d="M191 0h186v1187l629 -1187h258v1418h-186v-1186l-629 1186h-258v-1418zM430 1792l201 -253h178l201 253h-132l-158 -169l-158 169h-132z" />
<glyph unicode="&#x148;" horiz-adv-x="1233" d="M177 0h175v601q0 157 82 247q84 90 223 90q236 0 236 -302v-636h175v642q0 147 -42 246.5t-125 150.5t-205 51q-219 0 -344 -191v165h-175v-1064zM317 1556l233 -357h141l232 357h-132l-171 -233l-171 233h-132z" />
<glyph unicode="&#x149;" horiz-adv-x="1581" d="M195 971h122l156 303v144h-200v-144zM500 0h177v601q0 157 82 247q81 90 221 90q236 0 236 -302v-636h175v642q0 221 -94 334.5t-278 113.5q-217 0 -342 -191v165h-177v-1064z" />
<glyph unicode="&#x14a;" horiz-adv-x="1454" d="M202 0h175v1092l701 -1092q0 -164 -35 -210q-38 -46 -137 -46h-221v-149h241q172 0 249 91q78 90 78 295v1437h-175v-1091l-701 1091h-175v-1418z" />
<glyph unicode="&#x14b;" horiz-adv-x="1233" d="M177 0h175v601q0 157 82 247q84 90 223 90q236 0 236 -302v-655q0 -146 -37 -191q-35 -46 -134 -46h-222v-149h241q169 0 249 91q78 90 78 295v661q0 223 -95 335q-93 113 -277 113q-113 0 -196 -47q-82 -46 -148 -144v165h-175v-1064z" />
<glyph unicode="&#x14c;" horiz-adv-x="1530" d="M109 708q0 -336 179 -537q178 -199 479 -199q298 0 477 199q178 201 178 537q0 337 -178 536q-178 200 -477 200q-301 0 -479 -200q-179 -199 -179 -536zM312 708q0 269 122 424q126 156 333 156t330 -156q123 -155 123 -424t-123 -424q-123 -156 -330 -156t-333 156 q-122 155 -122 424zM483 1609h568v140h-568v-140z" />
<glyph unicode="&#x14d;" horiz-adv-x="1190" d="M107 531q0 -263 131 -410q128 -149 358 -149t358 149q130 147 130 410t-130 410q-128 149 -358 149t-358 -149q-131 -147 -131 -410zM292 531q0 190 81 299q82 111 223 111q140 0 221 -111q82 -111 82 -299q0 -190 -82 -299q-81 -111 -221 -111q-143 0 -225 109 q-79 113 -79 301zM312 1309h568v141h-568v-141z" />
<glyph unicode="&#x14e;" horiz-adv-x="1530" d="M109 708q0 -336 179 -537q178 -199 479 -199q298 0 477 199q178 201 178 537q0 337 -178 536q-178 200 -477 200q-301 0 -479 -200q-179 -199 -179 -536zM312 708q0 269 122 424q126 156 333 156t330 -156q123 -155 123 -424t-123 -424q-123 -156 -330 -156t-333 156 q-122 155 -122 424zM469 1806q20 -230 298 -230q136 0 211.5 58t85.5 172h-113q-28 -106 -184 -106q-53 0 -92 12.5t-62.5 36t-31.5 57.5h-112z" />
<glyph unicode="&#x14f;" horiz-adv-x="1190" d="M107 531q0 -263 131 -410q128 -149 358 -149t358 149q130 147 130 410t-130 410q-128 149 -358 149t-358 -149q-131 -147 -131 -410zM292 531q0 190 81 299q82 111 223 111q140 0 221 -111q82 -111 82 -299q0 -190 -82 -299q-81 -111 -221 -111q-143 0 -225 109 q-79 113 -79 301zM297 1528q10 -136 85.5 -204.5t213 -68.5t212.5 68.5t85 204.5h-113q-23 -143 -184 -143q-166 0 -186 143h-113z" />
<glyph unicode="&#x150;" horiz-adv-x="1530" d="M109 708q0 -336 179 -537q178 -199 479 -199q298 0 477 199q178 201 178 537q0 337 -178 536q-178 200 -477 200q-301 0 -479 -200q-179 -199 -179 -536zM312 708q0 269 122 424q126 156 333 156t330 -156q123 -155 123 -424t-123 -424q-123 -156 -330 -156t-333 156 q-122 155 -122 424zM498 1552h146l216 251h-175zM817 1552h146l216 251h-175z" />
<glyph unicode="&#x151;" horiz-adv-x="1190" d="M107 531q0 -263 131 -410q128 -149 358 -149t358 149q130 147 130 410t-130 410q-128 149 -358 149t-358 -149q-131 -147 -131 -410zM292 531q0 190 81 299q82 111 223 111q140 0 221 -111q82 -111 82 -299q0 -190 -82 -299q-81 -111 -221 -111q-143 0 -225 109 q-79 113 -79 301zM379 1199h131l212 357h-162zM683 1199h128l236 357h-169z" />
<glyph unicode="&#x152;" horiz-adv-x="2081" d="M109 711q0 -351 212 -531t624 -180h1012v162h-722v513h675v162h-675v420h705v161h-995q-411 0 -623.5 -180t-212.5 -527zM312 711q0 546 609 546h122v-1095h-122q-609 0 -609 549z" />
<glyph unicode="&#x153;" horiz-adv-x="1990" d="M107 531q0 -263 131 -410q128 -149 358 -149q266 0 399 208q156 -208 459 -208q202 0 393 82v165q-185 -98 -384 -98q-174 0 -271 94t-108 275h804v86q0 235 -126 375q-127 139 -340 139q-136 0 -246 -53.5t-184 -154.5q-63 102 -163.5 155t-232.5 53q-230 0 -358 -149 q-131 -147 -131 -410zM292 531q0 190 81 299q82 111 223 111q140 0 221 -111q82 -111 82 -299q0 -190 -82 -299q-81 -111 -221 -111q-143 0 -225 109q-79 113 -79 301zM1090 626q12 150 100 232.5t234 82.5q128 0 208 -85q77 -83 80 -230h-622z" />
<glyph unicode="&#x154;" horiz-adv-x="1351" d="M191 0h192v599h209q115 0 178 -46q69 -48 138 -189l182 -364h206l-195 388q-119 237 -237 277q78 22 132.5 69.5t82.5 117t28 158.5q0 206 -120 307t-363 101h-433v-1418zM383 757v504h241q93 0 155.5 -28.5t93.5 -84.5t31 -138q0 -31 -4 -58.5t-13 -51t-22.5 -43.5 t-31 -35.5t-39.5 -28t-48 -20.5t-56.5 -12t-65.5 -4h-241zM494 1554h146l216 252h-175z" />
<glyph unicode="&#x155;" horiz-adv-x="798" d="M177 0h175v560q0 182 79 278t228 96q86 0 141 -33v179q-44 10 -89 10q-248 0 -359 -191v165h-175v-1064zM414 1205h146l309 358h-188z" />
<glyph unicode="&#x156;" horiz-adv-x="1351" d="M191 0h192v599h209q115 0 178 -46q69 -48 138 -189l182 -364h206l-195 388q-119 237 -237 277q78 22 132.5 69.5t82.5 117t28 158.5q0 206 -120 307t-363 101h-433v-1418zM383 757v504h241q93 0 155.5 -28.5t93.5 -84.5t31 -138q0 -31 -4 -58.5t-13 -51t-22.5 -43.5 t-31 -35.5t-39.5 -28t-48 -20.5t-56.5 -12t-65.5 -4h-241zM603 -420h123l156 305h-201z" />
<glyph unicode="&#x157;" horiz-adv-x="798" d="M124 -420h123l156 305h-201zM177 0h175v560q0 182 79 278t228 96q86 0 141 -33v179q-44 10 -89 10q-248 0 -359 -191v165h-175v-1064z" />
<glyph unicode="&#x158;" horiz-adv-x="1351" d="M191 0h192v599h209q115 0 178 -46q69 -48 138 -189l182 -364h206l-195 388q-119 237 -237 277q78 22 132.5 69.5t82.5 117t28 158.5q0 206 -120 307t-363 101h-433v-1418zM315 1792l201 -253h178l201 253h-132l-158 -169l-158 169h-132zM383 757v504h241 q93 0 155.5 -28.5t93.5 -84.5t31 -138q0 -31 -4 -58.5t-13 -51t-22.5 -43.5t-31 -35.5t-39.5 -28t-48 -20.5t-56.5 -12t-65.5 -4h-241z" />
<glyph unicode="&#x159;" horiz-adv-x="798" d="M177 0h175v560q0 182 79 278t228 96q86 0 141 -33v179q-44 10 -89 10q-248 0 -359 -191v165h-175v-1064zM209 1556l233 -357h140l233 357h-132l-171 -233l-171 233h-132z" />
<glyph unicode="&#x15a;" horiz-adv-x="1235" d="M128 1039q0 -162 96 -253q98 -91 311 -134l117 -23q144 -28 210 -88q64 -59 64 -164q0 -79 -40 -135t-116.5 -85t-186.5 -29q-214 0 -449 132v-197q243 -91 449 -91q267 0 405.5 106.5t138.5 312.5q0 117 -45.5 200.5t-138 138t-235.5 81.5l-116 24q-156 28 -215 78 q-56 47 -56 141q0 113 85.5 173.5t241.5 60.5q178 0 393 -103v187q-215 72 -415 72q-236 0 -366 -107q-132 -110 -132 -298zM494 1554h146l216 252h-175z" />
<glyph unicode="&#x15b;" horiz-adv-x="1013" d="M105 39q206 -67 374 -67q208 0 323 86q117 87 117 236q0 127 -78 202q-77 71 -265 113l-60 13q-144 34 -187 67q-47 32 -47 95q0 159 260 159q171 0 320 -76v166q-147 57 -340 57q-78 0 -142.5 -13.5t-114 -39.5t-83.5 -64t-51.5 -87.5t-17.5 -109.5q0 -83 31.5 -141 t98.5 -96.5t177 -61.5l61 -14q164 -36 210 -73q48 -38 48 -110q0 -78 -66.5 -119.5t-189.5 -41.5q-186 0 -378 100v-180zM414 1205h146l309 358h-188z" />
<glyph unicode="&#x15c;" horiz-adv-x="1235" d="M128 1039q0 -162 96 -253q98 -91 311 -134l117 -23q144 -28 210 -88q64 -59 64 -164q0 -79 -40 -135t-116.5 -85t-186.5 -29q-214 0 -449 132v-197q243 -91 449 -91q267 0 405.5 106.5t138.5 312.5q0 117 -45.5 200.5t-138 138t-235.5 81.5l-116 24q-156 28 -215 78 q-56 47 -56 141q0 113 85.5 173.5t241.5 60.5q178 0 393 -103v187q-215 72 -415 72q-236 0 -366 -107q-132 -110 -132 -298zM336 1552h133l157 169l158 -169h133l-201 254h-179z" />
<glyph unicode="&#x15d;" horiz-adv-x="1013" d="M105 39q206 -67 374 -67q208 0 323 86q117 87 117 236q0 127 -78 202q-77 71 -265 113l-60 13q-144 34 -187 67q-47 32 -47 95q0 159 260 159q171 0 320 -76v166q-147 57 -340 57q-78 0 -142.5 -13.5t-114 -39.5t-83.5 -64t-51.5 -87.5t-17.5 -109.5q0 -83 31.5 -141 t98.5 -96.5t177 -61.5l61 -14q164 -36 210 -73q48 -38 48 -110q0 -78 -66.5 -119.5t-189.5 -41.5q-186 0 -378 100v-180zM218 1199h133l171 233l171 -233h132l-233 357h-141z" />
<glyph unicode="&#x15e;" horiz-adv-x="1235" d="M128 1039q0 -162 96 -253q98 -91 311 -134l117 -23q144 -28 210 -88q64 -59 64 -164q0 -79 -40 -135t-116.5 -85t-186.5 -29q-214 0 -449 132v-197q243 -91 449 -91q267 0 405.5 106.5t138.5 312.5q0 117 -45.5 200.5t-138 138t-235.5 81.5l-116 24q-156 28 -215 78 q-56 47 -56 141q0 113 85.5 173.5t241.5 60.5q178 0 393 -103v187q-215 72 -415 72q-236 0 -366 -107q-132 -110 -132 -298zM408 -228v-124q82 -23 168 -23q226 0 226 171q0 86 -104 204h-113q84 -116 84 -169q0 -44 -29 -66.5t-84 -22.5q-88 0 -148 30z" />
<glyph unicode="&#x15f;" horiz-adv-x="1013" d="M105 39q206 -67 374 -67q208 0 323 86q117 87 117 236q0 127 -78 202q-77 71 -265 113l-60 13q-144 34 -187 67q-47 32 -47 95q0 159 260 159q171 0 320 -76v166q-147 57 -340 57q-78 0 -142.5 -13.5t-114 -39.5t-83.5 -64t-51.5 -87.5t-17.5 -109.5q0 -83 31.5 -141 t98.5 -96.5t177 -61.5l61 -14q164 -36 210 -73q48 -38 48 -110q0 -78 -66.5 -119.5t-189.5 -41.5q-186 0 -378 100v-180zM298 -228v-124q82 -23 168 -23q226 0 226 171q0 86 -104 204h-113q84 -116 84 -169q0 -44 -29 -66.5t-84 -22.5q-88 0 -148 30z" />
<glyph unicode="&#x160;" horiz-adv-x="1235" d="M128 1039q0 -162 96 -253q98 -91 311 -134l117 -23q144 -28 210 -88q64 -59 64 -164q0 -79 -40 -135t-116.5 -85t-186.5 -29q-214 0 -449 132v-197q243 -91 449 -91q267 0 405.5 106.5t138.5 312.5q0 117 -45.5 200.5t-138 138t-235.5 81.5l-116 24q-156 28 -215 78 q-56 47 -56 141q0 113 85.5 173.5t241.5 60.5q178 0 393 -103v187q-215 72 -415 72q-236 0 -366 -107q-132 -110 -132 -298zM329 1806l200 -254h179l200 254h-132l-158 -170l-157 170h-132z" />
<glyph unicode="&#x161;" horiz-adv-x="1013" d="M105 39q206 -67 374 -67q208 0 323 86q117 87 117 236q0 127 -78 202q-77 71 -265 113l-60 13q-144 34 -187 67q-47 32 -47 95q0 159 260 159q171 0 320 -76v166q-147 57 -340 57q-78 0 -142.5 -13.5t-114 -39.5t-83.5 -64t-51.5 -87.5t-17.5 -109.5q0 -83 31.5 -141 t98.5 -96.5t177 -61.5l61 -14q164 -36 210 -73q48 -38 48 -110q0 -78 -66.5 -119.5t-189.5 -41.5q-186 0 -378 100v-180zM205 1556l233 -357h141l232 357h-132l-171 -233l-171 233h-132z" />
<glyph unicode="&#x162;" horiz-adv-x="1188" d="M-6 1257h504v-1257h193v1257h503v161h-1200v-161zM352 -228v-124q82 -23 168 -23q225 0 225 171q0 88 -103 204h-113q84 -116 84 -169q0 -44 -29 -66.5t-84 -22.5q-88 0 -148 30z" />
<glyph unicode="&#x163;" horiz-adv-x="761" d="M52 928h128v-577q0 -202 76 -275q79 -76 281 -76h179v146h-179q-109 0 -146 37q-35 38 -35 168v577h360v136h-360v302h-176v-302h-128v-136zM247 -228v-124q81 -23 167 -23q226 0 226 171q0 86 -103 204h-113q84 -118 84 -169q0 -44 -28.5 -66.5t-84.5 -22.5 q-89 0 -148 30z" />
<glyph unicode="&#x164;" horiz-adv-x="1188" d="M-6 1257h504v-1257h193v1257h503v161h-1200v-161zM306 1792l199 -253h180l200 253h-132l-157 -169l-158 169h-132z" />
<glyph unicode="&#x165;" horiz-adv-x="761" d="M52 928h128v-577q0 -202 76 -275q79 -76 281 -76h179v146h-179q-109 0 -146 37q-35 38 -35 168v577h360v136h-360v302h-176v-302h-128v-136zM471 1226h146l111 358h-189z" />
<glyph unicode="&#x166;" horiz-adv-x="1188" d="M-6 1257h504v-546h-253v-162h253v-549h193v549h250v162h-250v546h503v161h-1200v-161z" />
<glyph unicode="&#x167;" horiz-adv-x="761" d="M52 572h128v-221q0 -199 76 -275q79 -76 281 -76h179v146h-179q-109 0 -146 37q-35 38 -35 168v221h181v134h-181v222h360v136h-360v302h-176v-302h-128v-136h128v-222h-128v-134z" />
<glyph unicode="&#x168;" horiz-adv-x="1424" d="M169 533q0 -277 137.5 -419t405.5 -142q179 0 300 63.5t182 188t61 309.5v885h-193v-861q0 -227 -84 -329q-81 -100 -266 -100t-266 100q-84 102 -84 329v861h-193v-885zM399 1584h119v5q0 28 8.5 48t25 31t38.5 11t64 -23l54 -32q56 -28 78 -33q22 -7 60 -7 q54 0 94 25.5t62 72.5t23 110h-119v-6q0 -39 -18.5 -63t-48.5 -24q-24 0 -69 22l-54 30q-43 24 -72.5 32.5t-65.5 8.5q-82 0 -130.5 -56t-48.5 -152z" />
<glyph unicode="&#x169;" horiz-adv-x="1233" d="M165 420q0 -220 95 -334t279 -114q218 0 343 191v-163h174v1064h-174v-603q0 -157 -82 -247q-84 -90 -224 -90q-236 0 -236 303v637h-175v-644zM297 1244h119q2 77 19 112t53 35q25 0 65 -37l54 -52q35 -32 65 -45t67 -13q87 0 135.5 70t49.5 197h-118q-2 -77 -19 -112 t-54 -35q-23 0 -63 37l-55 53q-24 21 -45 33.5t-42 18t-45 5.5q-87 0 -135.5 -70t-50.5 -197z" />
<glyph unicode="&#x16a;" horiz-adv-x="1424" d="M169 533q0 -277 137.5 -419t405.5 -142q179 0 300 63.5t182 188t61 309.5v885h-193v-861q0 -227 -84 -329q-81 -100 -266 -100t-266 100q-84 102 -84 329v861h-193v-885zM428 1609h569v140h-569v-140z" />
<glyph unicode="&#x16b;" horiz-adv-x="1233" d="M165 420q0 -220 95 -334t279 -114q218 0 343 191v-163h174v1064h-174v-603q0 -157 -82 -247q-84 -90 -224 -90q-236 0 -236 303v637h-175v-644zM327 1309h568v141h-568v-141z" />
<glyph unicode="&#x16c;" horiz-adv-x="1424" d="M169 533q0 -277 137.5 -419t405.5 -142q179 0 300 63.5t182 188t61 309.5v885h-193v-861q0 -227 -84 -329q-81 -100 -266 -100t-266 100q-84 102 -84 329v861h-193v-885zM414 1806q10 -114 85.5 -172t212.5 -58q136 0 212 58t86 172h-113q-28 -106 -185 -106 q-78 0 -125.5 27.5t-59.5 78.5h-113z" />
<glyph unicode="&#x16d;" horiz-adv-x="1233" d="M165 420q0 -220 95 -334t279 -114q218 0 343 191v-163h174v1064h-174v-603q0 -157 -82 -247q-84 -90 -224 -90q-236 0 -236 303v637h-175v-644zM314 1528q9 -136 84 -204.5t212.5 -68.5t212.5 68.5t85 204.5h-112q-23 -143 -185 -143q-165 0 -184 143h-113z" />
<glyph unicode="&#x16e;" horiz-adv-x="1424" d="M169 533q0 -277 137.5 -419t405.5 -142q179 0 300 63.5t182 188t61 309.5v885h-193v-861q0 -227 -84 -329q-81 -100 -266 -100t-266 100q-84 102 -84 329v861h-193v-885zM454 1758q0 -111 75 -186q76 -76 185.5 -76t185.5 76q75 75 75 186q0 109 -75 184 q-76 76 -185.5 76t-185.5 -76q-75 -75 -75 -184zM570 1758q0 59 41 100q40 43 103.5 43t103.5 -43q41 -41 41 -100.5t-41 -103.5q-41 -41 -103.5 -41t-103.5 41t-41 104z" />
<glyph unicode="&#x16f;" horiz-adv-x="1233" d="M165 420q0 -220 95 -334t279 -114q218 0 343 191v-163h174v1064h-174v-603q0 -157 -82 -247q-84 -90 -224 -90q-236 0 -236 303v637h-175v-644zM345 1392q0 -110 75 -186q76 -76 185 -76t185 76q75 76 75 186q0 109 -75 184q-76 76 -185 76t-185 -76q-75 -75 -75 -184z M461 1392q0 60 41 100q40 43 103.5 43t103.5 -43q41 -40 41 -100t-41 -104q-41 -41 -104 -41t-103.5 41t-40.5 104z" />
<glyph unicode="&#x170;" horiz-adv-x="1424" d="M169 533q0 -277 137.5 -419t405.5 -142q179 0 300 63.5t182 188t61 309.5v885h-193v-861q0 -227 -84 -329q-81 -100 -266 -100t-266 100q-84 102 -84 329v861h-193v-885zM444 1552h146l216 251h-175zM763 1552h145l217 251h-176z" />
<glyph unicode="&#x171;" horiz-adv-x="1233" d="M165 420q0 -220 95 -334t279 -114q218 0 343 191v-163h174v1064h-174v-603q0 -157 -82 -247q-84 -90 -224 -90q-236 0 -236 303v637h-175v-644zM395 1199h130l212 357h-161zM698 1199h128l236 357h-169z" />
<glyph unicode="&#x172;" horiz-adv-x="1424" d="M169 533q0 -277 137.5 -419t405.5 -142q179 0 300 63.5t182 188t61 309.5v885h-193v-861q0 -227 -84 -329q-81 -100 -266 -100t-266 100q-84 102 -84 329v861h-193v-885zM553 -219q0 -89 54 -130t171 -41q49 0 129 19v126q-58 -29 -119 -29q-103 0 -103 88q0 55 84 171 h-113q-103 -117 -103 -204z" />
<glyph unicode="&#x173;" horiz-adv-x="1233" d="M165 420q0 -220 95 -334t279 -114q218 0 343 191v-163h174v1064h-174v-603q0 -157 -82 -247q-84 -90 -224 -90q-236 0 -236 303v637h-175v-644zM839 -204q0 -89 54 -130t171 -41q48 0 129 19v126q-58 -28 -119 -28q-103 0 -103 87q0 55 83 171h-113q-102 -116 -102 -204z " />
<glyph unicode="&#x174;" horiz-adv-x="1923" d="M65 1418l355 -1418h241l302 1231l300 -1231h241l356 1418h-195l-297 -1199l-298 1199h-216l-297 -1199l-299 1199h-193zM674 1560h132l157 170l158 -170h132l-200 254h-179z" />
<glyph unicode="&#x175;" horiz-adv-x="1591" d="M82 1064l278 -1064h206l230 872l229 -872h206l279 1064h-175l-218 -830l-218 830h-206l-218 -830l-219 830h-174zM492 1205h132l172 232l171 -232h132l-234 358h-139z" />
<glyph unicode="&#x176;" horiz-adv-x="1188" d="M-4 1418l502 -743v-675h193v675l501 743h-206l-390 -583l-394 583h-206zM306 1560h132l158 170l157 -170h132l-200 254h-180z" />
<glyph unicode="&#x177;" horiz-adv-x="1151" d="M58 1064l430 -1047l-31 -80q-51 -131 -89 -161q-37 -34 -112 -34h-102v-147h140q119 0 189 58q68 60 143 248l467 1163h-185l-332 -832l-333 832h-185zM273 1205h132l171 232l171 -232h133l-234 358h-141z" />
<glyph unicode="&#x178;" horiz-adv-x="1188" d="M-4 1418l502 -743v-675h193v675l501 743h-206l-390 -583l-394 583h-206zM314 1584h191v192h-191v-192zM685 1584h193v192h-193v-192z" />
<glyph unicode="&#x179;" horiz-adv-x="1331" d="M87 0h1158v162h-918l897 1110v146h-1115v-161h875l-897 -1111v-146zM494 1554h146l216 252h-175z" />
<glyph unicode="&#x17a;" horiz-adv-x="1021" d="M84 0h854v140h-658l658 764v160h-831v-140h634l-657 -764v-160zM414 1205h146l309 358h-188z" />
<glyph unicode="&#x17b;" horiz-adv-x="1331" d="M87 0h1158v162h-918l897 1110v146h-1115v-161h875l-897 -1111v-146zM549 1567h194v193h-194v-193z" />
<glyph unicode="&#x17c;" horiz-adv-x="1021" d="M84 0h854v140h-658l658 764v160h-831v-140h634l-657 -764v-160zM390 1281h193v193h-193v-193z" />
<glyph unicode="&#x17d;" horiz-adv-x="1331" d="M87 0h1158v162h-918l897 1110v146h-1115v-161h875l-897 -1111v-146zM377 1806l201 -254h179l201 254h-133l-158 -170l-157 170h-133z" />
<glyph unicode="&#x17e;" horiz-adv-x="1021" d="M84 0h854v140h-658l658 764v160h-831v-140h634l-657 -764v-160zM209 1556l233 -357h140l233 357h-132l-171 -233l-171 233h-132z" />
<glyph unicode="&#x17f;" horiz-adv-x="684" d="M45 928h167v-928h176v1158q0 96 36 138q34 37 131 37h167v145h-165q-180 0 -262.5 -81t-82.5 -259v-74h-167v-136z" />
<glyph unicode="&#x186;" horiz-adv-x="1357" d="M109 109q201 -137 451 -137q320 0 508 197q185 200 185 539q0 340 -185 539q-188 197 -508 197q-251 0 -451 -135v-202q194 179 440 179q244 0 373 -148.5t129 -429.5q0 -280 -129 -429t-373 -149q-246 0 -440 180v-201z" />
<glyph unicode="&#x190;" horiz-adv-x="1236" d="M148 412q0 -210 144 -325q143 -115 410 -115q178 0 380 71v185q-161 -94 -374 -94q-120 0 -202.5 32t-125 94t-42.5 152q0 126 88.5 196.5t245.5 70.5h165v158h-174q-142 0 -217 56.5t-75 162.5q0 110 78 168t223 58q158 0 367 -70v171q-217 61 -385 61q-219 0 -344 -100 q-130 -100 -130 -268q0 -117 68.5 -198t193.5 -113q-137 -28 -216 -123q-78 -93 -78 -230z" />
<glyph unicode="&#x192;" horiz-adv-x="1236" d="M29 -206v-158q89 -41 195 -41q177 0 266 102q89 99 145 369l120 604h301v136h-272l57 295q23 125 77 183t146 58q83 0 154 -54v156q-84 34 -189 34q-95 0 -169.5 -41.5t-124.5 -121.5t-72 -196l-60 -313h-265v-136h236l-130 -651q-34 -164 -84 -221q-52 -67 -144 -67 q-84 0 -187 63z" />
<glyph unicode="&#x194;" horiz-adv-x="1331" d="M123 1286l441 -662q-284 -400 -284 -719q0 -31 4 -90q33 -223 418 -223q392 0 395 223v8q0 375 -308 794l453 669h-206l-355 -527l-352 527h-206zM479 -104q0 299 188 575q208 -282 211 -594v-1q0 -131 -195 -131q-201 0 -204 132v19z" />
<glyph unicode="&#x1c4;" horiz-adv-x="2766" d="M191 0h394q413 0 603 171q195 172 195 540q0 363 -193 536q-190 171 -605 171h-394v-1418zM383 158v1103h232q292 0 430 -132q136 -136 136 -418q0 -285 -136 -421q-138 -132 -430 -132h-232zM1471 0h1160v162h-921l897 1110v146h-1113v-161h873l-896 -1111v-146z M1760 1806l201 -254h179l201 254h-133l-157 -170l-158 170h-133z" />
<glyph unicode="&#x1c5;" horiz-adv-x="2527" d="M191 0h394q413 0 603 171q195 172 195 540q0 363 -193 536q-190 171 -605 171h-394v-1418zM383 158v1103h232q292 0 430 -132q136 -136 136 -418q0 -285 -136 -421q-138 -132 -430 -132h-232zM1502 0h854v140h-657l657 764v160h-830v-140h633l-657 -764v-160zM1626 1556 l234 -357h140l233 357h-132l-171 -233l-172 233h-132z" />
<glyph unicode="&#x1c6;" horiz-adv-x="2244" d="M107 531q0 -248 121 -405q121 -154 314 -154q235 0 342 188v-160h174v1478h-174v-576q-107 188 -342 188q-193 0 -314 -154q-121 -157 -121 -405zM288 531q0 190 78 302q80 110 219 110q141 0 219 -110q80 -110 80 -302q0 -190 -80 -303q-79 -109 -219 -109 q-137 0 -219 109q-78 115 -78 303zM1229 0h854v140h-657l657 764v160h-830v-140h635l-659 -764v-160zM1354 1556l233 -357h141l233 357h-132l-171 -233l-171 233h-133z" />
<glyph unicode="&#x1c7;" horiz-adv-x="1624" d="M191 0h883v162h-691v1256h-192v-1418zM1010 -228v-162h74q213 0 311 115q99 117 99 374v1319h-192v-1319q0 -185 -53 -257q-53 -70 -179 -70h-60z" />
<glyph unicode="&#x1c8;" horiz-adv-x="1530" d="M191 0h883v162h-691v1256h-192v-1418zM1033 -256v-149h66q172 0 249 91q78 90 78 295v1083h-175v-1083q0 -145 -35 -191q-38 -46 -136 -46h-47zM1251 1257h175v221h-175v-221z" />
<glyph unicode="&#x1c9;" horiz-adv-x="888" d="M183 0h175v1478h-175v-1478zM321 -256v-149h67q172 0 248 91q78 90 78 295v1083h-175v-1083q0 -145 -35 -191q-39 -46 -136 -46h-47zM539 1257h175v221h-175v-221z" />
<glyph unicode="&#x1ca;" horiz-adv-x="1810" d="M191 0h186v1187l629 -1187h258v1418h-186v-1186l-629 1186h-258v-1418zM1205 -228v-162h74q213 0 310 115q100 117 100 374v1319h-193v-1319q0 -185 -52 -257q-53 -70 -180 -70h-59z" />
<glyph unicode="&#x1cb;" horiz-adv-x="1797" d="M191 0h186v1187l629 -1187h258v1418h-186v-1186l-629 1186h-258v-1418zM1240 -256v-149h65q172 0 249 91q78 90 78 295v1083h-175v-1083q0 -145 -35 -191q-38 -46 -136 -46h-46zM1457 1257h175v221h-175v-221z" />
<glyph unicode="&#x1cc;" horiz-adv-x="1550" d="M177 0h175v601q0 157 82 247q84 90 223 90q236 0 236 -302v-636h175v642q0 147 -42 246.5t-125 150.5t-205 51q-219 0 -344 -191v165h-175v-1064zM1033 -256v-149h66q172 0 249 91q78 90 78 295v1083h-175v-1083q0 -145 -35 -191q-38 -46 -136 -46h-47zM1251 1257h175 v221h-175v-221z" />
<glyph unicode="&#x1cd;" horiz-adv-x="1330" d="M15 0h203l129 364h639l129 -364h200l-541 1418h-217zM377 1806l201 -254h179l201 254h-133l-158 -170l-157 170h-133zM405 523l260 706l261 -706h-521z" />
<glyph unicode="&#x1ce;" horiz-adv-x="1192" d="M117 310q0 -155 95 -245q98 -93 261 -93q87 0 155 21t120.5 62.5t92.5 106.5v-162h175v607q0 244 -114 363.5t-345 119.5q-166 0 -362 -74v-162q162 87 344 87q143 0 222.5 -65.5t79.5 -186.5v-17h-245q-238 0 -358.5 -91.5t-120.5 -270.5zM269 1556l233 -357h140 l233 357h-132l-171 -233l-171 233h-132zM292 321q0 115 81 165q79 49 294 49h174v-39q0 -171 -88 -275q-87 -102 -233 -102q-105 0 -166.5 54.5t-61.5 147.5z" />
<glyph unicode="&#x1cf;" horiz-adv-x="573" d="M-2 1806l201 -254h178l201 254h-132l-158 -170l-158 170h-132zM191 0h192v1418h-192v-1418z" />
<glyph unicode="&#x1d0;" horiz-adv-x="540" d="M-30 1556l232 -357h141l233 357h-132l-171 -233l-171 233h-132zM183 0h175v1064h-175v-1064z" />
<glyph unicode="&#x1d1;" horiz-adv-x="1530" d="M109 708q0 -336 179 -537q178 -199 479 -199q298 0 477 199q178 201 178 537q0 337 -178 536q-178 200 -477 200q-301 0 -479 -200q-179 -199 -179 -536zM312 708q0 269 122 424q126 156 333 156t330 -156q123 -155 123 -424t-123 -424q-123 -156 -330 -156t-333 156 q-122 155 -122 424zM477 1806l200 -254h179l200 254h-132l-157 -170l-158 170h-132z" />
<glyph unicode="&#x1d2;" horiz-adv-x="1190" d="M107 531q0 -263 131 -410q128 -149 358 -149t358 149q130 147 130 410t-130 410q-128 149 -358 149t-358 -149q-131 -147 -131 -410zM292 531q0 190 81 299q82 111 223 111q140 0 221 -111q82 -111 82 -299q0 -190 -82 -299q-81 -111 -221 -111q-143 0 -225 109 q-79 113 -79 301zM296 1556l233 -357h141l232 357h-132l-171 -233l-171 233h-132z" />
<glyph unicode="&#x1d3;" horiz-adv-x="1424" d="M169 533q0 -277 137.5 -419t405.5 -142q179 0 300 63.5t182 188t61 309.5v885h-193v-861q0 -227 -84 -329q-81 -100 -266 -100t-266 100q-84 102 -84 329v861h-193v-885zM430 1806l201 -254h178l201 254h-132l-158 -170l-158 170h-132z" />
<glyph unicode="&#x1d4;" horiz-adv-x="1233" d="M165 420q0 -220 95 -334t279 -114q218 0 343 191v-163h174v1064h-174v-603q0 -157 -82 -247q-84 -90 -224 -90q-236 0 -236 303v637h-175v-644zM296 1556l233 -357h141l232 357h-132l-171 -233l-171 233h-132z" />
<glyph unicode="&#x1d6;" horiz-adv-x="1233" d="M165 420q0 -220 95 -334t279 -114q218 0 343 191v-163h174v1064h-174v-603q0 -157 -82 -247q-84 -90 -224 -90q-236 0 -236 303v637h-175v-644zM319 1609h568v140h-568v-140zM321 1282h193v192h-193v-192zM693 1282h192v192h-192v-192z" />
<glyph unicode="&#x1df;" horiz-adv-x="1192" d="M117 310q0 -155 95 -245q98 -93 261 -93q87 0 155 21t120.5 62.5t92.5 106.5v-162h175v607q0 244 -114 363.5t-345 119.5q-166 0 -362 -74v-162q162 87 344 87q143 0 222.5 -65.5t79.5 -186.5v-17h-245q-238 0 -358.5 -91.5t-120.5 -270.5zM280 1609h568v140h-568v-140z M282 1282h193v192h-193v-192zM292 321q0 115 81 165q79 49 294 49h174v-39q0 -171 -88 -275q-87 -102 -233 -102q-105 0 -166.5 54.5t-61.5 147.5zM654 1282h192v192h-192v-192z" />
<glyph unicode="&#x1e2;" horiz-adv-x="1894" d="M8 0h194l152 364h502v-364h915v162h-722v513h675v162h-675v420h704v161h-1152zM420 523l313 745h123v-745h-436zM893 1611h568v140h-568v-140z" />
<glyph unicode="&#x1e3;" horiz-adv-x="1910" d="M117 310q0 -161 99 -250q103 -88 280 -88q271 0 410 228q146 -228 468 -228q202 0 393 82v165q-186 -100 -384 -100q-174 0 -270.5 94.5t-108.5 276.5h804v86q0 236 -125 375q-127 139 -341 139q-255 0 -397 -175q-34 55 -91 94.5t-132.5 60t-164.5 20.5q-166 0 -362 -74 v-162q162 87 344 87q143 0 222.5 -65.5t79.5 -186.5v-17h-245q-238 0 -358.5 -91.5t-120.5 -270.5zM292 321q0 115 81 165q79 49 294 49h174v-39q0 -171 -88 -275q-87 -102 -233 -102q-105 0 -166.5 54.5t-61.5 147.5zM665 1305h568v141h-568v-141zM1010 626 q13 150 100.5 232.5t233.5 82.5q129 0 208 -85q77 -83 80 -230h-622z" />
<glyph unicode="&#x1ea;" horiz-adv-x="1530" d="M109 708q0 -336 179 -537q178 -199 479 -199q298 0 477 199q178 201 178 537q0 337 -178 536q-178 200 -477 200q-301 0 -479 -200q-179 -199 -179 -536zM312 708q0 269 122 424q126 156 333 156t330 -156q123 -155 123 -424t-123 -424q-123 -156 -330 -156t-333 156 q-122 155 -122 424zM607 -219q0 -60 24 -98t74 -56t128 -18q44 0 128 20v126q-60 -30 -118 -30q-104 0 -104 88q0 56 84 172h-112q-104 -118 -104 -204z" />
<glyph unicode="&#x1eb;" horiz-adv-x="1190" d="M107 531q0 -263 131 -410q128 -149 358 -149t358 149q130 147 130 410t-130 410q-128 149 -358 149t-358 -149q-131 -147 -131 -410zM292 531q0 190 81 299q82 111 223 111q140 0 221 -111q82 -111 82 -299q0 -190 -82 -299q-81 -111 -221 -111q-143 0 -225 109 q-79 113 -79 301zM436 -219q0 -90 54 -131t171 -41q44 0 128 20v126q-60 -30 -117 -30q-104 0 -104 88q0 56 84 172h-113q-103 -117 -103 -204z" />
<glyph unicode="&#x1ec;" horiz-adv-x="1530" d="M109 708q0 -336 179 -537q160 -177 414 -197q-95 -109 -95 -193q0 -88 55.5 -130t170.5 -42q46 0 130 20v126q-60 -30 -118 -30q-106 0 -106 88q0 52 76 161q266 15 429 197q178 201 178 537q0 337 -178 536q-178 200 -477 200q-301 0 -479 -200q-179 -199 -179 -536z M312 708q0 269 122 424q126 156 333 156t330 -156q123 -155 123 -424t-123 -424q-123 -156 -330 -156t-333 156q-122 155 -122 424zM483 1609h568v140h-568v-140z" />
<glyph unicode="&#x1ed;" horiz-adv-x="1190" d="M107 531q0 -263 131 -410q113 -128 293 -145q-93 -109 -93 -195q0 -59 23.5 -97t73 -56.5t126.5 -18.5q47 0 131 20v126q-60 -30 -118 -30q-52 0 -79 23t-27 65q0 52 76 161q195 15 310 147q130 147 130 410t-130 410q-128 149 -358 149t-358 -149q-131 -147 -131 -410z M292 531q0 190 81 299q82 111 223 111q140 0 221 -111q82 -111 82 -299q0 -190 -82 -299q-81 -111 -221 -111q-143 0 -225 109q-79 113 -79 301zM312 1307h568v143h-568v-143z" />
<glyph unicode="&#x218;" horiz-adv-x="1235" d="M128 1039q0 -162 96 -253q98 -91 311 -134l117 -23q144 -28 210 -88q64 -59 64 -164q0 -79 -40 -135t-116.5 -85t-186.5 -29q-214 0 -449 132v-197q243 -91 449 -91q267 0 405.5 106.5t138.5 312.5q0 117 -45.5 200.5t-138 138t-235.5 81.5l-116 24q-156 28 -215 78 q-56 47 -56 141q0 113 85.5 173.5t241.5 60.5q178 0 393 -103v187q-215 72 -415 72q-236 0 -366 -107q-132 -110 -132 -298zM457 -430h123l155 306h-200z" />
<glyph unicode="&#x219;" horiz-adv-x="1013" d="M105 39q206 -67 374 -67q208 0 323 86q117 87 117 236q0 127 -78 202q-77 71 -265 113l-60 13q-144 34 -187 67q-47 32 -47 95q0 159 260 159q171 0 320 -76v166q-147 57 -340 57q-78 0 -142.5 -13.5t-114 -39.5t-83.5 -64t-51.5 -87.5t-17.5 -109.5q0 -83 31.5 -141 t98.5 -96.5t177 -61.5l61 -14q164 -36 210 -73q48 -38 48 -110q0 -78 -66.5 -119.5t-189.5 -41.5q-186 0 -378 100v-180zM386 -430h122l155 306h-200z" />
<glyph unicode="&#x21a;" horiz-adv-x="1188" d="M-6 1257h504v-1257h193v1257h503v161h-1200v-161zM424 -430h122l156 306h-200z" />
<glyph unicode="&#x21b;" horiz-adv-x="761" d="M52 928h128v-577q0 -202 76 -275q79 -76 281 -76h179v146h-179q-109 0 -146 37q-35 38 -35 168v577h360v136h-360v302h-176v-302h-128v-136zM344 -430h123l155 306h-200z" />
<glyph unicode="&#x22b;" horiz-adv-x="1190" d="M107 531q0 -263 131 -410q128 -149 358 -149t358 149q130 147 130 410t-130 410q-128 149 -358 149t-358 -149q-131 -147 -131 -410zM292 531q0 190 81 299q82 111 223 111q140 0 221 -111q82 -111 82 -299q0 -190 -82 -299q-81 -111 -221 -111q-143 0 -225 109 q-79 113 -79 301zM312 1609h568v140h-568v-140zM314 1282h191v192h-191v-192zM685 1282h193v192h-193v-192z" />
<glyph unicode="&#x22d;" horiz-adv-x="1190" d="M107 531q0 -263 131 -410q128 -149 358 -149t358 149q130 147 130 410t-130 410q-128 149 -358 149t-358 -149q-131 -147 -131 -410zM282 1244h119q3 78 19.5 112.5t52.5 34.5q24 0 64 -37l55 -52q17 -17 33 -28t32 -17.5t32 -9.5t35 -3q86 0 134.5 69.5t49.5 197.5h-119 q0 -39 -4.5 -66.5t-13 -45.5t-22 -26.5t-31.5 -8.5q-25 0 -64 37l-55 53q-34 31 -64.5 44t-67.5 13q-86 0 -134.5 -70t-50.5 -197zM292 531q0 190 81 299q82 111 223 111q140 0 221 -111q82 -111 82 -299q0 -190 -82 -299q-81 -111 -221 -111q-143 0 -225 109 q-79 113 -79 301zM312 1609h568v140h-568v-140z" />
<glyph unicode="&#x22e;" horiz-adv-x="1530" d="M109 708q0 -336 179 -537q178 -199 479 -199q298 0 477 199q178 201 178 537q0 337 -178 536q-178 200 -477 200q-301 0 -479 -200q-179 -199 -179 -536zM312 708q0 269 122 424q126 156 333 156t330 -156q123 -155 123 -424t-123 -424q-123 -156 -330 -156t-333 156 q-122 155 -122 424zM670 1584h194v194h-194v-194z" />
<glyph unicode="&#x22f;" horiz-adv-x="1190" d="M107 531q0 -263 131 -410q128 -149 358 -149t358 149q130 147 130 410t-130 410q-128 149 -358 149t-358 -149q-131 -147 -131 -410zM292 531q0 190 81 299q82 111 223 111q140 0 221 -111q82 -111 82 -299q0 -190 -82 -299q-81 -111 -221 -111q-143 0 -225 109 q-79 113 -79 301zM498 1281h195v193h-195v-193z" />
<glyph unicode="&#x231;" horiz-adv-x="1190" d="M107 531q0 -263 131 -410q128 -149 358 -149t358 149q130 147 130 410t-130 410q-128 149 -358 149t-358 -149q-131 -147 -131 -410zM292 531q0 190 81 299q82 111 223 111q140 0 221 -111q82 -111 82 -299q0 -190 -82 -299q-81 -111 -221 -111q-143 0 -225 109 q-79 113 -79 301zM312 1609h568v140h-568v-140zM498 1281h195v193h-195v-193z" />
<glyph unicode="&#x232;" horiz-adv-x="1188" d="M-4 1418l502 -743v-675h193v675l501 743h-206l-390 -583l-394 583h-206zM312 1609h568v140h-568v-140z" />
<glyph unicode="&#x233;" horiz-adv-x="1151" d="M58 1064l430 -1047l-31 -80q-51 -131 -89 -161q-37 -34 -112 -34h-102v-147h140q119 0 189 58q68 60 143 248l467 1163h-185l-332 -832l-333 832h-185zM292 1309h568v141h-568v-141z" />
<glyph unicode="&#x237;" horiz-adv-x="540" d="M-35 -256v-149h66q173 0 249 91q78 90 78 295v1083h-175v-1083q0 -145 -35 -191q-38 -46 -137 -46h-46z" />
<glyph unicode="&#x250;" horiz-adv-x="1192" d="M117 455q0 -243 114 -363t345 -120q81 0 175 18q87 17 187 57v161q-162 -87 -344 -87q-144 0 -224 66q-78 69 -78 186v18h245q242 0 358 92q121 90 121 270q0 150 -95 245q-102 92 -262 92q-131 0 -217 -47q-92 -45 -150 -142v161h-175v-607zM292 527v39q0 169 87 275 q87 102 234 102q105 0 165 -54q63 -57 63 -148q0 -118 -82 -165q-79 -49 -294 -49h-173z" />
<glyph unicode="&#x251;" horiz-adv-x="1235" d="M107 531q0 -248 121 -405q121 -154 314 -154q120 0 203 47q83 44 139 141v-160h174v1064h-174v-162q-56 97 -139 141q-83 47 -203 47q-193 0 -314 -154q-121 -157 -121 -405zM288 531q0 189 78 304q81 108 219 108q140 0 219 -108q80 -113 80 -304q0 -190 -80 -303 q-79 -109 -219 -109q-137 0 -219 109q-78 115 -78 303z" />
<glyph unicode="&#x252;" horiz-adv-x="1235" d="M107 -2h175v162q55 -97 140 -141q83 -47 200 -47q195 0 314 154q122 156 122 405t-122 405q-119 154 -314 154q-117 0 -200 -47q-85 -44 -140 -141v160h-175v-1064zM282 531q0 191 80 304q78 108 218 108t218 -108q80 -113 80 -304q0 -190 -80 -303q-79 -109 -218 -109 t-218 109q-80 113 -80 303z" />
<glyph unicode="&#x253;" horiz-adv-x="1235" d="M177 0h175v160q56 -97 140 -141q83 -47 201 -47q194 0 315 154q121 157 121 405t-121 405q-121 154 -315 154q-118 0 -201 -47q-84 -44 -140 -141v191q0 142 36 191q32 47 135 47h222v147h-241q-173 0 -249 -91q-78 -89 -78 -294v-1093zM352 531q0 191 80 304 q79 108 218 108t217 -108q80 -113 80 -304q0 -190 -80 -303q-79 -109 -217.5 -109t-217.5 109q-80 113 -80 303z" />
<glyph unicode="&#x254;" horiz-adv-x="1069" d="M107 41q75 -37 151 -51q83 -18 169 -18q239 0 381 151q141 153 141 408q0 259 -143 409q-142 150 -392 150q-72 0 -158 -16q-72 -16 -149 -51v-163q72 39 149 62q81 19 151 19q167 0 265 -106q93 -107 93 -304q0 -196 -93 -303q-99 -107 -265 -107q-81 0 -151 19 q-77 23 -149 62v-161z" />
<glyph unicode="&#x255;" horiz-adv-x="1069" d="M107 531q0 -251 142 -408q42 -45 100 -82q-13 -85 -13 -177l147 2q0 49 3 119q80 -16 147 -16q316 0 316 177v2q-3 233 -286 233q-185 0 -264 -167q-2 2 -5 5.5t-5 5.5l-3 3q-94 108 -94 303q0 196 94 304q95 106 264 106q69 0 150 -19q80 -23 149 -62v163 q-68 32 -149 51q-89 16 -158 16q-250 0 -391 -150q-144 -150 -144 -409zM522 138q46 107 141 107q125 0 125 -70q0 -54 -138 -54q-73 0 -128 17z" />
<glyph unicode="&#x256;" horiz-adv-x="1235" d="M107 531q0 -248 121 -405q121 -154 314 -154q120 0 203 47q83 44 139 141v-179q0 -205 77 -295q80 -91 249 -91h66v149h-47q-97 0 -136 46q-35 46 -35 191v1497h-174v-576q-56 97 -139 141q-83 47 -203 47q-193 0 -314 -154q-121 -157 -121 -405zM288 531q0 189 78 304 q81 108 219 108q140 0 219 -108q80 -113 80 -304q0 -190 -80 -303q-79 -109 -219 -109q-137 0 -219 109q-78 115 -78 303z" />
<glyph unicode="&#x257;" horiz-adv-x="1413" d="M107 531q0 -248 121 -405q121 -154 314 -154q120 0 203 47q83 44 139 141v-160h174v1093q0 142 35 191q36 47 136 47h223v147h-242q-169 0 -249 -91q-77 -89 -77 -294v-191q-56 97 -139 141q-83 47 -203 47q-193 0 -314 -154q-121 -157 -121 -405zM288 531q0 189 78 304 q81 108 219 108q140 0 219 -108q80 -113 80 -304q0 -190 -80 -303q-79 -109 -219 -109q-137 0 -219 109q-78 115 -78 303z" />
<glyph unicode="&#x258;" horiz-adv-x="1196" d="M107 490h803q-11 -182 -108 -276q-96 -93 -271 -93q-101 0 -195 25q-90 22 -188 73v-165q191 -82 393 -82q257 0 402 149q150 147 150 401q0 263 -142 414q-138 154 -379 154q-216 0 -340 -139q-125 -139 -125 -375v-86zM282 626q3 145 82 230q77 85 206 85 q147 0 234 -83q89 -84 100 -232h-622z" />
<glyph unicode="&#x259;" horiz-adv-x="1196" d="M107 486q0 -236 125 -375q124 -139 340 -139q238 0 379 152q142 156 142 417q0 253 -150 400q-145 149 -402 149q-195 0 -393 -82v-165q101 53 188 74q102 24 195 24q175 0 271 -93q97 -94 108 -276h-803v-86zM282 436h622q-11 -147 -100 -234q-88 -81 -234 -81 q-129 0 -206 85q-79 85 -82 230z" />
<glyph unicode="&#x25a;" horiz-adv-x="1546" d="M119 356q25 -147 113 -245q124 -139 340 -139q238 0 379 152q142 156 142 417q0 109 -29 202l133 78q0 -191 77 -277q85 -91 250 -91h60v150h-41q-100 0 -134 45q-37 45 -37 193v139h-175l-193 -111q-28 42 -61 72q-145 149 -402 149q-105 0 -201 -22q-105 -22 -192 -60 v-165q101 53 188 74q90 22 195 24h6q196 0 265 -93q26 -35 44 -72zM303 306l588 338q8 -66 8 -100v-13v-6q0 -194 -95 -323q-73 -81 -234 -81q-129 0 -206 85q-32 32 -61 100z" />
<glyph unicode="&#x25b;" horiz-adv-x="1051" d="M126 310q0 -165 123 -252q120 -86 349 -86q76 0 157 15q66 9 166 39v163q-56 -32 -151 -55q-69 -15 -167 -15q-145 0 -226 52q-80 54 -80 139q0 82 74 136q68 48 199 48h142v146h-148q-109 0 -173 41q-66 46 -66 108q0 61 68 106q62 43 177 43q68 0 146 -12 q55 -8 168 -39v158q-185 47 -327 47q-186 0 -295 -76q-106 -72 -106 -208q0 -92 56 -151q55 -60 163 -83q-118 -24 -183.5 -93t-65.5 -171z" />
<glyph unicode="&#x25c;" horiz-adv-x="1060" d="M107 33q192 -55 344 -55q240 0 374 88q133 84 133 246q0 102 -71 172q-71 72 -196 92q115 26 174 85q63 63 63 150q0 130 -117 203q-117 76 -315 76q-77 0 -164 -12q-57 -7 -186 -33v-160q89 23 181 39q67 10 154 10q137 0 202 -41q70 -42 70 -111q0 -55 -68 -97 q-65 -43 -199 -43h-155v-137h150q143 0 221 -52q82 -53 82 -128q0 -94 -88 -145q-85 -50 -249 -50q-88 0 -180 18q-93 18 -160 49v-164z" />
<glyph unicode="&#x25d;" horiz-adv-x="1487" d="M107 33q93 -29 177 -41q109 -14 167 -14q240 0 374 88q133 84 133 246q0 102 -71 172q-71 72 -196 92q115 26 174 85l7 6l266 154q0 -190 78 -277q83 -91 249 -91h61v150h-41q-100 0 -137 45q-35 46 -35 193v139h-175l-214 -124q-17 97 -113 158q-117 76 -315 76 q-77 0 -164 -12q-57 -7 -186 -33v-160q89 23 181 39q67 10 154 10q137 0 202 -41q70 -42 70 -111q0 -55 -68 -97q-65 -43 -199 -43h-155v-137h150q143 0 221 -52q82 -53 82 -128q0 -94 -88 -145q-85 -50 -249 -50q-88 0 -180 18q-93 18 -160 49v-164z" />
<glyph unicode="&#x25e;" horiz-adv-x="1326" d="M107 527q0 -326 348 -510q107 -58 288 -58h8q217 0 346 84q127 82 127 222q0 98 -67 165.5t-192 94.5q125 25 192 92t67 165q0 142 -127 224q-126 82 -346 82q-184 0 -296 -43q-348 -140 -348 -518zM303 537q1 200 108.5 298.5t321.5 98.5q151 0 221 -50q79 -57 79 -131 q0 -76 -73 -127q-39 -27 -219 -27h-173v-150h173q176 0 219 -29q73 -48 73 -125q0 -72 -79 -132q-71 -50 -221 -50q-430 3 -430 424z" />
<glyph unicode="&#x25f;" horiz-adv-x="705" d="M-35 -256v-149h66q172 0 251 91q76 91 76 295v19h167v136h-167v928h-175v-928h-172v-136h172v-19q0 -145 -35 -191q-38 -46 -137 -46h-46z" />
<glyph unicode="&#x260;" horiz-adv-x="1238" d="M107 544q0 -245 121 -394q119 -150 314 -150q233 0 342 187v-86q0 -181 -86 -272q-84 -89 -257 -89q-154 0 -305 81v-170q73 -27 159 -42q73 -14 173 -14q246 0 370 132q120 135 120 405v961q0 145 35 191q39 47 136 47h47v147h-66q-169 0 -249 -91q-77 -89 -77 -294v-29 h-342q-194 0 -314 -149q-121 -150 -121 -371zM288 544q0 189 78 295q77 104 219 104h299v-399q0 -188 -78 -293t-221 -105q-142 0 -219 105q-78 109 -78 293z" />
<glyph unicode="&#x261;" horiz-adv-x="1235" d="M107 544q0 -245 121 -394q119 -150 314 -150q233 0 342 187v-86q0 -181 -86 -272q-84 -89 -257 -89q-154 0 -305 81v-170q73 -27 159 -42q73 -14 173 -14q246 0 370 132q120 135 120 405v932h-516q-194 0 -314 -149q-121 -150 -121 -371zM288 544q0 189 78 295 q77 104 219 104h299v-399q0 -188 -78 -293t-221 -105q-142 0 -219 105q-78 109 -78 293z" />
<glyph unicode="&#x262;" horiz-adv-x="1223" d="M107 559q0 -257 142 -407q140 -152 382 -152q193 0 266 17q77 16 152 51v502h-306v-132h148v-269q-79 -21 -241 -21q-170 0 -264 108q-94 106 -94 303q0 195 94 301q95 109 264 109q72 0 150 -22q95 -20 219 -97v164q-126 72 -219 85q-105 18 -158 18q-249 0 -391 -148 q-144 -152 -144 -410z" />
<glyph unicode="&#x263;" horiz-adv-x="1331" d="M197 1064l375 -513q-273 -412 -273 -731v-5q3 -223 390 -223h13q366 5 366 223q0 304 -268 727l373 522h-206l-278 -379l-286 379h-206zM479 -117q0 259 206 547q193 -320 193 -551v-2q-3 -132 -195 -132q-204 0 -204 132v6z" />
<glyph unicode="&#x264;" horiz-adv-x="1151" d="M91 1064l378 -507q-175 -229 -175 -397q0 -160 287 -160q271 0 271 158v2q0 156 -169 386l385 518h-206l-282 -379l-283 379h-206zM459 212q0 59 113 206q113 -144 113 -206q0 -99 -109 -99q-117 0 -117 99z" />
<glyph unicode="&#x265;" horiz-adv-x="1233" d="M165 420q0 -220 95 -334t279 -114q111 0 194 47q84 47 149 144v-568h174v1469h-174v-603q0 -157 -82 -247q-84 -90 -224 -90q-118 0 -177 76q-59 74 -59 227v637h-175v-644z" />
<glyph unicode="&#x266;" horiz-adv-x="1233" d="M177 0h175v601q0 157 82 247q84 90 223 90q236 0 236 -302v-636h175v642q0 223 -95 335q-93 113 -277 113q-113 0 -196 -47q-82 -46 -148 -144v194q0 145 35.5 191.5t135.5 46.5h222v147h-241q-173 0 -249 -91q-78 -89 -78 -294v-1093z" />
<glyph unicode="&#x267;" horiz-adv-x="1233" d="M177 0h175v601q0 157 82 247q84 90 223 90q119 0 178 -76q58 -75 58 -226v-655q0 -146 -37 -191q-35 -46 -134 -46h-222v-149h241q169 0 249 91q78 90 78 295v661q0 223 -95 335q-93 113 -277 113q-113 0 -196 -47q-82 -46 -148 -144v194q0 145 35.5 191.5t135.5 46.5 h222v147h-241q-173 0 -249 -91q-78 -89 -78 -294v-1093z" />
<glyph unicode="&#x268;" horiz-adv-x="722" d="M111 430h171v-430h173v430h156v155h-156v479h-173v-479h-171v-155zM282 1257h173v221h-173v-221z" />
<glyph unicode="&#x269;" horiz-adv-x="752" d="M183 386q0 -207 77 -295q80 -91 250 -91h66v148h-47q-99 0 -134 47q-37 45 -37 191v678h-175v-678z" />
<glyph unicode="&#x26a;" horiz-adv-x="722" d="M111 0h500v156h-160v752h160v156h-500v-156h167v-752h-167v-156z" />
<glyph unicode="&#x26b;" horiz-adv-x="947" d="M167 599h119q0 72 20 113q16 35 52 35q11 0 30 -10q1 -2 9 -5v-732h175v603q23 -4 37 -4q87 0 134 71q51 72 51 197h-119q0 -70 -19 -112q-15 -35 -53 -35q-10 0 -29 10h-2v748h-175v-616q-20 5 -45 5q-88 0 -134 -69q-51 -70 -51 -199z" />
<glyph unicode="&#x26c;" horiz-adv-x="947" d="M74 772q0 -176 264 -176h59v-30v-566h175v596h237v151h-237v731h-175v-494q-43 24 -89 24q-234 0 -234 -234v-2zM234 802q3 70 74 70q53 0 73 -125h-60q-87 0 -87 55z" />
<glyph unicode="&#x26d;" horiz-adv-x="540" d="M183 -19q0 -206 77 -295q80 -91 250 -91h66v149h-47q-99 0 -134 46q-37 45 -37 191v1497h-175v-1497z" />
<glyph unicode="&#x26e;" horiz-adv-x="1372" d="M183 0h175v924h628l-408 -475v-157h165q160 0 245 -71q88 -71 88 -195q0 -137 -96 -206q-93 -73 -274 -73q-101 0 -198 23q-102 28 -176 70v-184q109 -38 197 -53q94 -17 183 -17q267 0 411 115q143 117 143 325q0 131 -76 229q-78 102 -174 144q-122 52 -222 52l389 453 v160h-825v414h-175v-1478z" />
<glyph unicode="&#x26f;" horiz-adv-x="1894" d="M177 424q0 -215 90.5 -332.5t255.5 -117.5q124 0 214 59q90 54 158 171q37 -108 119 -169q84 -61 198 -61q110 0 199 50q81 43 143 143v-165h176v1064h-176v-603q0 -150 -80 -245q-79 -92 -211 -92q-114 0 -168 74.5t-54 229.5v636h-176v-603q0 -154 -79 -245 q-80 -92 -214 -92q-111 0 -165.5 75t-54.5 229v636h-175v-642z" />
<glyph unicode="&#x270;" horiz-adv-x="1894" d="M177 422q0 -213 90 -331q90 -117 256 -117q124 0 215 56.5t157 173.5q37 -108 119 -169q84 -61 198 -61q115 0 198.5 47t143.5 144v-570h176v1469h-176v-601q0 -154 -80 -245q-79 -92 -211 -92q-112 0 -168 76q-54 68 -54 226v636h-176v-601q0 -154 -79 -245 q-80 -92 -214 -92q-111 0 -165.5 74.5t-54.5 227.5v636h-175v-642z" />
<glyph unicode="&#x271;" horiz-adv-x="1894" d="M177 0h175v601q0 152 80 247q81 90 212 90q111 0 167 -74q54 -71 54 -228v-636h176v601q0 156 80 247q81 90 214 90q108 0 165 -74q54 -74 54 -228v-181v-315v-159q0 -145 -35 -191t-136 -46h-221v-149h241q172 0 249 91q78 90 78 295v661q0 213 -90 331 q-90 117 -257 117q-121 0 -214 -57q-93 -55 -157 -173q-38 112 -120 171t-198 59q-115 0 -198.5 -47t-143.5 -144v165h-175v-1064z" />
<glyph unicode="&#x272;" horiz-adv-x="1256" d="M-35 -256v-149h66q172 0 251 91q76 91 76 295l2 620q0 157 82 247q80 90 221 90q236 0 236 -302v-636h175v642q0 222 -94 335q-93 113 -278 113q-111 0 -194 -47q-86 -47 -148 -144v165h-177v-1083q0 -145 -35 -191q-38 -46 -137 -46h-46z" />
<glyph unicode="&#x273;" horiz-adv-x="1248" d="M177 0h175v601q0 157 82 247q84 90 223 90q119 0 178 -76q58 -75 58 -226v-655q0 -205 78 -295q77 -91 249 -91h66v149h-46q-99 0 -137 46q-35 46 -35 191v661q0 223 -95 335q-93 113 -277 113q-113 0 -196 -47q-82 -46 -148 -144v165h-175v-1064z" />
<glyph unicode="&#x274;" horiz-adv-x="1233" d="M169 0h187v858l453 -858h259v1090h-186v-858l-454 858h-259v-1090z" />
<glyph unicode="&#x275;" horiz-adv-x="1190" d="M107 531q0 -260 131 -410q131 -149 358 -149q230 0 358 149q130 147 130 410t-130 410q-128 149 -358 149q-227 0 -358 -149q-131 -150 -131 -410zM294 580q8 158 79 253q82 108 223 108q140 0 221 -111q72 -99 80 -250h-603zM299 424h592q-17 -114 -74 -192 q-81 -111 -221 -111q-143 0 -225 109q-58 83 -72 194z" />
<glyph unicode="&#x276;" horiz-adv-x="1669" d="M107 533q0 -261 160 -399q158 -134 466 -134h761v148h-543v346h508v148h-508v277h530v145h-748q-306 0 -466 -136q-160 -135 -160 -395zM284 531q0 206 113 308q112 101 342 101h35v-821h-35q-228 0 -342 102q-113 102 -113 310z" />
<glyph unicode="&#x277;" horiz-adv-x="1415" d="M146 405q0 -182 84 -306q81 -128 221 -128q98 0 165.5 68t94.5 193q17 -83 53.5 -142t89 -89t117.5 -30q137 0 221 128q82 126 82 347q0 90 -13 178q-4 4 -39 117q-115 349 -511 349h-5q-421 0 -511 -349q-8 -29 -35 -117q-8 -145 -14 -178v-41zM299 461v22q0 58 20 148 q3 21 58 110q95 152 323 152q240 0 343 -152q55 -86 58 -110q18 -123 20 -170q-17 -173 -51 -218q-62 -81 -132 -81q-72 0 -125 76q-29 42 -29 215v173h-148v-173q0 -173 -29 -215q-53 -76 -124 -76q-75 0 -131 81q-44 62 -53 218z" />
<glyph unicode="&#x278;" horiz-adv-x="1190" d="M107 531q0 -260 131 -410q102 -117 267 -143v-225h-227v-158h630v158h-227v225q170 23 273 143q130 147 130 410t-130 410q-103 120 -273 143v237h227v155h-630v-155h227v-237q-165 -25 -267 -143q-131 -150 -131 -410zM292 531q0 190 81 302q55 73 132 95v-794 q-78 22 -134 96q-79 113 -79 301zM681 132v798q80 -23 136 -100q82 -111 82 -299q0 -190 -82 -299q-56 -77 -136 -100z" />
<glyph unicode="&#x279;" horiz-adv-x="912" d="M107 163l2 -178q26 -6 49 -9q13 -2 39 -2q126 0 213 48q89 46 145 143v-165h175v1064h-175v-560q0 -179 -80 -278q-78 -96 -228 -96q-44 0 -76 8q-35 8 -64 25z" />
<glyph unicode="&#x27a;" horiz-adv-x="912" d="M107 163l2 -178q26 -6 49 -9q13 -2 39 -2q126 0 213 48q89 46 145 143v-165h175v1469h-175v-965q0 -176 -80 -278q-75 -96 -228 -96q-44 0 -76 8q-35 8 -64 25z" />
<glyph unicode="&#x27b;" horiz-adv-x="912" d="M107 163l2 -178q26 -6 49 -9q13 -2 39 -2q126 0 213 48q89 46 145 143l2 -184q0 -205 78 -295q76 -91 249 -91h65v149h-47q-100 0 -135 46q-37 49 -37 191v1083h-175v-560q0 -179 -80 -278q-78 -96 -228 -96q-44 0 -76 8q-35 8 -64 25z" />
<glyph unicode="&#x27c;" horiz-adv-x="912" d="M107 -405h177v965q0 181 80 279q76 95 226 95q45 0 77 -8q35 -9 63 -25v179q-9 2 -49 8q-13 2 -39 2q-127 0 -215 -47q-87 -47 -143 -144v165h-177v-1469z" />
<glyph unicode="&#x27d;" horiz-adv-x="912" d="M107 -19q0 -205 78 -295q77 -91 249 -91h241v149h-222q-100 0 -135.5 46t-35.5 191v19h2v560q0 184 80 279q76 95 226 95q45 0 77 -8q35 -9 63 -25v179q-9 2 -49 8q-13 2 -39 2q-127 0 -215 -47q-87 -47 -143 -144v165h-177v-1083z" />
<glyph unicode="&#x27e;" horiz-adv-x="855" d="M107 0h175v560v144v10q0 137 35 181q36 46 136 46h222v149h-241q-172 0 -249 -92q-78 -93 -78 -294v-704z" />
<glyph unicode="&#x27f;" horiz-adv-x="855" d="M107 941h220q100 0 136 -46q37 -46 37 -181v-10l-2 -144v-560h177v704q0 197 -77 294q-80 92 -249 92h-242v-149z" />
<glyph unicode="&#x280;" horiz-adv-x="1170" d="M47 0h177v449h159q93 0 148 -35q58 -37 117 -141l154 -273h184l-165 290q-51 92 -99 142q-51 52 -104 66q50 13 89 36.5t65.5 56.5t40 75t13.5 91q0 152 -100 231q-106 76 -310 76h-369v-1064zM224 598v319h186q114 0 173 -39q63 -42 63 -121q0 -76 -63 -119 q-54 -40 -173 -40h-186z" />
<glyph unicode="&#x281;" horiz-adv-x="1170" d="M47 0h369q204 0 310 76q100 76 100 232q0 66 -24 117.5t-70.5 87.5t-113.5 53q51 14 104 67q47 50 99 139l165 292h-184l-154 -272q-60 -106 -117 -142q-55 -35 -148 -35h-159v449h-177v-1064zM224 148v319h186q116 0 173 -40q63 -43 63 -119q0 -79 -63 -121 q-59 -39 -173 -39h-186z" />
<glyph unicode="&#x282;" horiz-adv-x="1013" d="M105 -19q0 -205 78 -295q80 -91 249 -91h242v149h-223q-98 0 -134 46q-37 45 -37 191v11l19 -3q107 -17 180 -17q208 0 323 86q117 87 117 236q0 127 -78 202q-77 71 -265 113l-60 13q-144 34 -187 67q-47 32 -47 95q0 80 67 118q63 41 193 41q76 0 166 -19 q73 -16 154 -57v166q-77 30 -158 43q-79 14 -182 14q-196 0 -303 -82q-106 -80 -106 -232q0 -125 72 -195q72 -69 235 -104l61 -14q164 -36 210 -73q48 -38 48 -110q0 -78 -65 -118q-65 -43 -191 -43q-91 0 -188 25q-94 26 -190 75v-238z" />
<glyph unicode="&#x283;" horiz-adv-x="653" d="M-35 -256v-149h66q172 0 251 91q76 91 76 295l-2 1177q0 98 37 138q35 37 130 37h168v145h-166q-184 0 -263 -82q-82 -87 -82 -258q0 -185 1.5 -571t1.5 -586q0 -145 -35 -191q-38 -46 -137 -46h-46z" />
<glyph unicode="&#x284;" horiz-adv-x="741" d="M52 -256v-149h67q172 0 249 91q78 90 78 295v19h167v136h-167l-2 1022q0 98 37 138q34 37 130 37h167v145h-165q-184 0 -262 -82q-82 -87 -82 -258v-74h-168v-136h170v-792h-172v-136h172v-19q0 -145 -35 -191q-38 -46 -137 -46h-47z" />
<glyph unicode="&#x285;" horiz-adv-x="896" d="M52 924h167q93 0 132 -39q37 -40 37 -136l-2 -768v-9q0 -196 75 -286q79 -91 251 -91h66v149h-46q-101 0 -136.5 46t-35.5 191q0 693 2 749v19q0 153 -81 237q-79 82 -263 82h-166v-144z" />
<glyph unicode="&#x286;" horiz-adv-x="653" d="M-256 -200q0 -205 287 -205q172 0 251 91q50 61 67 166h180v148h-171l-2 1158q0 98 37 138q35 37 130 37h168v145h-166q-184 0 -263 -82q-82 -87 -82 -258v-1138h-180q-256 0 -256 -200zM-109 -193q0 47 109 47h171q-9 -48 -23 -64q-32 -46 -137 -46q-117 0 -120 61v2z " />
<glyph unicode="&#x287;" horiz-adv-x="761" d="M52 0h360v-301h175v301h129v136h-129v578q0 199 -75 274q-79 76 -280 76h-180v-145h180q106 0 143 -37t37 -168v-578h-360v-136z" />
<glyph unicode="&#x288;" horiz-adv-x="761" d="M52 928h128v-980q0 -201 76 -277q79 -76 281 -76h179v149h-179q-111 0 -146 37q-35 35 -35 167v980h360v136h-360v302h-176v-302h-128v-136z" />
<glyph unicode="&#x289;" horiz-adv-x="1233" d="M0 430h165v-10q0 -223 95 -334q96 -114 279 -114q111 0 194 47q84 47 149 144v-163h174v430h177v155h-177v479h-174v-479h-542v479h-175v-479h-165v-155zM340 427v3h542q-9 -135 -82 -216q-84 -90 -224 -90q-118 0 -177 76q-59 74 -59 227z" />
<glyph unicode="&#x28a;" horiz-adv-x="1201" d="M107 908h225q-113 -99 -163 -202q-48 -100 -48 -241q0 -219 134 -356q135 -138 348 -138t348 140q137 137 137 362q0 128 -52.5 233t-161.5 202h223v156h-412v-210q96 -60 161 -165q62 -91 62 -234q0 -150 -83 -243q-83 -91 -220 -91q-134 0 -219 91q-85 94 -85 243 q0 126 63 234q62 103 163 165v210h-420v-156z" />
<glyph unicode="&#x28b;" horiz-adv-x="1162" d="M183 386q0 -207 77 -295q80 -91 250 -91h66q212 0 350 138q134 139 134 362q0 130 -50 233q-58 112 -162 203h-307q37 -8 116 -52q92 -56 162 -166q65 -97 65 -234q0 -146 -84 -243q-82 -91 -222 -91l-49 -2h-4q-95 0 -130 47q-37 45 -37 191v678h-175v-678z" />
<glyph unicode="&#x28c;" horiz-adv-x="1151" d="M58 0h185l333 893l332 -893h185l-399 1064h-237z" />
<glyph unicode="&#x28d;" horiz-adv-x="1591" d="M82 0h174l219 830l218 -830h206l218 830l218 -830h175l-279 1064h-206l-229 -871l-230 871h-206z" />
<glyph unicode="&#x28e;" horiz-adv-x="1151" d="M58 0h185l333 833l332 -833h185l-430 1047l31 80q49 126 88 161q41 35 113 35h103v146h-140q-119 0 -188 -58q-73 -61 -145 -247z" />
<glyph unicode="&#x28f;" horiz-adv-x="1188" d="M97 1092l387 -594v-498h193v498l397 594h-207l-286 -435l-278 435h-206z" />
<glyph unicode="&#x290;" horiz-adv-x="1021" d="M84 0h677v-19q0 -205 78 -295q79 -91 249 -91h65v149h-46q-99 0 -134 46q-37 45 -37 191v19h2v140h-658l658 764v160h-831v-140h634l-657 -764v-160z" />
<glyph unicode="&#x291;" horiz-adv-x="1021" d="M84 0h344q-4 -83 -4 -105h146q0 72 2 105h39q317 0 317 177v2q0 233 -216 233q-209 0 -266 -272h-166l658 764v160h-831v-140h634l-657 -764v-160zM594 140q33 136 117 138q65 0 65 -87q0 -51 -165 -51h-17z" />
<glyph unicode="&#x292;" horiz-adv-x="1123" d="M84 -160v-184q108 -38 196 -53q94 -17 183 -17q264 0 411 115q143 117 143 325q0 132 -77 229q-74 98 -173 144q-122 52 -225 52l392 453v160h-830v-140h633l-408 -475v-157h165q158 0 245 -70.5t87 -195.5q0 -138 -94 -206q-94 -73 -275 -73q-206 0 -373 93z" />
<glyph unicode="&#x293;" horiz-adv-x="1123" d="M104 924h633l-408 -475v-157h165q155 0 245 -71q87 -70 87 -195q0 -47 -11 -86q-144 54 -383 60h-12q-271 0 -274 -236v-2q0 -176 317 -176q264 0 411 115l17 15q39 -50 39 -130h146q0 157 -96 252q37 76 37 188q0 132 -77 229q-76 101 -173 144q-122 52 -225 52l392 453 v160h-830v-140zM308 -208q0 35 31.5 53.5t92.5 18.5q190 0 305 -41l-5 -3q-94 -73 -275 -73q-149 0 -149 45z" />
<glyph unicode="&#x294;" horiz-adv-x="991" d="M84 1247q65 37 148 60q83 22 151 22q167 0 265 -109q51 -60 54 -189q0 -95 -54 -166q-80 -106 -265 -106h-58v-759h191v618q156 28 268 143q103 112 103 270q0 179 -105 296q-132 149 -391 149q-82 0 -157 -17q-72 -13 -150 -48v-164z" />
<glyph unicode="&#x295;" horiz-adv-x="991" d="M84 1031q0 -158 103 -270q109 -115 266 -143v-618h193v759h-59q-184 0 -264 106q-54 71 -54 166q0 129 54 189q95 109 264 109q71 0 150 -22q79 -21 150 -60v164q-76 34 -150 48q-75 17 -157 17q-262 0 -391 -149q-105 -117 -105 -296z" />
<glyph unicode="&#x296;" horiz-adv-x="991" d="M84 66q82 -37 150 -49q75 -17 157 -17q261 0 391 150q105 117 105 296q0 158 -103 270q-112 115 -268 140v620h-193v-758h60q185 0 265 -109q54 -68 54 -163q-3 -130 -54 -190q-97 -108 -265 -108q-72 0 -151 21q-80 22 -148 61v-164z" />
<glyph unicode="&#x297;" horiz-adv-x="991" d="M84 31q0 -179 105 -296q127 -149 391 -149q82 0 157 17q74 14 150 48v164q-71 -39 -150 -60q-79 -22 -150 -22q-169 0 -264 109q-54 60 -54 189v1002q0 129 54 189q95 109 264 109q71 0 150 -22q79 -21 150 -60v164q-76 34 -150 48q-75 17 -157 17q-262 0 -391 -149 q-105 -117 -105 -296v-1002z" />
<glyph unicode="&#x298;" horiz-adv-x="1172" d="M89 537q0 -205 149 -350q147 -144 349 -144q206 0 351 144q144 147 144 350q0 201 -146 350t-349 149q-204 0 -349 -149q-149 -148 -149 -350zM262 537q0 132 98 230q92 95 227 95q133 0 228 -95q95 -98 95 -230q0 -135 -95 -227q-94 -94 -228 -94q-133 0 -227 94 q-98 92 -98 227zM479 538.5q0 -45.5 33 -75.5q26 -31 73 -31q50 0 76 31q32 31 32 76q0 42 -30 76q-33 33 -76 33q-46 0 -75 -33q-33 -31 -33 -76.5z" />
<glyph unicode="&#x299;" horiz-adv-x="1127" d="M169 0h393q181 0 283 80q98 77 98 226q0 112 -58 184q-60 74 -171 100q93 15 138 71q47 61 47 160q0 86 -41 146.5t-120 92.5t-192 32h-377v-1092zM362 162v342h214q86 0 132 -49q43 -50 43 -134q0 -61 -47 -111q-43 -48 -132 -48h-210zM362 665v267h198q82 0 123 -41 q39 -45 39 -85q0 -61 -39 -100q-41 -41 -121 -41h-200z" />
<glyph unicode="&#x29a;" horiz-adv-x="1326" d="M107 265q0 -141 129 -222q129 -84 344 -84h10q181 0 286 58q348 182 348 510q0 374 -348 518q-102 43 -296 43q-218 0 -344 -82q-129 -81 -129 -224q0 -65 30 -117t88.5 -87.5t140.5 -52.5q-83 -18 -140.5 -54.5t-88 -88.5t-30.5 -117zM297 295q0 75 76 125q43 29 217 29 h173v150h-173q-178 0 -217 27q-76 53 -76 127q0 72 82 131q69 50 219 50q429 0 429 -397q0 -421 -429 -424q-148 0 -219 50q-82 62 -82 132z" />
<glyph unicode="&#x29b;" horiz-adv-x="1376" d="M107 559q0 -254 142 -407q140 -152 382 -152q193 0 266 17q77 16 152 51v502h-306v-132h148v-269q-79 -21 -241 -21q-170 0 -264 108q-94 106 -94 303q0 195 94 301q95 109 264 109q72 0 150 -22q90 -19 219 -97v99h2v143q0 144 35 190q38 47 136 47h223v147h-242 q-172 0 -249 -91q-78 -89 -78 -293v-2l-46 9q-105 18 -158 18q-249 0 -391 -148q-144 -152 -144 -410z" />
<glyph unicode="&#x29c;" horiz-adv-x="1233" d="M169 0h193v504h514v-504h192v1090h-192v-425h-514v425h-193v-1090z" />
<glyph unicode="&#x29d;" horiz-adv-x="711" d="M-256 -195q0 -210 287 -210q172 0 251 91q49 58 67 166h180v148h-171v1064h-175v-1064h-183q-256 0 -256 -195zM-109 -193q0 47 109 47h173q-9 -45 -25 -64q-38 -46 -137 -46q-117 0 -120 61v2zM183 1257h175v221h-175v-221z" />
<glyph unicode="&#x29e;" horiz-adv-x="1297" d="M177 1064l588 -566l-565 -498h224l521 459v-873h176v1478h-176v-520l-540 520h-228z" />
<glyph unicode="&#x29f;" horiz-adv-x="1133" d="M169 0h800v162h-607v928h-193v-1090z" />
<glyph unicode="&#x2a0;" horiz-adv-x="1413" d="M107 531q0 -248 121 -405q121 -154 314 -154q120 0 203 47q83 44 139 141v-565h174v1497q0 144 35 190q39 47 136 47h223v147h-242q-169 0 -249 -91q-77 -89 -77 -293v-190q-56 97 -139 141q-83 47 -203 47q-193 0 -314 -154q-121 -157 -121 -405zM288 531q0 189 78 304 q81 108 219 108q140 0 219 -108q80 -113 80 -304q0 -190 -80 -303q-79 -109 -219 -109q-137 0 -219 109q-78 115 -78 303z" />
<glyph unicode="&#x2a1;" horiz-adv-x="991" d="M84 1247q65 37 148 60q83 22 151 22q167 0 265 -109q51 -60 54 -189q0 -95 -54 -166q-80 -106 -265 -106h-60v-341h-216v-156h218v-262h191v262h219v156h-219v200q156 28 268 143q103 112 103 270q0 179 -105 296q-132 149 -391 149q-82 0 -157 -17q-72 -13 -150 -48 v-164z" />
<glyph unicode="&#x2a2;" horiz-adv-x="991" d="M84 1031q0 -158 103 -270q109 -115 266 -143v-200h-217v-156h217v-262h193v262h218v156h-218v341h-59q-184 0 -264 106q-54 71 -54 166q0 129 54 189q95 109 264 109q71 0 150 -22q79 -21 150 -60v164q-76 34 -150 48q-75 17 -157 17q-262 0 -391 -149 q-105 -117 -105 -296z" />
<glyph unicode="&#x2a3;" horiz-adv-x="1972" d="M107 531q0 -248 121 -405q121 -154 314 -154q120 0 203 47q83 44 139 141v-160h1004v140h-659l659 764v160h-830v414h-174v-576q-56 97 -139 141q-83 47 -203 47q-193 0 -314 -154q-121 -157 -121 -405zM288 531q0 189 78 304q81 108 219 108q140 0 219 -108 q80 -113 80 -304q0 -190 -80 -303q-79 -109 -219 -109q-137 0 -219 109q-78 115 -78 303zM1058 189v735h633z" />
<glyph unicode="&#x2a4;" horiz-adv-x="2057" d="M107 531q0 -248 121 -405q121 -154 314 -154q120 0 203 47q83 44 139 141v-160h174v924h635l-409 -475v-157h166q154 0 245 -71q87 -72 87 -195q0 -136 -95 -206q-96 -73 -274 -73q-105 0 -199 23q-103 27 -175 70v-184q103 -36 194 -53q97 -17 185 -17q265 0 409 115 q146 117 146 325q0 129 -78 229q-78 101 -175 144q-119 52 -222 52l392 453v160h-832v414h-174v-576q-56 97 -139 141q-83 47 -203 47q-193 0 -314 -154q-121 -157 -121 -405zM288 531q0 189 78 304q81 108 219 108q141 0 219 -110q80 -110 80 -302q0 -190 -80 -303 q-79 -109 -219 -109q-137 0 -219 109q-78 115 -78 303z" />
<glyph unicode="&#x2a5;" horiz-adv-x="1970" d="M107 531q0 -248 121 -405q121 -154 314 -154q120 0 203 47q83 44 139 141v-160h494q-4 -66 -4 -105h145q0 55 3 105h38q317 0 317 177v2q-3 233 -215 233q-209 0 -267 -272h-166l659 764v160h-830v414h-174v-576q-56 97 -139 141q-83 47 -203 47q-193 0 -314 -154 q-121 -157 -121 -405zM288 531q0 189 78 304q81 108 219 108q141 0 219 -110q80 -110 80 -302q0 -190 -80 -303q-79 -109 -219 -109q-137 0 -219 109q-78 115 -78 303zM1058 189v735h633zM1541 140q36 136 119 138q66 0 66 -87q0 -51 -166 -51h-19z" />
<glyph unicode="&#x2a6;" horiz-adv-x="1602" d="M52 928h128v-577q0 -199 76 -275q79 -76 281 -76h179v37q90 -29 186 -48q107 -17 178 -17q208 0 323 86q116 86 116 236q0 131 -77 202t-265 113l-60 13q-144 34 -187 67q-46 32 -46 95q0 80 63 118q66 41 197 41q78 0 165 -19q79 -17 154 -57v166q-76 30 -158 43 q-78 14 -182 14q-196 0 -302 -82q-107 -80 -107 -232q0 -126 72 -195q71 -68 235 -104l61 -14q170 -39 210 -73q48 -38 48 -110q0 -77 -66 -118q-65 -43 -190 -43q-90 0 -187 25q-96 27 -191 75v-73h-169q-109 0 -146 37q-35 38 -35 168v577h360v136h-360v302h-176v-302 h-128v-136z" />
<glyph unicode="&#x2a7;" horiz-adv-x="1186" d="M52 928h128v-577q0 -202 76 -275q79 -76 281 -76h179v-19q0 -145 -35 -191q-38 -46 -137 -46h-46v-149h66q172 0 249 91q78 90 78 295l-2 1177q0 98 37 138q35 37 130 37h168v145h-166q-183 0 -262 -82q-82 -87 -82 -258v-74h-358v302h-176v-302h-128v-136zM356 351v577 h358q0 -517 2 -782h-179q-109 0 -146 37q-35 38 -35 168z" />
<glyph unicode="&#x2a8;" horiz-adv-x="1513" d="M52 928h128v-577q0 -202 76 -275q79 -76 281 -76h263q-6 -61 -6 -136l146 2q0 89 1 121q74 -18 151 -18q144 0 219 29q96 38 96 150q0 233 -284 233q-197 0 -273 -162l-5 9q-96 107 -96 303q0 197 96 304q94 106 262 106q69 0 150 -19q85 -25 150 -62v163q-76 34 -150 51 q-86 16 -158 16q-240 0 -383 -143v117h-360v302h-176v-302h-128v-136zM356 351v577h340q-130 -144 -130 -397q0 -235 121 -385h-150q-109 0 -146 37q-35 38 -35 168zM967 144q1 5 4 11l4 8q38 82 146 82q123 0 126 -70q0 -38 -29 -49q-20 -5 -111 -5q-76 0 -140 23z" />
<glyph unicode="&#x2a9;" horiz-adv-x="1649" d="M45 928h167v-928h176v928h286v-928h176v601q0 157 82 247q80 90 221 90q119 0 178 -76q58 -75 58 -226v-655q0 -145 -35.5 -191t-135.5 -46h-221v-149h241q172 0 249 91q78 90 78 295v661q0 221 -94 335q-94 113 -279 113q-109 0 -195 -47t-147 -144v165h-462v94 q0 96 36 138q34 37 131 37h167v145h-165q-179 0 -263 -82q-82 -81 -82 -258v-74h-167v-136z" />
<glyph unicode="&#x2aa;" horiz-adv-x="1246" d="M183 0h175v37q90 -29 186 -48q107 -17 180 -17q208 0 323 86q117 87 117 236q0 127 -78 202q-77 71 -265 113l-60 13q-144 34 -187 67q-47 32 -47 95q0 80 67 118q63 41 194 41q76 0 166 -19q72 -15 153 -57v166q-146 57 -340 57q-196 0 -302 -82q-107 -80 -107 -232v702 h-175v-1478zM358 216v560q0 -124 72 -194t235 -105l61 -14q170 -39 210 -73q48 -38 48 -110q0 -78 -65 -118q-65 -43 -191 -43q-91 0 -187 25q-98 29 -183 72z" />
<glyph unicode="&#x2ab;" horiz-adv-x="1272" d="M183 0h1004v140h-658l658 764v160h-829v414h-175v-1478zM358 189v735h632z" />
<glyph unicode="&#x2ac;" horiz-adv-x="1001" d="M50 568l178 -597h128l146 488l144 -488h128l177 597h-110l-137 -464l-138 464h-130l-137 -464l-137 464h-112zM50 1245l178 -595h128l146 488l144 -488h128l177 595h-110l-137 -465l-138 465h-130l-137 -465l-71 465h-178z" />
<glyph unicode="&#x2ad;" horiz-adv-x="1001" d="M50 163h137v249h628v-249h136v405h-901v-405zM50 843h137v249h628v-249h136v402h-901v-402z" />
<glyph unicode="&#x2ae;" horiz-adv-x="1108" d="M0 1331h47q101 0 136 -47q35 -45 35 -191v-673q0 -222 96 -334q93 -114 276 -114q112 0 196 47q83 47 148 144v-579h175v1478h-175v-601q0 -157 -82 -247q-83 -90 -223 -90q-119 0 -178 76q-58 73 -58 227v666q0 205 -78 294q-76 91 -249 91h-66v-147z" />
<glyph unicode="&#x2af;" horiz-adv-x="1291" d="M0 1331h47q101 0 136 -47q35 -45 35 -191v-673q0 -222 96 -334q93 -114 276 -114q112 0 196 47q83 47 148 144v-163v-19q6 -211 78 -295q76 -91 249 -91h68v149h-48q-100 0 -135 46q-37 46 -37 165v26v1081h-175v-601q0 -157 -82 -247q-83 -90 -223 -90q-119 0 -178 76 q-58 73 -58 227v666q0 205 -78 294q-76 91 -249 91h-66v-147z" />
<glyph unicode="&#x2b0;" horiz-adv-x="776" d="M111 880h110v336q0 87 54 138q51 51 139 51q148 0 148 -170v-355h112v360q0 119 -61 186q-59 65 -173 65q-68 0 -125 -28q-55 -27 -94 -80v323h-110v-826z" />
<glyph unicode="&#x2b1;" horiz-adv-x="1233" d="M111 880h110v336q0 86 54 136q51 51 139 51q148 0 148 -168v-355h112v358q0 119 -61 186q-59 65 -173 65q-74 0 -125 -28q-58 -28 -94 -80v110q0 78 22 106q23 26 86 26h140v83h-152q-108 0 -155 -50q-51 -50 -51 -165v-611z" />
<glyph unicode="&#x2b2;" horiz-adv-x="340" d="M-22 652h44q108 0 155 52q51 51 51 165v605h-111v-605q0 -82 -24 -106q-21 -28 -85 -28h-30v-83zM117 1584h111v122h-111v-122z" />
<glyph unicode="&#x2b3;" horiz-adv-x="503" d="M111 880h110v312q0 102 52 156q52 55 141 55q54 0 90 -20v102q-23 4 -31 4q-9 2 -26 2q-74 0 -133 -28q-56 -26 -93 -80v91h-110v-594z" />
<glyph unicode="&#x2b4;" horiz-adv-x="573" d="M68 869q12 0 31 -4h24q80 0 135 26q53 24 93 82v-93h108v594h-108v-312q0 -100 -52 -154q-48 -54 -143 -54q-55 0 -88 17v-102z" />
<glyph unicode="&#x2b5;" horiz-adv-x="575" d="M68 869q12 0 31 -4h24q80 0 135 26q53 24 93 82v-93v-11q0 -117 48 -165q49 -52 158 -52h41v83h-30q-61 0 -85 28q-24 24 -24 106v605h-108v-312q0 -100 -52 -154q-48 -54 -143 -54q-55 0 -88 17v-102z" />
<glyph unicode="&#x2b6;" horiz-adv-x="737" d="M31 880h231q133 0 195 42q65 45 65 131q0 56 -36 91q-33 39 -95 53q27 7 64 36q24 21 63 80l104 161h-117l-97 -151q-38 -61 -74 -79q-35 -20 -91 -20h-103v250h-109v-594zM140 963v179h118q71 0 110 -23t39 -66q0 -46 -39 -69q-41 -21 -110 -21h-118z" />
<glyph unicode="&#x2b7;" horiz-adv-x="1001" d="M50 1474l178 -594h128l146 488l144 -488h128l177 594h-110l-137 -462l-138 462h-130l-137 -462l-137 462h-112z" />
<glyph unicode="&#x2b8;" horiz-adv-x="724" d="M37 1474l271 -585l-20 -44q-29 -72 -56 -90q-23 -20 -70 -20h-65v-83h88q74 0 118 35q48 35 92 138l294 649h-117l-208 -464l-210 464h-117z" />
<glyph unicode="&#x2bb;" horiz-adv-x="618" d="M165 951h201v164l78 303h-123l-156 -303v-164z" />
<glyph unicode="&#x2bc;" horiz-adv-x="618" d="M169 971h123l155 303v144h-200v-144z" />
<glyph unicode="&#x2c0;" horiz-adv-x="719" d="M111 1578q89 45 188 45q109 0 168 -60q33 -33 33 -106q0 -53 -33 -91q-54 -63 -168 -63h-37v-423h121v346q105 17 170 79q64 61 64 152q0 99 -64 166q-84 83 -250 83q-43 0 -99 -9q-34 -7 -93 -28v-91z" />
<glyph unicode="&#x2c1;" horiz-adv-x="719" d="M111 1457q0 -91 64 -152q64 -62 169 -79v-346h121v423h-37q-115 0 -166 63q-34 37 -34 91q0 74 34 106q57 60 166 60q99 0 189 -45v91q-59 21 -94 28q-55 9 -99 9q-167 0 -247 -83q-66 -66 -66 -166z" />
<glyph unicode="&#x2c6;" horiz-adv-x="972" d="M183 1199h132l171 233l171 -233h132l-232 357h-141z" />
<glyph unicode="&#x2c7;" horiz-adv-x="972" d="M183 1556l233 -357h141l232 357h-132l-171 -233l-171 233h-132z" />
<glyph unicode="&#x2c8;" horiz-adv-x="534" d="M202 949h130v527h-130v-527z" />
<glyph unicode="&#x2cc;" horiz-adv-x="534" d="M202 239v-527h130v527h-130z" />
<glyph unicode="&#x2d0;" horiz-adv-x="655" d="M105 0h341l-171 314zM105 1006l170 -313l171 313h-341z" />
<glyph unicode="&#x2d1;" horiz-adv-x="655" d="M105 1006l170 -313l171 313h-341z" />
<glyph unicode="&#x2d2;" horiz-adv-x="596" d="M111 1187q108 0 184 76t76 185q0 108 -76 184t-184 76v-117q63 0 103 -43q41 -40 41 -100t-41 -104q-41 -41 -103 -41v-116z" />
<glyph unicode="&#x2d6;" horiz-adv-x="802" d="M183 587h214v-214h140v214h214v141h-214v213h-140v-213h-214v-141z" />
<glyph unicode="&#x2d8;" horiz-adv-x="972" d="M189 1528q10 -136 85 -204.5t212.5 -68.5t212.5 68.5t85 204.5h-112q-23 -143 -186 -143q-165 0 -185 143h-112z" />
<glyph unicode="&#x2d9;" horiz-adv-x="972" d="M390 1281h193v193h-193v-193z" />
<glyph unicode="&#x2da;" horiz-adv-x="972" d="M226 1448q0 -110 75 -185q76 -76 185.5 -76t185.5 76q75 75 75 185q0 109 -75 184q-76 76 -185.5 76t-185.5 -76q-75 -75 -75 -184zM342 1448q0 60 41 100q40 43 103.5 43t103.5 -43q41 -40 41 -100t-41 -104q-41 -41 -103.5 -41t-103.5 41t-41 104z" />
<glyph unicode="&#x2db;" horiz-adv-x="972" d="M315 -204q0 -89 54.5 -130t171.5 -41q48 0 129 19v126q-59 -28 -119 -28q-104 0 -104 87q0 55 84 171h-113q-103 -116 -103 -204z" />
<glyph unicode="&#x2dc;" horiz-adv-x="972" d="M173 1244h119q1 52 8.5 84t23 47.5t40.5 15.5t64 -37l55 -52q23 -22 44 -34.5t42 -18t46 -5.5q57 0 98 31t63.5 91.5t23.5 144.5h-119q-1 -77 -18.5 -112t-53.5 -35q-25 0 -65 37l-54 53q-34 31 -64.5 44t-67.5 13q-86 0 -135 -70t-50 -197z" />
<glyph unicode="&#x2dd;" horiz-adv-x="972" d="M228 1199h130l212 357h-162zM531 1199h128l236 357h-169z" />
<glyph unicode="&#x2de;" horiz-adv-x="612" d="M0 667l262 154q0 -190 78 -277q86 -91 250 -91h60v150h-41q-100 0 -134 45q-37 45 -37 193v139h-176l-262 -155v-158z" />
<glyph unicode="&#x2e0;" horiz-adv-x="828" d="M111 1474l238 -287q-172 -232 -172 -409v-2q0 -126 241 -126h12q229 3 229 126q0 175 -169 407l238 291h-130l-176 -211l-181 211h-130zM288 811v4q0 140 130 306q123 -178 123 -310q-3 -74 -123 -74q-127 0 -130 74z" />
<glyph unicode="&#x2e1;" horiz-adv-x="322" d="M111 880h110v826h-110v-826z" />
<glyph unicode="&#x2e2;" horiz-adv-x="724" d="M111 917q80 -22 123 -28q65 -9 113 -9q132 0 202 48q73 48 73 130q0 75 -48 115q-44 38 -167 62l-37 9q-86 16 -119 37q-30 20 -30 54q0 44 41 66q38 21 126 21q47 0 102 -9q39 -7 97 -32v91q-45 18 -99 26q-74 8 -115 8q-123 0 -190 -47q-66 -46 -66 -128q0 -72 45 -111 q46 -38 148 -58l39 -9q101 -19 132 -41q29 -20 29 -59q0 -43 -41 -69q-41 -23 -120 -23q-49 0 -117 14q-45 11 -121 42v-100z" />
<glyph unicode="&#x2e3;" horiz-adv-x="863" d="M111 880h130l195 232l195 -232h130l-256 305l244 289h-131l-176 -211l-180 211h-130l239 -284z" />
<glyph unicode="&#x2e4;" horiz-adv-x="719" d="M111 1457q0 -91 64 -152q64 -62 169 -79v-346h121v423h-37q-115 0 -166 63q-34 37 -34 91q0 74 34 106q57 60 166 60q99 0 189 -45v91q-59 21 -94 28q-55 9 -99 9q-167 0 -247 -83q-66 -66 -66 -166z" />
<glyph unicode="&#x2e5;" horiz-adv-x="958" d="M202 1171h427v-1171h128v1300h-555v-129z" />
<glyph unicode="&#x2e6;" horiz-adv-x="958" d="M202 878h427v-878h128v1300h-128v-292h-427v-130z" />
<glyph unicode="&#x2e7;" horiz-adv-x="958" d="M202 585h427v-585h128v1300h-128v-586h-427v-129z" />
<glyph unicode="&#x2e8;" horiz-adv-x="958" d="M202 292h427v-292h128v1300h-128v-878h-427v-130z" />
<glyph unicode="&#x2e9;" horiz-adv-x="958" d="M202 0h555v1300h-128v-1172h-427v-128z" />
<glyph unicode="&#x300;" d="M-813 1556l309 -355h146l-268 355h-187z" />
<glyph unicode="&#x301;" d="M-622 1199h145l310 357h-189z" />
<glyph unicode="&#x302;" d="M-792 1199h133l171 233l171 -233h132l-233 357h-141z" />
<glyph unicode="&#x303;" d="M-802 1244h119q1 52 9 84t23.5 47.5t39.5 15.5q25 0 65 -37l54 -52q34 -32 64.5 -45t67.5 -13q86 0 135 70t50 197h-119q-1 -77 -18 -112t-54 -35q-25 0 -64 37l-54 53q-35 31 -65.5 44t-67.5 13q-86 0 -134.5 -70t-50.5 -197z" />
<glyph unicode="&#x304;" d="M-767 1309h568v141h-568v-141z" />
<glyph unicode="&#x305;" d="M-973 1309h973v141h-973v-141z" />
<glyph unicode="&#x306;" d="M-792 1528q5 -68 26.5 -119t59 -85.5t90.5 -51.5t122 -17q138 0 212.5 68.5t84.5 204.5h-113q-23 -143 -184 -143q-165 0 -185 143h-113z" />
<glyph unicode="&#x307;" d="M-574 1281h195v193h-195v-193z" />
<glyph unicode="&#x308;" d="M-770 1282h192v192h-192v-192zM-399 1282h193v192h-193v-192z" />
<glyph unicode="&#x30a;" d="M-749 1448q0 -110 75 -185q76 -76 185.5 -76t185.5 76q75 75 75 185q0 109 -75 184q-76 76 -185.5 76t-185.5 -76q-75 -75 -75 -184zM-633 1448q0 60 41 100q40 43 104 43q62 0 102 -43q42 -41 42 -100t-42 -104q-41 -41 -102 -41q-63 0 -104 41t-41 104z" />
<glyph unicode="&#x30b;" d="M-741 1199h130l212 357h-161zM-438 1199h128l236 357h-169z" />
<glyph unicode="&#x30c;" d="M-786 1556l233 -357h141l233 357h-133l-171 -233l-171 233h-132z" />
<glyph unicode="&#x30d;" d="M-551 1197h129v422h-129v-422z" />
<glyph unicode="&#x30e;" d="M-745 1197h128v422h-128v-422zM-356 1197h128v422h-128v-422z" />
<glyph unicode="&#x30f;" d="M-885 1556l237 -357h126l-194 357h-169zM-560 1556l211 -357h131l-181 357h-161z" />
<glyph unicode="&#x310;" d="M-792 1528q5 -68 26.5 -119t59 -85.5t90.5 -51.5t122 -17q138 0 212.5 68.5t84.5 204.5h-113q-23 -143 -184 -143q-165 0 -185 143h-113zM-580 1469h194v194h-194v-194z" />
<glyph unicode="&#x311;" d="M-792 1255h113q22 141 185 141q164 0 184 -141h113q-10 135 -84.5 204t-212.5 69t-213 -69t-85 -204z" />
<glyph unicode="&#x312;" d="M-457 951h201l77 304h-122z" />
<glyph unicode="&#x315;" d="M-68 1119h146l111 357h-189z" />
<glyph unicode="&#x316;" d="M-813 -124l309 -357h146l-268 357h-187z" />
<glyph unicode="&#x317;" d="M-622 -483h145l310 359h-189z" />
<glyph unicode="&#x318;" d="M-418 -358v-128h167v-170h128v465h-128v-167h-167z" />
<glyph unicode="&#x319;" d="M-418 -191v-465h130v170h165v128h-165v167h-130z" />
<glyph unicode="&#x31c;" d="M-484 -451q0 -109 76 -185t184 -76v116q-58 0 -101 43q-43 40 -43 102t43 102q41 41 101 41v117q-109 0 -184.5 -76t-75.5 -184z" />
<glyph unicode="&#x31d;" d="M-502 -358v-128h465v128h-167v167h-130v-167h-168z" />
<glyph unicode="&#x31e;" d="M-502 -191v-128h168v-167h130v167h167v128h-465z" />
<glyph unicode="&#x31f;" d="M-502 -358v-128h168v-170h130v170h167v128h-167v167h-130v-167h-168z" />
<glyph unicode="&#x320;" d="M-502 -191v-128h465v128h-465z" />
<glyph unicode="&#x321;" d="M-613 -256v-149h242q169 0 248 91q78 93 78 295v140h-174v-140q0 -142 -37 -191q-36 -46 -137 -46h-220z" />
<glyph unicode="&#x322;" d="M-617 -19q0 -205 78 -295q80 -91 249 -91h242v149h-223q-98 0 -134 46q-37 45 -37 191v140h-175v-140z" />
<glyph unicode="&#x324;" d="M-770 -126v-193h192v193h-192zM-399 -126v-193h193v193h-193z" />
<glyph unicode="&#x325;" d="M-749 -388q0 -109 75 -184q76 -76 185.5 -76t185.5 76q75 75 75 184q0 111 -75 186q-76 76 -185.5 76t-185.5 -76q-75 -75 -75 -186zM-633 -388q0 61 41 102q40 43 104 43q62 0 102 -43q42 -42 42 -102q0 -58 -42 -102q-41 -41 -102 -41q-63 0 -104 41t-41 102z" />
<glyph unicode="&#x326;" d="M-629 -430h124l154 306h-200z" />
<glyph unicode="&#x329;" d="M-551 -124v-422h129v422h-129z" />
<glyph unicode="&#x32a;" d="M-745 -124v-316h130v185h263v-185h131v316h-524z" />
<glyph unicode="&#x32c;" d="M-786 -126l233 -358h141l233 358h-133l-171 -234l-171 234h-132z" />
<glyph unicode="&#x32d;" d="M-792 -483h133l171 234l171 -234h132l-233 359h-141z" />
<glyph unicode="&#x32e;" d="M-792 -123q10 -135 85 -203.5t213 -68.5t212.5 68.5t84.5 203.5h-113q-23 -142 -184 -142q-165 0 -185 142h-113z" />
<glyph unicode="&#x32f;" d="M-792 -397h113q23 142 185 142q164 0 184 -142h113q-10 135 -84.5 204t-212.5 69t-213 -69t-85 -204z" />
<glyph unicode="&#x330;" d="M-802 -395h119q1 77 18.5 112.5t53.5 35.5q25 0 65 -37l54 -52q23 -22 44 -34.5t42 -18.5t46 -6q57 0 98.5 31.5t63.5 92t23 145.5h-119q-1 -78 -18 -113.5t-54 -35.5q-25 0 -64 37l-54 53q-35 32 -65.5 45.5t-67.5 13.5q-86 0 -134.5 -70.5t-50.5 -198.5z" />
<glyph unicode="&#x331;" d="M-767 -126v-141h568v141h-568z" />
<glyph unicode="&#x332;" d="M-973 -124v-143h973v143h-973z" />
<glyph unicode="&#x339;" d="M-483 -189v-117q59 0 102 -43q43 -40 43 -100q0 -64 -43 -104q-41 -41 -102 -41v-117q110 0 186 76t76 186q0 108 -76 184t-186 76z" />
<glyph unicode="&#x33a;" d="M-743 -124v-316h524v316h-132v-186h-262v186h-130z" />
<glyph unicode="&#x33b;" d="M-745 -124v-524h524v524h-524zM-615 -255h263v-265h-263v265z" />
<glyph unicode="&#x33d;" d="M-696 1272l89 -91l121 121l118 -119l92 91l-119 119l119 118l-92 93l-118 -119l-119 119l-91 -93l118 -118z" />
<glyph unicode="&#x361;" d="M-811 1444h113q121 135 375 158q136 11 216.5 16.5t106.5 5.5q52 0 323 -22q254 -23 375 -158h113q0 228 -484 286q-235 25 -327 25t-327 -25q-484 -58 -484 -286z" />
<glyph unicode="&#x374;" horiz-adv-x="540" d="M152 1084h138l105 472h-181z" />
<glyph unicode="&#x375;" horiz-adv-x="540" d="M152 -405h180l63 473h-139z" />
<glyph unicode="&#x37a;" horiz-adv-x="702" d="M245 -87v-145q0 -173 84 -173h126v63h-19q-48 0 -48 99v156h-143z" />
<glyph unicode="&#x37e;" horiz-adv-x="655" d="M150 -226h123l155 304v163h-200v-163zM228 765h200v241h-200v-241z" />
<glyph unicode="&#x384;" horiz-adv-x="972" d="M352 1199h146l310 357h-190z" />
<glyph unicode="&#x385;" horiz-adv-x="972" d="M204 1282h193v192h-193v-192zM352 1545h146l310 358h-190zM576 1282h193v192h-193v-192z" />
<glyph unicode="&#x386;" horiz-adv-x="1346" d="M15 0h203l129 364h639l129 -364h200l-541 1418h-217zM74 1199h144l309 357h-189zM405 523l260 706l261 -706h-521z" />
<glyph unicode="&#x387;" horiz-adv-x="618" d="M208 555h200v241h-200v-241z" />
<glyph unicode="&#x388;" horiz-adv-x="1450" d="M-24 1199h145l311 357h-189zM412 0h915v162h-722v513h676v162h-676v420h704v161h-897v-1418z" />
<glyph unicode="&#x389;" horiz-adv-x="1693" d="M-11 1199h143l312 357h-191zM407 0h192v675h699v-675h191v1418h-191v-581h-699v581h-192v-1418z" />
<glyph unicode="&#x38a;" horiz-adv-x="793" d="M-17 1199h143l312 357h-191zM412 0h193v1418h-193v-1418z" />
<glyph unicode="&#x38c;" horiz-adv-x="1578" d="M-13 1199h145l310 357h-189zM148 708q0 -338 177 -537q181 -199 481 -199q298 0 476 199q177 199 177 537q0 339 -177 536q-177 200 -476 200q-301 0 -481 -200q-177 -197 -177 -536zM351 708q0 269 122 424q123 156 333 156q208 0 328 -156q123 -155 123 -424t-123 -424 q-120 -156 -328 -156q-210 0 -333 156q-122 155 -122 424z" />
<glyph unicode="&#x38e;" horiz-adv-x="1604" d="M-29 1199h146l310 357h-189zM401 1418l501 -743v-675h193v675l502 743h-206l-391 -583l-393 583h-206z" />
<glyph unicode="&#x38f;" horiz-adv-x="1606" d="M-35 1199h146l309 357h-188zM124 0h570v169q-169 94 -264 249q-94 161 -94 351q0 227 125 365q129 138 333.5 138t330.5 -138q124 -135 124 -365q0 -192 -93 -351q-91 -154 -263 -249v-169h570v169h-303q153 136 219 275q69 142 69 325q0 294 -183.5 480t-470.5 186 q-290 0 -471 -186q-183 -186 -183 -490q0 -173 68 -315q69 -141 220 -275h-304v-169z" />
<glyph unicode="&#x390;" horiz-adv-x="568" d="M4 1282h195v192h-195v-192zM154 1545h143l310 358h-189zM199 0h172v1064h-172v-1064zM375 1282h193v192h-193v-192z" />
<glyph unicode="&#x391;" horiz-adv-x="1330" d="M15 0h203l129 364h639l129 -364h200l-541 1418h-217zM405 523l260 706l261 -706h-521z" />
<glyph unicode="&#x392;" horiz-adv-x="1333" d="M191 0h509q235 0 368 104q129 106 129 293q0 145 -78 241t-220 127q78 13 131 51t80.5 101.5t27.5 150.5q0 168 -119 259t-338 91h-490v-1418zM383 158v519h308q154 0 229 -63.5t75 -195.5q0 -88 -33 -145.5t-100.5 -86t-170.5 -28.5h-308zM383 833v428h284 q94 0 155.5 -23.5t92 -71t30.5 -119.5t-30.5 -119.5t-92 -71t-155.5 -23.5h-284z" />
<glyph unicode="&#x393;" horiz-adv-x="1083" d="M191 0h192v1257h691v161h-883v-1418z" />
<glyph unicode="&#x394;" horiz-adv-x="1330" d="M15 0h1300l-541 1418h-217zM276 160l389 1069l389 -1069h-778z" />
<glyph unicode="&#x395;" horiz-adv-x="1229" d="M191 0h914v162h-722v513h675v162h-675v420h705v161h-897v-1418z" />
<glyph unicode="&#x396;" horiz-adv-x="1331" d="M87 0h1158v162h-918l897 1110v146h-1115v-161h875l-897 -1111v-146z" />
<glyph unicode="&#x397;" horiz-adv-x="1463" d="M191 0h192v675h697v-675h192v1418h-192v-581h-697v581h-192v-1418z" />
<glyph unicode="&#x398;" horiz-adv-x="1530" d="M109 708q0 -336 179 -537q178 -199 479 -199q299 0 477 201q178 199 178 535q0 337 -178 536q-178 200 -477 200q-301 0 -479 -199q-179 -201 -179 -537zM312 708q0 270 124 424q123 156 330.5 156t330.5 -156q123 -155 123 -424t-123 -424q-123 -156 -330 -156t-333 156 q-122 155 -122 424zM430 675h671v162h-671v-162z" />
<glyph unicode="&#x399;" horiz-adv-x="573" d="M191 0h192v1418h-192v-1418z" />
<glyph unicode="&#x39a;" horiz-adv-x="1275" d="M191 0h192v683l681 -683h253l-755 757l704 661h-247l-636 -599v599h-192v-1418z" />
<glyph unicode="&#x39b;" horiz-adv-x="1330" d="M15 0h203l447 1229l450 -1229h200l-541 1418h-217z" />
<glyph unicode="&#x39c;" horiz-adv-x="1678" d="M191 0h186v1245l366 -972h193l366 972v-1245h187v1418h-286l-364 -965l-362 965h-286v-1418z" />
<glyph unicode="&#x39d;" horiz-adv-x="1454" d="M191 0h186v1187l629 -1187h258v1418h-186v-1186l-629 1186h-258v-1418z" />
<glyph unicode="&#x39e;" horiz-adv-x="1229" d="M191 0h875v162h-875v-162zM191 1257h875v161h-875v-161zM290 675h677v162h-677v-162z" />
<glyph unicode="&#x39f;" horiz-adv-x="1530" d="M109 708q0 -336 179 -537q178 -199 479 -199q298 0 477 199q178 201 178 537q0 337 -178 536q-178 200 -477 200q-301 0 -479 -200q-179 -199 -179 -536zM312 708q0 269 122 424q126 156 333 156t330 -156q123 -155 123 -424t-123 -424q-123 -156 -330 -156t-333 156 q-122 155 -122 424z" />
<glyph unicode="&#x3a0;" horiz-adv-x="1463" d="M191 0h192v1257h697v-1257h192v1418h-1081v-1418z" />
<glyph unicode="&#x3a1;" horiz-adv-x="1172" d="M191 0h192v570h241q238 0 360.5 107.5t122.5 317.5q0 139 -54.5 233.5t-162 142t-266.5 47.5h-433v-1418zM383 728v533h241q134 0 207 -69t73 -197t-73 -197.5t-207 -69.5h-241z" />
<glyph unicode="&#x3a3;" horiz-adv-x="1229" d="M191 0h914v162h-695l455 597l-455 498h678v161h-897v-161l455 -502l-455 -593v-162z" />
<glyph unicode="&#x3a4;" horiz-adv-x="1188" d="M-6 1257h504v-1257h193v1257h503v161h-1200v-161z" />
<glyph unicode="&#x3a5;" horiz-adv-x="1188" d="M-4 1418l502 -743v-675h193v675l501 743h-206l-390 -583l-394 583h-206z" />
<glyph unicode="&#x3a6;" horiz-adv-x="1530" d="M109 708q0 -255 179 -411q154 -127 384 -147v-150h190v150q231 20 382 147q178 156 178 411t-178 411q-151 128 -382 147v152h-190v-152q-234 -20 -384 -147q-179 -156 -179 -411zM312 708q0 188 124 298q89 80 236 101v-797q-147 20 -236 100q-124 111 -124 298z M862 310v797q147 -21 235 -101q123 -111 123 -298q0 -186 -123 -298q-88 -80 -235 -100z" />
<glyph unicode="&#x3a7;" horiz-adv-x="1331" d="M58 0h207l402 603l399 -603h206l-486 737l456 681h-206l-355 -527l-352 527h-206l441 -661z" />
<glyph unicode="&#x3a8;" horiz-adv-x="1530" d="M109 1029q6 -345 179 -535q180 -200 384 -200v-158v-136h190v187v107q203 0 383 200q173 190 179 535v389h-202v-389q0 -268 -125 -422q-102 -134 -235 -148v959h-190v-959q-134 14 -236 148q-124 154 -124 422v389h-203v-389z" />
<glyph unicode="&#x3a9;" horiz-adv-x="1485" d="M74 0h570v169q-170 95 -265 249q-93 159 -93 351q0 227 124 365q130 138 333 138q204 0 331 -138q125 -137 125 -365q0 -190 -94 -351q-92 -154 -262 -249v-169h570v169h-304q154 137 220 275q67 140 67 325q0 295 -182 480q-183 186 -471 186q-290 0 -470 -186 q-184 -186 -184 -490q0 -173 69 -315t219 -275h-303v-169z" />
<glyph unicode="&#x3aa;" horiz-adv-x="573" d="M6 1584h193v192h-193v-192zM191 0h192v1418h-192v-1418zM377 1584h193v192h-193v-192z" />
<glyph unicode="&#x3ab;" horiz-adv-x="1188" d="M-4 1418l502 -743v-675h193v675l501 743h-206l-390 -583l-394 583h-206zM312 1584h192v192h-192v-192zM683 1584h193v192h-193v-192z" />
<glyph unicode="&#x3ac;" horiz-adv-x="1240" d="M107 531q0 -260 131 -410q128 -149 328 -149q274 0 347 234v-206h175v1064h-175v-186q-150 212 -345 212h-2q-200 0 -328 -149q-131 -150 -131 -410zM292 531q0 190 81 302q79 108 193 108h2q160 0 345 -271v-234q-109 -313 -347 -315h-2q-111 0 -193 109 q-79 113 -79 301zM457 1199h146l310 357h-189z" />
<glyph unicode="&#x3ad;" horiz-adv-x="1065" d="M126 310q0 -165 123 -252q120 -86 349 -86q76 0 157 15q66 9 166 39v163q-56 -32 -151 -55q-69 -15 -167 -15q-145 0 -226 52q-80 54 -80 139q0 82 74 136q68 48 199 48h142v146h-148q-109 0 -173 41q-66 46 -66 108q0 61 68 106q62 43 177 43q68 0 146 -12 q55 -8 168 -39v158q-185 47 -327 47q-186 0 -295 -76q-106 -72 -106 -208q0 -92 56 -151q55 -60 163 -83q-118 -24 -183.5 -93t-65.5 -171zM428 1199h146l310 357h-190z" />
<glyph unicode="&#x3ae;" horiz-adv-x="1272" d="M177 0h175v601q0 157 82 247q84 90 223 90q236 0 236 -302v-1041h175v1047q0 223 -95 335q-93 113 -277 113q-113 0 -196 -47q-82 -46 -148 -144v165h-175v-1064zM541 1199h146l310 357h-189z" />
<glyph unicode="&#x3af;" horiz-adv-x="561" d="M175 1199h146l310 357h-189zM183 0h175v1064h-175v-1064z" />
<glyph unicode="&#x3b0;" horiz-adv-x="1233" d="M165 420q0 -223 95 -334q96 -114 351 -114q261 0 350 114q95 120 95 334v644h-174v-637q0 -156 -59 -227q-65 -76 -212 -76q-153 0 -212 76q-59 74 -59 227v637h-175v-644zM325 1282h195v192h-195v-192zM475 1545h143l312 358h-191zM696 1282h195v192h-195v-192z" />
<glyph unicode="&#x3b1;" horiz-adv-x="1190" d="M107 531q0 -260 131 -410q128 -149 328 -149q274 0 347 234v-206h175v1064h-175v-186q-150 212 -345 212h-2q-200 0 -328 -149q-131 -150 -131 -410zM292 531q0 190 81 302q79 108 193 108h2q160 0 345 -271v-234q-109 -313 -347 -315h-2q-111 0 -193 109 q-79 113 -79 301z" />
<glyph unicode="&#x3b2;" horiz-adv-x="1240" d="M183 -405h175v471q149 -85 271 -85h15q457 20 457 441v8q0 287 -264 340q160 90 163 355q0 340 -380 366q-17 1 -52 1q-385 0 -385 -436v-1461zM358 325v728q0 258 223 258h26q45 -3 80 -12t62 -25t44.5 -38t26 -51.5t8.5 -65.5q0 -282 -332 -282h-12v-162q12 0 32.5 1 t29.5 1q378 0 378 -249q0 -259 -231 -259q-28 0 -43 2q-216 20 -292 154z" />
<glyph unicode="&#x3b3;" horiz-adv-x="1151" d="M58 1064l399 -1064v-405h237v405l399 1064h-185l-332 -893l-333 893h-185z" />
<glyph unicode="&#x3b4;" horiz-adv-x="1190" d="M107 531q0 -260 131 -410q131 -149 358 -149q230 0 358 149q130 147 130 401q0 262 -135 391q-108 105 -309 141q-250 48 -250 133q0 111 241 111q227 0 323 -67v147q-113 66 -323 66q-421 0 -421 -259q0 -132 150 -208q-75 -37 -122 -95q-131 -161 -131 -351zM292 531 q0 193 81 302q51 68 117 97q50 -14 111 -20q123 -12 210 -108q88 -90 88 -280q0 -181 -82 -290q-81 -111 -221 -111q-143 0 -225 109q-79 110 -79 301z" />
<glyph unicode="&#x3b5;" horiz-adv-x="1051" d="M126 310q0 -165 123 -252q120 -86 349 -86q76 0 157 15q66 9 166 39v163q-56 -32 -151 -55q-69 -15 -167 -15q-145 0 -226 52q-80 54 -80 139q0 82 74 136q68 48 199 48h142v146h-148q-109 0 -173 41q-66 46 -66 108q0 61 68 106q62 43 177 43q68 0 146 -12 q55 -8 168 -39v158q-185 47 -327 47q-186 0 -295 -76q-106 -72 -106 -208q0 -92 56 -151q55 -60 163 -83q-118 -24 -183.5 -93t-65.5 -171z" />
<glyph unicode="&#x3b6;" horiz-adv-x="1217" d="M180 650q0 -650 514 -650q166 0 171 -140v-4q0 -68 -72.5 -106t-222.5 -49v-106q475 0 475 263v6q-6 311 -354 311q-335 3 -335 482q0 5 1 16t1 16q9 467 687 613v176h-827v-176h352q-381 -205 -390 -613v-39z" />
<glyph unicode="&#x3b7;" horiz-adv-x="1233" d="M177 0h175v601q0 157 82 247q84 90 223 90q236 0 236 -302v-1041h175v1047q0 223 -95 335q-93 113 -277 113q-113 0 -196 -47q-82 -46 -148 -144v165h-175v-1064z" />
<glyph unicode="&#x3b8;" horiz-adv-x="1190" d="M107 735q0 -351 131 -555q130 -202 358 -202q230 0 358 202q130 200 130 555q0 358 -130 557q-129 202 -358 202q-226 0 -358 -202q-131 -204 -131 -557zM292 675h605q-9 -218 -80 -346q-82 -150 -221 -150q-142 0 -225 148q-71 134 -79 348zM294 837q14 190 79 307 q82 148 223 148q139 0 221 -150q67 -128 78 -305h-601z" />
<glyph unicode="&#x3b9;" horiz-adv-x="540" d="M183 0h175v1064h-175v-1064z" />
<glyph unicode="&#x3ba;" horiz-adv-x="1174" d="M180 0h178v520l539 -520h230l-590 566l564 498h-221l-522 -459v459h-178v-1064z" />
<glyph unicode="&#x3bb;" horiz-adv-x="1151" d="M58 0h185l366 786l299 -786h185l-552 1478h-189l173 -459z" />
<glyph unicode="&#x3bc;" horiz-adv-x="1233" d="M165 -405h175v453q33 -50 199 -76q7 -1 27 -1q68 0 167 48q78 38 149 144v-163h174v1064h-174v-603q0 -157 -82 -247q-84 -90 -224 -90q-236 0 -236 303v637h-175v-1469z" />
<glyph unicode="&#x3bd;" horiz-adv-x="1151" d="M58 1064l399 -1064h237l399 1064h-185l-332 -893l-333 893h-185z" />
<glyph unicode="&#x3be;" horiz-adv-x="1217" d="M180 430q3 -430 514 -430q166 0 171 -140v-4q0 -68 -72.5 -106t-222.5 -49v-106q475 0 475 263v6q-6 311 -354 311q-333 3 -333 247v8q3 245 539 245v162q-502 9 -502 188q0 277 597 277v176h-749v-176h199q-210 -76 -210 -265q0 -247 266 -280q-318 -108 -318 -327z" />
<glyph unicode="&#x3bf;" horiz-adv-x="1190" d="M107 531q0 -263 131 -410q128 -149 358 -149t358 149q130 147 130 410t-130 410q-128 149 -358 149t-358 -149q-131 -147 -131 -410zM292 531q0 190 81 299q82 111 223 111q140 0 221 -111q82 -111 82 -299q0 -190 -82 -299q-81 -111 -221 -111q-143 0 -225 109 q-79 113 -79 301z" />
<glyph unicode="&#x3c0;" horiz-adv-x="1283" d="M183 0h175v919h570v-919h173v1064h-918v-1064z" />
<glyph unicode="&#x3c1;" horiz-adv-x="1235" d="M177 -405h175v565q110 -188 341 -188q194 0 315 154q121 157 121 405t-121 405q-121 154 -315 154q-174 0 -230 -34q-141 -82 -201 -182q-85 -129 -85 -352v-927zM352 531q0 192 80 302q78 110 218 110t217 -110q80 -110 80 -302q0 -190 -80 -303q-79 -109 -217.5 -109 t-217.5 109q-80 113 -80 303z" />
<glyph unicode="&#x3c2;" horiz-adv-x="1141" d="M130 568q0 -568 514 -568q166 0 169 -140v-4q0 -35 -18 -61t-55 -45t-91.5 -31.5t-128.5 -17.5v-106q475 0 475 263v6q-6 294 -355 311q-334 20 -334 393q0 342 500 342q47 0 163 -8v162q-117 10 -197 10q-318 0 -479 -127t-163 -379z" />
<glyph unicode="&#x3c3;" horiz-adv-x="1233" d="M107 531q0 -260 131 -410q131 -149 358 -149q230 0 358 149q130 147 130 410t-130 410h221v149h-579q-227 0 -358 -149q-131 -150 -131 -410zM292 531q0 190 81 299q82 111 223 111q140 0 221 -111q82 -111 82 -299q0 -190 -82 -299q-81 -111 -221 -111q-143 0 -225 109 q-79 113 -79 301z" />
<glyph unicode="&#x3c4;" horiz-adv-x="1028" d="M4 902h424v-902h173v902h422v162h-1019v-162z" />
<glyph unicode="&#x3c5;" horiz-adv-x="1233" d="M165 420q0 -223 95 -334q96 -114 351 -114q261 0 350 114q95 120 95 334v644h-174v-637q0 -156 -59 -227q-65 -76 -212 -76q-153 0 -212 76q-59 74 -59 227v637h-175v-644z" />
<glyph unicode="&#x3c6;" horiz-adv-x="1338" d="M165 559q0 -500 434 -549v-415h168v409q439 36 439 605v8q-2 457 -296 457q-311 0 -311 -436v-502q-259 55 -259 430v498h-175v-505zM767 126v512q0 261 143 266h7q139 0 139 -287v-10q0 -431 -289 -481z" />
<glyph unicode="&#x3c7;" horiz-adv-x="1151" d="M56 -405h206l310 576l310 -576h206l-405 754l385 715h-206l-282 -525l-283 525h-206l378 -700z" />
<glyph unicode="&#x3c8;" horiz-adv-x="1357" d="M180 447q0 -228 126 -342q127 -112 325 -129l2 -381h173v381q216 36 321 129q124 108 124 342v617h-177v-609q0 -170 -79 -237q-83 -72 -189 -86v932h-173v-932q-131 37 -195 86q-80 63 -80 237v609h-178v-617z" />
<glyph unicode="&#x3c9;" horiz-adv-x="1628" d="M193 416q0 -416 319 -416q264 0 299 292q39 -292 301 -292h3q317 0 317 416v28q-12 524 -142 620h-181q122 -146 122 -626v-4q0 -245 -138 -245q-200 0 -200 615v42h-161v-42q0 -615 -203 -615q-136 0 -136 245v4q0 480 123 626h-182q-130 -96 -141 -620v-28z" />
<glyph unicode="&#x3ca;" horiz-adv-x="563" d="M4 1282h195v192h-195v-192zM199 0h172v1064h-172v-1064zM375 1282h193v192h-193v-192z" />
<glyph unicode="&#x3cb;" horiz-adv-x="1233" d="M165 420q0 -223 95 -334q96 -114 351 -114q261 0 350 114q95 120 95 334v644h-174v-637q0 -156 -59 -227q-65 -76 -212 -76q-153 0 -212 76q-59 74 -59 227v637h-175v-644zM327 1282h193v192h-193v-192zM698 1282h193v192h-193v-192z" />
<glyph unicode="&#x3cc;" horiz-adv-x="1190" d="M107 531q0 -263 131 -410q128 -149 358 -149t358 149q130 147 130 410t-130 410q-128 149 -358 149t-358 -149q-131 -147 -131 -410zM292 531q0 190 81 299q82 111 223 111q140 0 221 -111q82 -111 82 -299q0 -190 -82 -299q-81 -111 -221 -111q-143 0 -225 109 q-79 113 -79 301zM471 1199h146l309 357h-189z" />
<glyph unicode="&#x3cd;" horiz-adv-x="1233" d="M165 420q0 -223 95 -334q96 -114 351 -114q261 0 350 114q95 120 95 334v644h-174v-637q0 -156 -59 -227q-65 -76 -212 -76q-153 0 -212 76q-59 74 -59 227v637h-175v-644zM481 1199h145l310 357h-189z" />
<glyph unicode="&#x3ce;" horiz-adv-x="1628" d="M193 416q0 -416 319 -416q264 0 299 292q39 -292 301 -292h3q317 0 317 416v28q-12 524 -142 620h-181q122 -146 122 -626v-4q0 -245 -138 -245q-200 0 -200 615v42h-161v-42q0 -615 -203 -615q-136 0 -136 245v4q0 480 123 626h-182q-130 -96 -141 -620v-28zM679 1199 h146l309 357h-189z" />
<glyph unicode="&#x3d0;" horiz-adv-x="1194" d="M158 782q0 -30 2 -47q8 -385 105 -555q110 -187 371 -202q10 -2 23 -2q225 0 331 204q63 123 63 227q0 210 -242 367q154 139 154 308q0 31 -2 48q-47 364 -364 364q-200 0 -326 -202q-115 -180 -115 -510zM344 675q78 -3 105 -3q138 0 187 21q236 -103 236 -271 q0 -40 -18 -95q-53 -143 -218 -148h-7q-153 0 -226 150q-53 100 -59 346zM349 837v25q0 161 46 268q70 159 204 162h10q155 0 183 -148q4 -23 4 -39q0 -104 -119 -208q-73 -60 -328 -60z" />
<glyph unicode="&#x3d1;" horiz-adv-x="1203" d="M107 763q0 -411 131 -583q147 -202 358 -202q230 0 358 202q121 186 130 555v47q0 336 -113 510q-126 202 -327 202q-320 0 -364 -364q-2 -17 -2 -50q0 -206 203 -345q90 -61 344 -61q46 0 72 1q-3 -224 -80 -346q-98 -150 -221 -150q-111 0 -225 148q-71 105 -79 510 h-185v-74zM447 1105q0 27 4 39q29 148 182 148h11q134 -3 204 -162q47 -107 47 -268v-25q-258 0 -329 60q-119 102 -119 208z" />
<glyph unicode="&#x3d2;" horiz-adv-x="1359" d="M0 1257q105 -25 224 -150q162 -171 229 -413q41 -138 41 -289v-405h193v405q0 317 111 562q84 193 208 260q55 30 103 30q61 0 78 -54q5 -26 5 -61q0 -26 -7 -45t-22 -32.5t-38 -20.5t-53 -8h-18v-162q118 0 203 71q93 78 93 191q0 169 -97 245q-54 43 -119 43 q-283 0 -430 -273q-84 -153 -119 -373q-124 406 -371 566q-117 72 -214 74v-161z" />
<glyph unicode="&#x3d3;" horiz-adv-x="1723" d="M-24 1199h147l309 357h-189zM405 1257q104 -25 224 -150q162 -171 229 -413q41 -138 41 -289v-405h193v405q0 317 111 562q84 193 208 260q54 30 102 30q62 0 78 -54q6 -26 6 -61q0 -26 -7.5 -45t-22.5 -32.5t-37.5 -20.5t-53.5 -8h-17v-162q117 0 203 71q93 78 93 191 q0 169 -97 245q-54 43 -119 43q-283 0 -430 -273q-84 -153 -119 -373q-124 406 -372 566q-116 72 -213 74v-161z" />
<glyph unicode="&#x3d4;" horiz-adv-x="1359" d="M0 1257q105 -25 224 -150q162 -171 229 -413q41 -138 41 -289v-405h193v405q0 317 111 562q84 193 208 260q55 30 103 30q61 0 78 -54q5 -26 5 -61q0 -26 -7 -45t-22 -32.5t-38 -20.5t-53 -8h-18v-162q118 0 203 71q93 78 93 191q0 169 -97 245q-54 43 -119 43 q-283 0 -430 -273q-84 -153 -119 -373q-124 406 -371 566q-117 72 -214 74v-161zM312 1584h192v192h-192v-192zM683 1584h193v192h-193v-192z" />
<glyph unicode="&#x3d5;" horiz-adv-x="1190" d="M107 531q0 -253 131 -410q94 -109 272 -145v-381h175v381q170 29 269 145q130 147 130 410t-130 410q-103 118 -269 143v394h-175v-394q-167 -23 -272 -143q-131 -153 -131 -410zM292 531q0 190 81 302q52 71 137 95v-796q-81 23 -139 98q-79 113 -79 301zM685 132v796 q84 -33 132 -98q82 -111 82 -299q0 -190 -82 -299q-57 -77 -132 -100z" />
<glyph unicode="&#x3d6;" horiz-adv-x="1686" d="M180 902h95q-45 -152 -54 -458v-28q0 -416 318 -416h2q263 0 302 292q35 -292 299 -292h2q317 0 317 416v28q-6 291 -52 458h106v162h-1335v-162zM422 434v4q0 287 45 464h749q42 -154 45 -464v-4q0 -245 -136 -245q-203 0 -203 560v31h-161v-31q0 -560 -199 -560h-2 q-138 0 -138 245z" />
<glyph unicode="&#x3d7;" horiz-adv-x="1289" d="M115 0h199l345 461q-41 -61 -41 -123q0 -124 166 -243q71 -55 176 -78q-59 -279 -178 -279q-85 0 -199 139v-153q75 -114 193 -114q50 0 117 24q205 79 234 541q-236 0 -297 101q-48 78 -48 170q0 158 150 362l189 256h-195l-332 -438q21 43 21 86q0 111 -131 244 q-120 120 -243 120q-35 0 -79 -12v-175q143 0 208 -81q83 -105 83 -221q0 -133 -106 -273z" />
<glyph unicode="&#x3d8;" horiz-adv-x="1530" d="M109 708q0 -336 179 -537q155 -169 393 -195v-379h173v379q237 26 390 197q178 199 178 535q0 337 -178 536q-178 200 -477 200q-301 0 -479 -199q-179 -201 -179 -537zM312 708q0 270 124 424q123 156 330.5 156t330.5 -156q123 -155 123 -424t-123 -424 q-123 -156 -330 -156t-333 156q-122 155 -122 424z" />
<glyph unicode="&#x3d9;" horiz-adv-x="1190" d="M107 531q0 -260 131 -410q104 -120 282 -145v-381h161v381q174 29 273 145q130 147 130 410t-130 410q-128 149 -358 149t-358 -149q-131 -147 -131 -410zM292 531q0 190 81 299q82 111 223 111q140 0 221 -111q82 -111 82 -299q0 -190 -82 -299q-81 -111 -221 -111 q-143 0 -225 109q-79 113 -79 301z" />
<glyph unicode="&#x3da;" horiz-adv-x="1268" d="M180 594q3 -594 511 -594q227 0 230 -117v-2q0 -71 -99.5 -113t-294.5 -52v-124h4q568 2 568 274v21q-23 288 -406 288h-6q-329 0 -329 415v4q0 290 99 437q138 214 417 214h219v175h-245q-348 0 -525 -272q-143 -224 -143 -554z" />
<glyph unicode="&#x3db;" horiz-adv-x="1160" d="M128 566q0 -566 514 -566q168 0 171 -140v-4q0 -68 -72.5 -106t-222.5 -49v-106q474 0 474 263v6q-6 294 -352 311q-334 17 -334 391v2q0 342 482 342q99 0 172 137v161q-65 -134 -176 -134q-653 0 -656 -506v-2z" />
<glyph unicode="&#x3dc;" horiz-adv-x="1118" d="M191 0h192v677h562v162h-562v418h623v161h-815v-1418z" />
<glyph unicode="&#x3dd;" horiz-adv-x="1021" d="M177 -405h175v405h498v165h-496v748h518v151h-695v-1469z" />
<glyph unicode="&#x3de;" horiz-adv-x="1283" d="M169 1240q44 7 59 7q79 0 130 -78q10 -19 10 -40q0 -34 -21 -90l-164 -625l723 351l-145 -451q-4 -38 -4 -56q0 -128 76 -195q75 -67 296 -67v179q-30 -8 -59 -8q-81 0 -130 78q-10 16 -10 41q0 34 21 89l224 689l-741 -364l103 401q4 38 4 55q0 128 -76 196 q-75 66 -296 66v-178z" />
<glyph unicode="&#x3df;" horiz-adv-x="1283" d="M180 675h696l-217 -675h176l266 837h-693l214 639h-175z" />
<glyph unicode="&#x3e0;" horiz-adv-x="1682" d="M109 1058q94 100 294 171v-554h161v595q62 18 101 18h9q327 -8 527 -247l-178 -135q-173 -134 -173 -369q0 -515 -2 -537h195v541v25q0 176 60 222q134 100 169 118q78 -119 78 -559q0 -434 -247 -752h214q233 348 233 752q0 546 -204 806q-226 282 -672 291h-26 q-348 0 -539 -197v-189z" />
<glyph unicode="&#x3e1;" horiz-adv-x="1219" d="M113 0h175l420 531q48 -72 62 -104l-338 -427h175l228 292l29 -76q92 -229 92 -567h159q0 353 -109 633q-169 415 -377 600q-231 206 -516 206v-156q200 0 379 -126q52 -39 137 -152z" />
<glyph unicode="&#x3f0;" horiz-adv-x="1289" d="M109 889q146 0 210 -81q88 -115 88 -244q0 -165 -136 -350l-156 -214h199l388 527q-25 -54 -25 -103q0 -106 93 -239q127 -185 357 -185v175q-147 0 -247 161q-50 78 -50 172q0 168 162 385l129 171h-195l-380 -513q34 59 34 121q0 129 -148 284q-118 120 -241 120 q-37 0 -82 -12v-175z" />
<glyph unicode="&#x3f1;" horiz-adv-x="1235" d="M175 273q0 -678 471 -678h459v162h-474q-273 0 -279 403q110 -188 341 -188q194 0 315 154q121 157 121 405t-121 405q-121 154 -315 154q-174 0 -230 -34q-141 -82 -201 -182q-85 -161 -85 -352l-2 -234v-15zM352 531q0 192 80 302q78 110 218 110t217 -110 q80 -110 80 -302q0 -190 -80 -303q-79 -109 -217.5 -109t-217.5 109q-80 113 -80 303z" />
<glyph unicode="&#x3f2;" horiz-adv-x="1069" d="M107 531q0 -255 142 -408q141 -151 382 -151q167 0 318 69v161q-149 -81 -299 -81q-169 0 -264 107q-94 108 -94 303q0 197 94 302q94 108 264 108q150 0 299 -81v163q-144 67 -307 67q-249 0 -393 -150q-142 -151 -142 -409z" />
<glyph unicode="&#x3f3;" horiz-adv-x="540" d="M-35 -256v-149h66q173 0 249 91q78 90 78 295v1083h-175v-1083q0 -145 -35 -191q-38 -46 -137 -46h-46zM183 1257h175v221h-175v-221z" />
<glyph unicode="&#x3f4;" horiz-adv-x="1530" d="M109 708q0 -336 179 -537q178 -199 479 -199q299 0 477 201q178 199 178 535q0 337 -178 536q-178 200 -477 200q-301 0 -479 -199q-179 -201 -179 -537zM312 675h906q-6 -244 -121 -391q-123 -156 -330.5 -156t-330.5 156q-116 144 -124 391zM321 837q23 181 115 295 q123 156 330.5 156t330.5 -156q95 -121 115 -295h-891z" />
<glyph unicode="&#x3f5;" horiz-adv-x="1196" d="M107 531q0 -261 149 -410t403 -149q105 0 201 22l74 16v159l-70 -23q-73 -25 -194 -25q-175 0 -271 93q-90 87 -107 249h642v136h-642q17 162 107 249q96 93 271 93q92 0 194 -24q6 -2 70 -22v156q-67 16 -74 17q-101 22 -201 22q-254 0 -403 -149t-149 -410z" />
<glyph unicode="&#x3f6;" horiz-adv-x="1196" d="M187 10l73 -16q96 -22 201 -22q257 0 403 149q150 147 150 410t-150 410q-146 149 -403 149q-100 0 -201 -22q-5 -1 -73 -17v-156q65 21 69 22q102 24 195 24q175 0 271 -93q89 -86 106 -249h-641v-136h641q-17 -163 -106 -249q-96 -93 -271 -93q-122 0 -195 25l-69 23 v-159z" />
<glyph unicode="&#x3f7;" horiz-adv-x="1177" d="M191 0h192v321h241q238 0 360.5 107.5t122.5 316t-122.5 316t-360.5 107.5h-241v250h-192v-1418zM383 479v531h241q134 0 207 -69t73 -196q0 -85 -32.5 -145t-95.5 -90.5t-152 -30.5h-241z" />
<glyph unicode="&#x3f8;" horiz-adv-x="1235" d="M177 -405h175v565q110 -188 341 -188q194 0 315 154q121 157 121 405t-121 405q-121 154 -315 154q-231 0 -341 -188v576h-175v-1883zM352 531q0 192 80 302q78 110 218 110t217 -110q80 -110 80 -302q0 -190 -80 -303q-79 -109 -217.5 -109t-217.5 109q-80 113 -80 303z " />
<glyph unicode="&#x3f9;" horiz-adv-x="1357" d="M109 708q0 -340 185 -539q188 -197 508 -197q250 0 451 137v201q-191 -180 -440 -180q-162 0 -274 66.5t-169.5 196t-57.5 315.5q0 187 57.5 316.5t169.5 195.5t274 66q249 0 440 -179v202q-199 135 -451 135q-320 0 -508 -197q-185 -198 -185 -539z" />
<glyph unicode="&#x3fa;" horiz-adv-x="1678" d="M191 0h186v1245l366 -463h193l366 463v-1245h187v1418h-286l-364 -455l-362 455h-286v-1418z" />
<glyph unicode="&#x3fb;" horiz-adv-x="1355" d="M180 -405h176v1311l331 -531l329 522v-897h174v1064h-241l-262 -457l-265 457h-242v-1469z" />
<glyph unicode="&#x3fc;" horiz-adv-x="1235" d="M82 -136v-161h95v-108h175v108h461v161h-461v296q110 -188 341 -188q194 0 315 154q121 157 121 405t-121 405q-121 154 -315 154q-174 0 -230 -34q-141 -82 -201 -182q-85 -129 -85 -352v-658h-95zM352 531q0 192 80 302q78 110 218 110t217 -110q80 -110 80 -302 q0 -190 -80 -303q-79 -109 -217.5 -109t-217.5 109q-80 113 -80 303z" />
<glyph unicode="&#x3fd;" horiz-adv-x="1357" d="M115 109q201 -137 451 -137q319 0 508 197q185 200 185 539q0 340 -185 539q-189 197 -508 197q-252 0 -451 -135v-202q191 179 440 179q244 0 372.5 -148.5t128.5 -429.5q0 -280 -129 -429t-372 -149q-249 0 -440 180v-201z" />
<glyph unicode="&#x3fe;" horiz-adv-x="1357" d="M109 708q0 -340 185 -539q188 -197 508 -197q250 0 451 137v201q-191 -180 -440 -180q-162 0 -274 66.5t-169.5 196t-57.5 315.5q0 187 57.5 316.5t169.5 195.5t274 66q249 0 440 -179v202q-199 135 -451 135q-320 0 -508 -197q-185 -198 -185 -539zM743 555h200v241 h-200v-241z" />
<glyph unicode="&#x3ff;" horiz-adv-x="1357" d="M111 109q201 -137 451 -137q320 0 508 197q185 200 185 539q0 340 -185 539q-188 197 -508 197q-251 0 -451 -135v-202q194 179 440 179q244 0 373 -148.5t129 -429.5q0 -280 -129 -429t-373 -149q-246 0 -440 180v-201zM420 555h200v241h-200v-241z" />
<glyph unicode="&#x400;" horiz-adv-x="1229" d="M191 0h914v162h-722v513h675v162h-675v420h705v161h-897v-1418zM481 1803l217 -251h147l-188 251h-176z" />
<glyph unicode="&#x401;" horiz-adv-x="1229" d="M191 0h914v162h-722v513h675v162h-675v420h705v161h-897v-1418zM422 1584h193v192h-193v-192zM794 1584h192v192h-192v-192z" />
<glyph unicode="&#x402;" horiz-adv-x="1528" d="M-6 1257h409v-1257h193v675h358q234 0 234 -302v-274q0 -185 -52 -257q-53 -70 -180 -70h-59v-162h72q216 0 313 115q97 117 97 374v291q0 225 -103 334q-108 113 -284 113h-396v420h503v161h-1105v-161z" />
<glyph unicode="&#x403;" horiz-adv-x="1083" d="M191 0h192v1257h691v161h-883v-1418zM518 1552h145l217 251h-176z" />
<glyph unicode="&#x404;" horiz-adv-x="1357" d="M109 708q0 -340 185 -539q188 -197 508 -197q125 0 237 34q106 33 214 103v201q-100 -93 -206 -135q-112 -45 -234 -45q-244 0 -371 150q-122 136 -130 395h663v162h-656q23 187 123 301q128 148 371 148q122 0 234 -44q106 -42 206 -135v202q-99 66 -212 102 q-113 33 -239 33q-320 0 -508 -197q-185 -198 -185 -539z" />
<glyph unicode="&#x405;" horiz-adv-x="1235" d="M128 1039q0 -162 96 -253q98 -91 311 -134l117 -23q144 -28 210 -88q64 -59 64 -164q0 -79 -40 -135t-116.5 -85t-186.5 -29q-214 0 -449 132v-197q243 -91 449 -91q267 0 405.5 106.5t138.5 312.5q0 117 -45.5 200.5t-138 138t-235.5 81.5l-116 24q-156 28 -215 78 q-56 47 -56 141q0 113 85.5 173.5t241.5 60.5q178 0 393 -103v187q-215 72 -415 72q-236 0 -366 -107q-132 -110 -132 -298z" />
<glyph unicode="&#x406;" horiz-adv-x="573" d="M191 0h192v1418h-192v-1418z" />
<glyph unicode="&#x407;" horiz-adv-x="573" d="M6 1584h193v192h-193v-192zM191 0h192v1418h-192v-1418zM377 1584h193v192h-193v-192z" />
<glyph unicode="&#x408;" horiz-adv-x="573" d="M-101 -228v-162h73q214 0 312 115q99 116 99 374v1319h-192v-1319q0 -183 -53 -257q-53 -70 -179 -70h-60z" />
<glyph unicode="&#x409;" horiz-adv-x="2128" d="M50 -28q353 53 442 295q126 326 126 787v203h462v-1257h414q241 0 368.5 104t127.5 312q0 209 -127.5 314t-368.5 105h-224v583h-842v-268q0 -538 -111 -816q-62 -156 -267 -204v-158zM1270 158v519h215q154 0 227 -64q76 -65 76 -197q0 -130 -76 -195q-75 -63 -227 -63 h-215z" />
<glyph unicode="&#x40a;" horiz-adv-x="2033" d="M191 0h192v675h601v-675h415q161 0 271.5 45.5t168.5 138.5t58 232q0 209 -127.5 314t-370.5 105h-222v583h-193v-581h-601v581h-192v-1418zM1177 158v519h212q157 0 230 -64q76 -65 76 -197q0 -130 -76 -195q-75 -63 -230 -63h-212z" />
<glyph unicode="&#x40b;" horiz-adv-x="1528" d="M-6 1257h409v-1257h193v675h358q234 0 234 -302v-373h191v390q0 225 -103 334q-108 113 -284 113h-396v420h503v161h-1105v-161z" />
<glyph unicode="&#x40c;" horiz-adv-x="1275" d="M191 0h192v683l681 -683h253l-755 757l704 661h-247l-636 -599v599h-192v-1418zM578 1552h146l216 251h-175z" />
<glyph unicode="&#x40d;" horiz-adv-x="1454" d="M191 0h258l629 1187v-1187h186v1418h-258l-629 -1186v1186h-186v-1418zM473 1803l218 -251h146l-187 251h-177z" />
<glyph unicode="&#x40e;" horiz-adv-x="1184" d="M33 1418l455 -1074l-42 -101q-3 -8 -22 -39q-48 -70 -179 -70h-60v-162h73q213 0 314 115q28 39 50 84l529 1247h-206l-353 -833l-353 833h-206zM297 1806q7 -76 43 -127t100 -77t156 -26q136 0 211.5 58t85.5 172h-113q-28 -106 -184 -106q-53 0 -92 12.5t-62.5 36 t-31.5 57.5h-113z" />
<glyph unicode="&#x40f;" horiz-adv-x="1463" d="M191 0h474v-405h191v405h416v1418h-192v-1256h-697v1256h-192v-1418z" />
<glyph unicode="&#x410;" horiz-adv-x="1330" d="M15 0h203l129 364h639l129 -364h200l-541 1418h-217zM405 523l260 706l261 -706h-521z" />
<glyph unicode="&#x411;" horiz-adv-x="1333" d="M191 0h509q241 0 369 104.5t128 311.5q0 209 -128 314t-369 105h-317v426h612v157h-804v-1418zM383 158v519h308q153 0 230 -64q74 -63 74 -197q0 -132 -74 -195q-75 -63 -230 -63h-308z" />
<glyph unicode="&#x412;" horiz-adv-x="1333" d="M191 0h509q235 0 368 104q129 106 129 293q0 145 -78 241t-220 127q78 13 131 51t80.5 101.5t27.5 150.5q0 168 -119 259t-338 91h-490v-1418zM383 158v519h308q154 0 229 -63.5t75 -195.5q0 -88 -33 -145.5t-100.5 -86t-170.5 -28.5h-308zM383 833v428h284 q94 0 155.5 -23.5t92 -71t30.5 -119.5t-30.5 -119.5t-92 -71t-155.5 -23.5h-284z" />
<glyph unicode="&#x413;" horiz-adv-x="1083" d="M191 0h192v1257h691v161h-883v-1418z" />
<glyph unicode="&#x414;" horiz-adv-x="1509" d="M47 162v-567h191v405h1032v-405h191v567h-191v1256h-842v-268q0 -535 -111 -816q-49 -118 -173 -172h-97zM434 162q40 52 58 105q126 320 126 787v203h462v-1095h-646z" />
<glyph unicode="&#x415;" horiz-adv-x="1229" d="M191 0h914v162h-722v513h675v162h-675v420h705v161h-897v-1418z" />
<glyph unicode="&#x416;" horiz-adv-x="1678" d="M56 0h206l339 675h142v-675h193v675h142l340 -675h205l-379 757l332 661h-206l-292 -581h-142v581h-193v-581h-140l-293 581h-206l332 -661z" />
<glyph unicode="&#x417;" horiz-adv-x="1236" d="M148 43q202 -71 379 -71q270 0 411 115q144 116 144 325q0 137 -78 230q-75 94 -215 123q124 32 192 113t68 198q0 168 -127 268q-128 100 -346 100q-167 0 -385 -61v-171q209 70 368 70q144 0 221.5 -58t77.5 -168q0 -106 -75 -162.5t-217 -56.5h-173v-158h166 q157 0 244.5 -70.5t87.5 -196.5q0 -90 -42 -152t-124.5 -94t-202.5 -32q-213 0 -374 94v-185z" />
<glyph unicode="&#x418;" horiz-adv-x="1454" d="M191 0h258l629 1187v-1187h186v1418h-258l-629 -1186v1186h-186v-1418z" />
<glyph unicode="&#x419;" horiz-adv-x="1454" d="M191 0h258l629 1187v-1187h186v1418h-258l-629 -1186v1186h-186v-1418zM422 1806q10 -114 85 -172t213 -58q136 0 212 58t85 172h-113q-27 -106 -184 -106q-79 0 -126.5 27.5t-58.5 78.5h-113z" />
<glyph unicode="&#x41a;" horiz-adv-x="1275" d="M191 0h192v683l681 -683h253l-755 757l704 661h-247l-636 -599v599h-192v-1418z" />
<glyph unicode="&#x41b;" horiz-adv-x="1463" d="M50 -28q351 53 442 295q126 329 126 787v203h462v-1257h190v1418h-842v-268q0 -535 -111 -816q-64 -157 -267 -202v-160z" />
<glyph unicode="&#x41c;" horiz-adv-x="1678" d="M191 0h186v1245l366 -972h193l366 972v-1245h187v1418h-286l-364 -965l-362 965h-286v-1418z" />
<glyph unicode="&#x41d;" horiz-adv-x="1463" d="M191 0h192v675h697v-675h192v1418h-192v-581h-697v581h-192v-1418z" />
<glyph unicode="&#x41e;" horiz-adv-x="1530" d="M109 708q0 -336 179 -537q178 -199 479 -199q298 0 477 199q178 201 178 537q0 337 -178 536q-178 200 -477 200q-301 0 -479 -200q-179 -199 -179 -536zM312 708q0 269 122 424q126 156 333 156t330 -156q123 -155 123 -424t-123 -424q-123 -156 -330 -156t-333 156 q-122 155 -122 424z" />
<glyph unicode="&#x41f;" horiz-adv-x="1463" d="M191 0h192v1257h697v-1257h192v1418h-1081v-1418z" />
<glyph unicode="&#x420;" horiz-adv-x="1172" d="M191 0h192v570h241q238 0 360.5 107.5t122.5 317.5q0 139 -54.5 233.5t-162 142t-266.5 47.5h-433v-1418zM383 728v533h241q134 0 207 -69t73 -197t-73 -197.5t-207 -69.5h-241z" />
<glyph unicode="&#x421;" horiz-adv-x="1357" d="M109 708q0 -340 185 -539q188 -197 508 -197q250 0 451 137v201q-191 -180 -440 -180q-162 0 -274 66.5t-169.5 196t-57.5 315.5q0 187 57.5 316.5t169.5 195.5t274 66q249 0 440 -179v202q-199 135 -451 135q-320 0 -508 -197q-185 -198 -185 -539z" />
<glyph unicode="&#x422;" horiz-adv-x="1188" d="M-6 1257h504v-1257h193v1257h503v161h-1200v-161z" />
<glyph unicode="&#x423;" horiz-adv-x="1184" d="M33 1418l455 -1074l-42 -101q-3 -8 -22 -39q-48 -70 -179 -70h-60v-162h73q213 0 314 115q28 39 50 84l529 1247h-206l-353 -833l-353 833h-206z" />
<glyph unicode="&#x424;" horiz-adv-x="1530" d="M109 708q0 -255 179 -411q154 -127 384 -147v-150h190v150q231 20 382 147q178 156 178 411t-178 411q-151 128 -382 147v152h-190v-152q-234 -20 -384 -147q-179 -156 -179 -411zM312 708q0 188 124 298q89 80 236 101v-797q-147 20 -236 100q-124 111 -124 298z M862 310v797q147 -21 235 -101q123 -111 123 -298q0 -186 -123 -298q-88 -80 -235 -100z" />
<glyph unicode="&#x425;" horiz-adv-x="1331" d="M58 0h207l402 603l399 -603h206l-486 737l456 681h-206l-355 -527l-352 527h-206l441 -661z" />
<glyph unicode="&#x426;" horiz-adv-x="1509" d="M191 0h1081v-405h191v567h-191v1256h-192v-1256h-697v1256h-192v-1418z" />
<glyph unicode="&#x427;" horiz-adv-x="1333" d="M165 1123q0 -227 106 -335q106 -113 284 -113h394v-675h193v1418h-193v-581h-355q-236 0 -236 301v280h-193v-295z" />
<glyph unicode="&#x428;" horiz-adv-x="1951" d="M191 0h1566v1418h-192v-1256h-495v1182h-192v-1182h-495v1256h-192v-1418z" />
<glyph unicode="&#x429;" horiz-adv-x="1994" d="M191 0h1566v-405h191v567h-191v1256h-192v-1256h-495v1182h-192v-1182h-495v1256h-192v-1418z" />
<glyph unicode="&#x42a;" horiz-adv-x="1619" d="M47 1257h430v-1257h507q243 0 371 104t128 312q0 209 -128 314t-371 105h-317v583h-620v-161zM667 158v519h308q156 0 230 -64q76 -65 76 -197q0 -130 -76 -195q-75 -63 -230 -63h-308z" />
<glyph unicode="&#x42b;" horiz-adv-x="1715" d="M191 0h509q241 0 369 104.5t128 311.5q0 209 -128 314t-369 105h-317v583h-192v-1418zM383 158v519h308q153 0 230 -64q74 -63 74 -197q0 -132 -74 -195q-75 -63 -230 -63h-308zM1333 0h193v1418h-193v-1418z" />
<glyph unicode="&#x42c;" horiz-adv-x="1333" d="M191 0h509q241 0 369 104.5t128 311.5q0 209 -128 314t-369 105h-317v583h-192v-1418zM383 158v519h308q153 0 230 -64q74 -63 74 -197q0 -132 -74 -195q-75 -63 -230 -63h-308z" />
<glyph unicode="&#x42d;" horiz-adv-x="1357" d="M105 109q54 -34 106.5 -60t107.5 -43q116 -34 238 -34q319 0 507 197q185 200 185 539q0 340 -185 539q-188 197 -507 197q-124 0 -240 -33q-115 -37 -212 -102v-202q98 91 207 135q112 44 232 44q244 0 375 -148q98 -116 120 -301h-656v-162h664q-6 -258 -128 -395 q-131 -150 -375 -150q-120 0 -232 45q-109 44 -207 135v-201z" />
<glyph unicode="&#x42e;" horiz-adv-x="2005" d="M200 0h193v675h190q9 -316 180 -504q178 -199 479 -199q298 0 476 201q179 200 179 535t-179 537q-179 199 -476 199q-301 0 -479 -199q-144 -159 -173 -408h-197v581h-193v-1418zM786 708q0 269 122 424q123 156 334 156q207 0 330 -156q123 -155 123 -424t-123 -424 q-123 -156 -330 -156q-211 0 -334 156q-122 155 -122 424z" />
<glyph unicode="&#x42f;" horiz-adv-x="1351" d="M56 0h206l182 364q70 143 136 189t181 46h208v-599h193v1418h-434q-243 0 -363 -101t-120 -307q0 -135 62 -223.5t181 -121.5q-121 -40 -237 -277zM447 1010q0 124 71 187.5t210 63.5h241v-504h-241q-139 0 -210 64.5t-71 188.5z" />
<glyph unicode="&#x430;" horiz-adv-x="1192" d="M117 310q0 -155 95 -245q98 -93 261 -93q87 0 155 21t120.5 62.5t92.5 106.5v-162h175v607q0 244 -114 363.5t-345 119.5q-166 0 -362 -74v-162q162 87 344 87q143 0 222.5 -65.5t79.5 -186.5v-17h-245q-238 0 -358.5 -91.5t-120.5 -270.5zM292 321q0 115 81 165 q79 49 294 49h174v-39q0 -171 -88 -275q-87 -102 -233 -102q-105 0 -166.5 54.5t-61.5 147.5z" />
<glyph unicode="&#x431;" horiz-adv-x="1190" d="M107 531q0 -260 131 -410q131 -149 358 -149q230 0 358 149q130 147 130 401q0 262 -135 391q-108 105 -309 141q-250 48 -250 133q0 111 241 111q227 0 323 -67v147q-113 66 -323 66q-421 0 -421 -259q0 -132 150 -208q-75 -37 -122 -95q-131 -161 -131 -351zM292 531 q0 193 81 302q51 68 117 97q50 -14 111 -20q123 -12 210 -108q88 -90 88 -280q0 -181 -82 -290q-81 -111 -221 -111q-143 0 -225 109q-79 110 -79 301z" />
<glyph unicode="&#x432;" horiz-adv-x="1140" d="M177 0h432q203 0 313 78q109 78 109 219q0 73 -30 130t-86.5 94t-136.5 53q99 14 152 72q50 56 50 156q0 83 -44.5 142t-131.5 89.5t-210 30.5h-417v-1064zM352 146v342h249q120 0 185 -42q60 -40 60 -129q0 -85 -60 -128q-62 -43 -185 -43h-249zM352 640v279h229 q113 0 170 -35q55 -35 55 -104q0 -70 -55 -105q-57 -35 -170 -35h-229z" />
<glyph unicode="&#x433;" horiz-adv-x="954" d="M177 0h175v902h576v162h-751v-1064z" />
<glyph unicode="&#x434;" horiz-adv-x="1307" d="M47 146v-551h174v405h865v-405h173v551h-173v918h-720v-202q0 -398 -93 -597q-39 -81 -125 -119h-101zM401 146q8 35 27 51q113 210 113 595v127h369v-773h-509z" />
<glyph unicode="&#x435;" horiz-adv-x="1196" d="M107 522q0 -251 148 -401q151 -149 404 -149q206 0 394 82v165q-185 -98 -383 -98q-174 0 -271.5 94t-108.5 275h803v86q0 236 -124 375q-127 139 -340 139q-241 0 -382 -154q-140 -151 -140 -414zM295 626q12 147 102 232q87 83 234 83q128 0 208 -85.5t80 -229.5h-624z " />
<glyph unicode="&#x436;" horiz-adv-x="1425" d="M47 0h189l284 494h106v-494h176v494h106l284 -494h187l-323 568l283 496h-186l-245 -424h-106v424h-176v-424h-106l-245 424h-188l283 -496z" />
<glyph unicode="&#x437;" horiz-adv-x="1051" d="M126 26q94 -29 166 -39q81 -15 155 -15q228 0 351 87t123 251q0 67 -30 121.5t-86 90.5t-133 52q105 23 163 83q56 62 56 151q0 134 -109 208q-106 76 -294 76q-142 0 -326 -47v-158q110 30 169 39q75 12 144 12q114 0 179 -43q66 -44 66 -106q0 -63 -64 -108 q-64 -41 -173 -41h-149v-146h141q133 0 199 -48q73 -52 73 -136q0 -87 -80 -139q-81 -52 -223 -52q-97 0 -169 15q-92 22 -149 55v-163z" />
<glyph unicode="&#x438;" horiz-adv-x="1277" d="M183 0h224l514 854v-854h172v1064h-224l-511 -852v852h-175v-1064z" />
<glyph unicode="&#x439;" horiz-adv-x="1277" d="M183 0h224l514 854v-854h172v1064h-224l-511 -852v852h-175v-1064zM340 1478q10 -135 85.5 -203.5t212.5 -68.5q278 0 298 272h-113q-23 -141 -185 -141q-165 0 -185 141h-113z" />
<glyph unicode="&#x43a;" horiz-adv-x="1174" d="M180 0h178v520l539 -520h230l-590 566l564 498h-221l-522 -459v459h-178v-1064z" />
<glyph unicode="&#x43b;" horiz-adv-x="1242" d="M43 -28q292 26 384 225q110 245 110 595v127h369v-919h176v1064h-718v-202q0 -394 -93 -597q-56 -124 -228 -146v-147z" />
<glyph unicode="&#x43c;" horiz-adv-x="1466" d="M183 0h169v897l296 -693h173l294 693v-897h169v1064h-247l-304 -712l-301 712h-249v-1064z" />
<glyph unicode="&#x43d;" horiz-adv-x="1285" d="M183 0h175v490h570v-490h173v1064h-173v-438h-570v438h-175v-1064z" />
<glyph unicode="&#x43e;" horiz-adv-x="1190" d="M107 531q0 -263 131 -410q128 -149 358 -149t358 149q130 147 130 410t-130 410q-128 149 -358 149t-358 -149q-131 -147 -131 -410zM292 531q0 190 81 299q82 111 223 111q140 0 221 -111q82 -111 82 -299q0 -190 -82 -299q-81 -111 -221 -111q-143 0 -225 109 q-79 113 -79 301z" />
<glyph unicode="&#x43f;" horiz-adv-x="1283" d="M183 0h175v919h570v-919h173v1064h-918v-1064z" />
<glyph unicode="&#x440;" horiz-adv-x="1235" d="M177 -405h175v565q110 -188 341 -188q194 0 315 154q121 157 121 405t-121 405q-121 154 -315 154q-231 0 -341 -188v162h-175v-1469zM352 531q0 192 80 302q78 110 218 110t217 -110q80 -110 80 -302q0 -190 -80 -303q-79 -109 -217.5 -109t-217.5 109q-80 113 -80 303z " />
<glyph unicode="&#x441;" horiz-adv-x="1069" d="M107 531q0 -255 142 -408q141 -151 382 -151q167 0 318 69v161q-149 -81 -299 -81q-169 0 -264 107q-94 108 -94 303q0 197 94 302q94 108 264 108q150 0 299 -81v163q-144 67 -307 67q-249 0 -393 -150q-142 -151 -142 -409z" />
<glyph unicode="&#x442;" horiz-adv-x="1028" d="M4 902h424v-902h173v902h422v162h-1019v-162z" />
<glyph unicode="&#x443;" horiz-adv-x="1151" d="M58 1064l430 -1047l-31 -80q-51 -131 -89 -161q-37 -34 -112 -34h-102v-147h140q119 0 189 58q68 60 143 248l467 1163h-185l-332 -832l-333 832h-185z" />
<glyph unicode="&#x444;" horiz-adv-x="1784" d="M107 527q0 -262 111 -406q111 -149 302 -149q98 0 169 43q70 42 115 121v-541h174v539q45 -79 115 -121q72 -41 170 -41q192 0 304 149q108 145 108 406q0 264 -108 413q-111 150 -304 150q-96 0 -168 -41q-69 -41 -117 -121v490h-174v-490q-45 79 -115 121 q-72 41 -169 41q-195 0 -302 -150q-111 -147 -111 -413zM292 531q0 198 66 308q64 102 188 102q126 0 193 -102q65 -106 65 -308q0 -201 -65 -307q-67 -103 -193 -103q-123 0 -188 103q-66 110 -66 307zM978 531q0 198 67 308q67 102 193 102t190 -102q64 -106 64 -308 q0 -201 -64 -307q-65 -103 -190 -103q-127 0 -193.5 104.5t-66.5 305.5z" />
<glyph unicode="&#x445;" horiz-adv-x="1151" d="M56 0h206l310 418l310 -418h206l-405 546l385 518h-206l-282 -379l-283 379h-206l378 -507z" />
<glyph unicode="&#x446;" horiz-adv-x="1324" d="M183 0h918v-405h175v551h-175v918h-173v-918h-570v918h-175v-1064z" />
<glyph unicode="&#x447;" horiz-adv-x="1149" d="M142 843q0 -176 88 -258q98 -91 243 -91h325v-494h175v1064h-175v-424h-282q-97 0 -150 56q-49 54 -49 168v200h-175v-221z" />
<glyph unicode="&#x448;" horiz-adv-x="1697" d="M183 0h1330v1064h-174v-918h-403v862h-175v-862h-403v918h-175v-1064z" />
<glyph unicode="&#x449;" horiz-adv-x="1736" d="M183 0h1330v-405h176v551h-176v918h-174v-918h-403v862h-175v-862h-403v918h-175v-1064z" />
<glyph unicode="&#x44a;" horiz-adv-x="1367" d="M41 919h364v-919h432q202 0 313 78q109 79 109 237.5t-109 237.5q-118 82 -313 82h-257v429h-539v-145zM580 146v342h248q126 0 186 -42q60 -41 60 -131q0 -86 -60 -126q-60 -43 -186 -43h-248z" />
<glyph unicode="&#x44b;" horiz-adv-x="1487" d="M183 0h432q203 0 313 78q111 78 111 237.5t-111 237.5q-117 82 -313 82h-257v429h-175v-1064zM358 146v342h249q125 0 187 -42q58 -41 58 -131q0 -85 -58 -126q-62 -43 -187 -43h-249zM1140 0h175v1064h-175v-1064z" />
<glyph unicode="&#x44c;" horiz-adv-x="1145" d="M183 0h432q203 0 313 78q111 78 111 237.5t-111 237.5q-117 82 -313 82h-257v429h-175v-1064zM358 146v342h249q125 0 187 -42q58 -41 58 -131q0 -85 -58 -126q-62 -43 -187 -43h-249z" />
<glyph unicode="&#x44d;" horiz-adv-x="1196" d="M144 54q191 -82 393 -82q257 0 403 149q150 147 150 410t-150 410q-146 149 -403 149q-105 0 -201 -22q-7 -1 -74 -17v-156q62 20 70 22q102 24 195 24q175 0 271 -93q89 -86 106 -249h-642v-136h642q-17 -163 -106 -249q-96 -93 -271 -93q-100 0 -195 25q-90 22 -188 73 v-165z" />
<glyph unicode="&#x44e;" horiz-adv-x="1578" d="M183 0h175v494h140q8 -234 131 -373q128 -149 357 -149q227 0 358 149q130 150 130 410t-130 410q-131 149 -358 149q-229 0 -357 -149q-109 -122 -125 -301h-146v424h-175v-1064zM683 531q0 190 82 302q78 108 221 108q141 0 222 -111q82 -116 82 -299q0 -186 -82 -299 q-81 -111 -222 -111t-223 109q-80 109 -80 301z" />
<glyph unicode="&#x44f;" horiz-adv-x="1170" d="M47 0h187l154 273q56 104 114 141q54 35 148 35h161v-449h175v1064h-368q-205 0 -308 -76q-102 -80 -102 -231q0 -99 53.5 -166t152.5 -93q-48 -13 -100 -66q-55 -57 -102 -142zM390 757q0 80 59 121q62 39 173 39h189v-319h-189q-116 0 -173 40q-59 41 -59 119z" />
<glyph unicode="&#x450;" horiz-adv-x="1196" d="M107 522q0 -251 148 -401q151 -149 404 -149q206 0 394 82v165q-185 -98 -383 -98q-174 0 -271.5 94t-108.5 275h803v86q0 236 -124 375q-127 139 -340 139q-241 0 -382 -154q-140 -151 -140 -414zM247 1560l310 -354h145l-268 354h-187zM295 626q12 147 102 232 q87 83 234 83q128 0 208 -85.5t80 -229.5h-624z" />
<glyph unicode="&#x451;" horiz-adv-x="1196" d="M107 522q0 -251 148 -401q151 -149 404 -149q206 0 394 82v165q-185 -98 -383 -98q-174 0 -271.5 94t-108.5 275h803v86q0 236 -124 375q-127 139 -340 139q-241 0 -382 -154q-140 -151 -140 -414zM295 626q12 147 102 232q87 83 234 83q128 0 208 -85.5t80 -229.5h-624z M347 1282h192v192h-192v-192zM718 1282h192v192h-192v-192z" />
<glyph unicode="&#x452;" horiz-adv-x="1252" d="M39 1220h144v-1220h177v520q0 147 82 245q75 89 221 89q120 0 178 -74q58 -75 58 -225v-574q0 -139 -35 -191q-33 -46 -136 -46h-47v-149h66q173 0 250 91q77 89 77 295v579q0 231 -94 333q-103 115 -278 115q-107 0 -197 -48q-83 -47 -145 -145v405h310v119h-310v139 h-177v-139h-144v-119z" />
<glyph unicode="&#x453;" horiz-adv-x="954" d="M177 0h175v902h576v162h-751v-1064zM479 1205h145l310 358h-189z" />
<glyph unicode="&#x454;" horiz-adv-x="1196" d="M107 531q0 -261 149 -410t403 -149q206 0 394 82v165q-98 -51 -189 -73q-95 -25 -194 -25q-175 0 -271 93q-90 87 -107 249h642v136h-642q17 162 107 249q96 93 271 93q92 0 194 -24q6 -2 70 -22v156q-67 16 -74 17q-96 22 -201 22q-254 0 -403 -149t-149 -410z" />
<glyph unicode="&#x455;" horiz-adv-x="1013" d="M105 39q206 -67 374 -67q208 0 323 86q117 87 117 236q0 127 -78 202q-77 71 -265 113l-60 13q-144 34 -187 67q-47 32 -47 95q0 159 260 159q171 0 320 -76v166q-147 57 -340 57q-78 0 -142.5 -13.5t-114 -39.5t-83.5 -64t-51.5 -87.5t-17.5 -109.5q0 -83 31.5 -141 t98.5 -96.5t177 -61.5l61 -14q164 -36 210 -73q48 -38 48 -110q0 -78 -66.5 -119.5t-189.5 -41.5q-186 0 -378 100v-180z" />
<glyph unicode="&#x456;" horiz-adv-x="540" d="M183 0h175v1064h-175v-1064zM183 1257h175v221h-175v-221z" />
<glyph unicode="&#x457;" horiz-adv-x="540" d="M-11 1282h191v192h-191v-192zM183 0h175v1064h-175v-1064zM360 1282h193v192h-193v-192z" />
<glyph unicode="&#x458;" horiz-adv-x="540" d="M-35 -256v-149h66q173 0 249 91q78 90 78 295v1083h-175v-1083q0 -145 -35 -191q-38 -46 -137 -46h-46zM183 1257h175v221h-175v-221z" />
<glyph unicode="&#x459;" horiz-adv-x="1747" d="M43 -28q292 26 384 225q110 245 110 595v127h343v-919h336q206 0 314 78q110 78 110 237.5t-110 237.5q-115 82 -314 82h-162v429h-690v-202q0 -394 -93 -597q-56 -124 -228 -146v-147zM1054 146v342h156q123 0 185 -42q59 -42 59 -131q0 -84 -59 -126q-62 -43 -185 -43 h-156z" />
<glyph unicode="&#x45a;" horiz-adv-x="1734" d="M183 0h175v488h520v-488h338q204 0 312 78q110 78 110 237.5t-110 237.5q-115 82 -312 82h-163v429h-175v-429h-520v429h-175v-1064zM1053 146v342h155q123 0 185 -42q59 -42 59 -131q0 -84 -59 -126q-62 -43 -185 -43h-155z" />
<glyph unicode="&#x45b;" horiz-adv-x="1238" d="M39 1220h144v-1220h177v520q0 150 82 245q75 89 221 89q120 0 178 -74q58 -75 58 -225v-555h175v560q0 226 -94 333q-100 115 -278 115q-107 0 -197 -48q-83 -47 -145 -145v405h310v119h-310v139h-177v-139h-144v-119z" />
<glyph unicode="&#x45c;" horiz-adv-x="1174" d="M180 0h178v520l539 -520h230l-590 566l564 498h-221l-522 -459v459h-178v-1064zM568 1205h146l309 358h-188z" />
<glyph unicode="&#x45d;" horiz-adv-x="1277" d="M183 0h224l514 854v-854h172v1064h-224l-511 -852v852h-175v-1064zM256 1560l310 -355h146l-268 355h-188z" />
<glyph unicode="&#x45e;" horiz-adv-x="1151" d="M58 1064l430 -1047l-31 -80q-51 -131 -89 -161q-37 -34 -112 -34h-102v-147h140q119 0 189 58q68 60 143 248l467 1163h-185l-332 -832l-333 832h-185zM278 1478q6 -90 41.5 -150.5t100 -91t156 -30.5t156 30.5t100 91t42.5 150.5h-113q-11 -72 -57 -106.5t-128 -34.5 q-165 0 -185 141h-113z" />
<glyph unicode="&#x45f;" horiz-adv-x="1287" d="M183 0h372v-405h175v405h371v1064h-173v-918h-570v918h-175v-1064z" />
<glyph unicode="&#x490;" horiz-adv-x="1083" d="M191 0h192v1257h691v451h-190v-290h-693v-1418z" />
<glyph unicode="&#x491;" horiz-adv-x="954" d="M177 0h175v902h576v460h-175v-298h-576v-1064z" />
<glyph unicode="&#x492;" horiz-adv-x="1083" d="M68 788h123v-788h192v788h519v161h-519v308h691v161h-883v-469h-123v-161z" />
<glyph unicode="&#x493;" horiz-adv-x="954" d="M52 475h125v-475h175v475h395v161h-395v266h576v162h-751v-428h-125v-161z" />
<glyph unicode="&#x49a;" horiz-adv-x="1275" d="M191 0h192v683l681 -683h66v-405h187v567h-161l-594 595l704 661h-247l-636 -599v599h-192v-1418z" />
<glyph unicode="&#x49b;" horiz-adv-x="1174" d="M180 0h178v520l539 -520h54v-405h176v551h-152l-438 420l564 498h-221l-522 -459v459h-178v-1064z" />
<glyph unicode="&#x4b2;" horiz-adv-x="1331" d="M58 0h207l402 603l399 -603h20v-405h186v567h-106l-380 575l456 681h-206l-355 -527l-352 527h-206l441 -661z" />
<glyph unicode="&#x4b3;" horiz-adv-x="1151" d="M56 0h206l310 418l310 -418h31v-405h175v551h-108l-297 400l385 518h-206l-282 -379l-283 379h-206l378 -507z" />
<glyph unicode="&#x10a0;" horiz-adv-x="982" d="M95 533q0 -533 399 -533q395 0 395 574q0 267 -189 462q-192 191 -195 436h-173q0 -283 191 -466q189 -183 189 -432q0 -412 -218 -412q-219 0 -219 373v121h-180v-123z" />
<glyph unicode="&#x10a1;" horiz-adv-x="982" d="M95 516q0 -258 99.5 -387t299.5 -129q199 0 297 129t98 391q0 401 -309 445q16 73 16 123q0 45 -11.5 85t-29 68.5t-41 52t-46 37t-44.5 21.5q-80 23 -92 120h-169q6 -157 102 -196q36 -14 63 -29.5t50.5 -37t36 -51t12.5 -65.5q0 -50 -19 -124q-313 -56 -313 -453z M276 520q0 291 220 291q215 0 215 -291q0 -358 -215 -358q-111 0 -165.5 88.5t-54.5 269.5z" />
<glyph unicode="&#x10a2;" horiz-adv-x="1129" d="M95 479q0 -239 118.5 -360t354.5 -121q468 0 468 492q0 400 -357 444q186 136 186 267q0 271 -326 271q-354 0 -354 -271v-108h157v108q0 106 200 106q152 0 152 -106q0 -134 -223 -260q-376 -49 -376 -462zM269 490q0 296 301 296q288 0 288 -302q0 -322 -290 -322 q-299 0 -299 328z" />
<glyph unicode="&#x10a3;" horiz-adv-x="1538" d="M95 904q0 -496 356 -711l-130 15l-4 -158l693 -50h177v162h-175q-153 1 -275 36.5t-208.5 99t-144 155t-84.5 202.5t-27 244q0 410 192 410q191 0 191 -387v-3q0 -182 43 -302.5t130.5 -181t221.5 -60.5q195 0 294 139t99 412q0 546 -393 546q-226 0 -304 -232 q-65 232 -282 232q-370 0 -370 -568zM830 922q0 387 221 387q214 0 217 -383q0 -385 -215 -385q-113 0 -168 94.5t-55 286.5z" />
<glyph unicode="&#x10a4;" horiz-adv-x="991" d="M95 412q0 -206 99 -310t294 -104q401 0 401 414v656q0 404 -366 404q-399 0 -399 -360v-1q0 -288 296 -317v173q-121 23 -121 134q0 210 219 210q194 0 194 -243v-656q0 -250 -218 -250q-221 0 -221 250v184h-178v-184z" />
<glyph unicode="&#x10a5;" horiz-adv-x="991" d="M95 412q0 -412 399 -412q395 0 395 412v78q0 217 -169 290q169 122 169 319q0 373 -395 373q-370 0 -370 -400v-43h175v39q0 119 47.5 179t139.5 60h6q220 0 220 -214q0 -241 -194 -241h-148v-161h148q194 0 194 -201v-78q0 -250 -218 -250q-221 0 -221 250v201h-178 v-201z" />
<glyph unicode="&#x10a6;" horiz-adv-x="1140" d="M10 1093q0 -283 263 -344q-81 -49 -90 -266q0 -483 426 -483q217 0 326.5 122.5t109.5 367.5q0 432 -370 432q58 75 58 183q0 368 -373 367q-351 0 -350 -379zM180 1101v4q0 204 180 204h4q194 0 196 -208q-2 -217 -200 -217q-180 0 -180 217zM360 490q0 280 257 280 q237 -2 237 -280q0 -328 -245 -328q-249 0 -249 328z" />
<glyph unicode="&#x10a7;" horiz-adv-x="1524" d="M105 490q0 -490 372 -490q191 0 287 122.5t96 367.5v526q0 293 189 293q191 0 191 -293v-526q0 -328 -191 -328v-162h15q356 0 356 490v526q0 229 -92.5 342.5t-278.5 113.5q-239 0 -282 -213q-44 213 -283 213q-379 0 -379 -456v-526zM282 490v526q0 293 202 293 q199 0 199 -293v-526q0 -328 -199 -328q-202 0 -202 328z" />
<glyph unicode="&#x10a8;" horiz-adv-x="964" d="M105 490q0 -434 285 -490v162q-108 28 -108 328v526q0 293 202 293q199 0 199 -293v-526q0 -300 -102 -328v-162q279 55 279 490v526q0 456 -376 456q-379 0 -379 -456v-526z" />
<glyph unicode="&#x10a9;" horiz-adv-x="991" d="M95 412q0 -412 399 -412q395 0 395 412v78q0 217 -169 290q169 122 169 319q0 373 -479 373v-165q302 0 302 -214q0 -241 -192 -241h-2h-148v-161h148q194 0 194 -201v-78q0 -250 -218 -250q-221 0 -221 250v78h-178v-78z" />
<glyph unicode="&#x10aa;" horiz-adv-x="2048" d="M95 940q0 -274 144.5 -466t434.5 -303l-238 20l-26 -181h771h332v152h-332q-843 96 -910 776v3q0 368 200 368h4q206 0 206 -344v-4v-253h158v253v4q0 344 188 344h2q189 0 189 -344v-4v-253h158v253v4q0 341 211 344q199 0 199 -381v-6q0 -317 -191 -367v-162 q358 70 358 529v25v4q0 521 -366 521q-229 0 -287 -219q-73 219 -271 219q-209 0 -264 -223q-86 223 -292 223q-378 0 -378 -532z" />
<glyph unicode="&#x10ab;" horiz-adv-x="991" d="M95 490q0 -245 99.5 -367.5t299.5 -122.5q197 0 296 122.5t99 367.5v578q0 404 -395 404q-377 0 -377 -369v-4h171q3 209 200 212q224 -3 224 -243v-166q-87 79 -224 88q-393 -20 -393 -500zM273 490q0 321 215 321q224 0 224 -321q0 -328 -218 -328q-221 0 -221 328z " />
<glyph unicode="&#x10ac;" horiz-adv-x="989" d="M105 483q0 -483 393 -483q397 0 397 490q0 251 -99 376.5t-298 125.5q-107 -3 -218 -110v186q0 222 222 222h309v165h-313q-393 0 -393 -383v-589zM280 490q0 323 218 323q222 0 222 -323q0 -328 -222 -328q-218 0 -218 328z" />
<glyph unicode="&#x10ad;" horiz-adv-x="1424" d="M105 490q0 -437 350 -490v162q-173 37 -173 328v526q0 293 173 293q171 0 171 -241v-488h178v480q0 249 139 249q201 0 201 -293v-526q0 -328 -199 -328v-162q376 53 376 471v545q0 456 -378 456q-142 0 -229 -163q-86 163 -259 163q-350 0 -350 -456v-526z" />
<glyph unicode="&#x10ae;" horiz-adv-x="980" d="M95 412q0 -412 395 -412q397 0 397 412q0 274 -196 358q196 85 196 298q0 404 -616 404h-78v-161h78q439 0 441 -243v-4q-2 -210 -222 -210h-148v-167h148q222 0 222 -275q0 -250 -224 -250q-215 0 -215 250v127h-178v-127z" />
<glyph unicode="&#x10af;" horiz-adv-x="999" d="M105 391q0 -390 393 -393q199 2 298 104.5t99 309.5v1060l-755 -102v-154q250 -108 250 -315q0 -169 -273 -169h-4l2 -152q453 2 453 322q0 173 -182 320l332 48v-858q0 -250 -218 -250t-218 229v47h-177v-47z" />
<glyph unicode="&#x10b0;" horiz-adv-x="1598" d="M95 510q0 -493 393 -510v162h-2q-215 0 -215 354v7q0 145 54 217t163 73q223 0 223 -325v-194h174v194q0 325 220 325q216 -3 216 -293q0 -358 -216 -358v-162q396 23 399 514q0 478 -412 478q-205 0 -294 -223q-113 223 -317 223q25 95 347 193q325 97 347 287h-180 q-3 -102 -433 -258q-429 -155 -467 -700v-4z" />
<glyph unicode="&#x10b1;" horiz-adv-x="991" d="M105 436q0 -436 393 -436q397 0 397 436q0 172 -99 241q-101 71 -103 177q8 138 89 173l-93 123q-160 -104 -160 -285q6 -123 100 -223q95 -98 95 -204v-2q-6 -272 -224 -274q-220 0 -220 274v1036h-175v-1036z" />
<glyph unicode="&#x10b2;" horiz-adv-x="1353" d="M105 492q0 -484 619 -490h6q529 6 529 486v2q0 401 -375 401q157 58 157 249v2q0 164 -74 247t-220 83q-301 0 -301 -332q0 -176 150 -253q-150 -50 -150 -239q0 -247 284 -247h40v148l-44 2q-109 0 -111 97q1 74 23.5 112t63.5 38h107q277 -3 277 -308q0 -323 -358 -328 q-446 0 -446 330v698h-177v-698zM615 1140q0 169 130 169h4q123 0 123 -169v-4q0 -178 -125 -178q-130 0 -132 182z" />
<glyph unicode="&#x10b3;" horiz-adv-x="1138" d="M95 1309h181q131 0 131 -229v-263h161v263q0 229 144 229q127 0 127 -241v-677q0 -229 -245 -229q-131 0 -198 57.5t-67 171.5v240h-173v-240q0 -390 438 -393q439 3 442 393v673q-3 408 -322 408l-2 -1h-4q-162 0 -214 -136q-95 137 -221 137h-178v-163z" />
<glyph unicode="&#x10b4;" horiz-adv-x="1538" d="M95 980q0 -505 393 -505q401 0 401 505q0 329 160 329q219 0 219 -241q0 -303 -134 -303h-87v-164h87q134 -2 134 -189q0 -251 -384 -250q-390 0 -390 161h-173q3 -322 563 -325q560 3 560 414q0 193 -158 277q158 75 158 379q0 404 -395 404q-161 0 -255 -163 q-81 163 -300 163q-399 0 -399 -492zM273 980q0 329 221 329q218 0 218 -329q0 -340 -224 -340h-2q-72 0 -119.5 37.5t-70.5 113t-23 189.5z" />
<glyph unicode="&#x10b5;" horiz-adv-x="989" d="M95 412q0 -410 391 -410h2q396 0 399 410v1060h-176v-319q-108 113 -256 113h-2q-297 0 -297 -478h154q3 315 149 315q252 -6 252 -299v-392q0 -250 -221 -250q-219 0 -219 250v123h-176v-123z" />
<glyph unicode="&#x10b6;" horiz-adv-x="1598" d="M95 958q0 -606 485 -796l-212 17l-21 -179h643h220v162h-220q-719 99 -719 798v5q0 115 24 191.5t72.5 114.5t122.5 38h2q219 0 219 -293v-265h176v265q0 293 218 293h2q216 0 216 -331q0 -360 -247 -360v-165q428 0 428 525q-3 494 -399 494q-219 0 -303 -206 q-94 206 -310 206q-197 0 -297 -129t-100 -385z" />
<glyph unicode="&#x10b7;" horiz-adv-x="991" d="M95 412q0 -411 395 -414q399 3 399 414v1060h-177v-456q0 -211 -222 -281q-217 0 -217 281q0 321 130 434l-145 42q-163 -157 -163 -476q0 -444 399 -444q151 0 218 136v-296q0 -251 -222 -250q-217 0 -217 250v26h-178v-26z" />
<glyph unicode="&#x10b8;" horiz-adv-x="1040" d="M95 1321q243 0 249 -177v-33h140v33q2 87 30.5 132t81.5 45q136 0 136 -109v-347q-103 103 -218 106q-397 0 -397 -481v-2q0 -488 397 -488q394 0 394 488v724q-3 269 -286 269q-134 0 -212 -144q-63 144 -311 144h-4v-160zM292 488q0 316 222 316q218 0 218 -316 q0 -326 -218 -326q-222 0 -222 326z" />
<glyph unicode="&#x10b9;" horiz-adv-x="989" d="M105 0h175v395q0 292 222 292q215 0 218 -275q0 -287 -111 -412l171 -29q115 152 115 441q-3 333 -243 411q112 165 115 328q0 321 -353 321q-309 0 -309 -492v-3v-977zM280 751v226q0 334 134 334q180 -3 180 -160q0 -151 -92 -306q-160 -12 -222 -94z" />
<glyph unicode="&#x10ba;" horiz-adv-x="1112" d="M95 490q0 -490 483 -490q439 0 439 453q0 301 -241 356q240 82 240 263v2q0 135 -149 222q-149 84 -155 176h-152q3 -148 140 -219q139 -74 139 -179q0 -181 -230 -181h-89v-167h95q224 0 224 -282t-261 -282q-305 0 -305 328v432q5 355 93 493l-127 87 q-141 -189 -144 -580v-432z" />
<glyph unicode="&#x10bb;" horiz-adv-x="991" d="M95 510q0 -510 399 -510q395 0 395 510v962h-177v-581q-51 84 -218 104q-399 0 -399 -485zM273 510q0 318 215 318q222 0 224 -318q0 -348 -218 -348q-221 0 -221 348z" />
<glyph unicode="&#x10bc;" horiz-adv-x="993" d="M105 486q0 -486 399 -486q393 0 393 490q0 251 -99.5 376.5t-297.5 125.5q-136 0 -218 -91v282q0 125 117 128q138 -3 138 -130v-23h130v23v2q0 126 232 126v163q-204 0 -301 -143q-82 143 -199 143q-147 0 -219.5 -70t-72.5 -212l-2 -700v-4zM282 490q0 323 216 323 q224 0 224 -323q0 -163 -55 -245.5t-163 -82.5q-222 0 -222 328z" />
<glyph unicode="&#x10bd;" horiz-adv-x="982" d="M95 438l2 -26q0 -411 391 -414q401 0 401 405q0 252 -237 420q33 39 60 118h175v152h-175q-25 80 -79 125v253h-162v-169q-38 7 -80 7q-294 0 -294 -295.5t294 -295.5l129 21q192 -148 192 -327q0 -250 -218 -250q-221 0 -221 250v26h-178zM273 1016q0 146 151 146 q144 0 144 -146q0 -76 -38.5 -115t-113.5 -39q-71 0 -107 39t-36 115z" />
<glyph unicode="&#x10be;" horiz-adv-x="989" d="M105 490q0 -490 395 -490t395 490q0 502 -393 502h-2q-147 0 -218 -91v571h-177v-982zM282 490q0 323 218 323q220 -3 220 -323q0 -328 -220 -328q-218 0 -218 328z" />
<glyph unicode="&#x10bf;" horiz-adv-x="980" d="M95 412q0 -207 98 -309.5t295 -104.5q399 3 399 401q-3 192 -163 312q-158 116 -158 262v2l264 -127v169l-258 100v355h-167v-303l-271 105v-163l267 -103v-78v-4q0 -181 154 -280q155 -102 157 -247q-2 -237 -222 -237q-217 0 -217 250v137h-178v-137z" />
<glyph unicode="&#x10c0;" horiz-adv-x="989" d="M95 395q0 -196 99.5 -295.5t295.5 -99.5q397 0 397 342q0 148 -103 230q103 70 103 195q0 97 -103 171q103 79 103 213q0 321 -496 321h-124v-163h124q320 0 320 -158q0 -130 -89 -130h-214v-163h199q105 0 105 -93q0 -113 -105 -113h-199v-162h199q105 0 105 -148 q0 -180 -222 -180q-217 0 -217 233v43h-178v-43z" />
<glyph unicode="&#x10c1;" horiz-adv-x="1056" d="M105 412q0 -412 418 -412q428 0 428 368q0 183 -112 263q110 86 110 186v2q0 122 -99 193q99 77 99 171q0 289 -416 289v-163q239 0 245 -122q-6 -95 -97 -95h-148v-175h148q91 0 97 -98q-6 -99 -95 -99h-150v-169h150q89 -3 89 -183q0 -206 -247 -206q-243 0 -243 250 v923h-177v-923z" />
<glyph unicode="&#x10c2;" horiz-adv-x="999" d="M105 -15v-182q169 23 397 197q222 -175 389 -197v175q-182 17 -228 55q232 129 232 457v522q0 459 -395 459h-6q-389 0 -389 -457v-524q0 -329 229 -453q-52 -35 -229 -52zM280 490v522q0 297 218 297q222 0 222 -297v-522q0 -328 -218 -328q-222 0 -222 328z" />
<glyph unicode="&#x10c3;" horiz-adv-x="982" d="M95 1129h178v180h439q-61 -375 -224 -375h-146v-173h146q224 0 224 -349q0 -250 -218 -250q-221 0 -221 221v107h-176v-99q0 -390 391 -393q401 3 401 414q0 413 -222 442q222 160 222 618h-794v-343z" />
<glyph unicode="&#x10c4;" horiz-adv-x="982" d="M95 412q0 -411 395 -414q399 3 399 414q0 273 -247 368q247 98 247 399v293q-158 -161 -395 -161h-4q-217 0 -217 161h-178q0 -322 395 -328q82 0 224 37q0 -319 -218 -319h-6h-148v-171h168h2q200 0 200 -279q0 -251 -222 -250q-217 0 -217 250v26h-178v-26z" />
<glyph unicode="&#x10c5;" horiz-adv-x="1099" d="M95 342q0 -171 99.5 -256.5t299.5 -87.5q395 3 395 344v94h115v163h-115v263h115v169h-115v120q0 321 -395 321q-399 0 -399 -321q0 -342 206 -429q-206 -90 -206 -380zM273 342q0 288 215 296h224v-296q0 -180 -218 -180q-221 0 -221 180zM273 1151q0 158 221 158 q218 0 218 -158v-342h-224q-215 0 -215 342z" />
<glyph unicode="&#x10c6;" horiz-adv-x="1600" d="M95 1004q0 -471 415 -471v167q-235 9 -235 304q0 154 54 229.5t165 75.5q218 0 218 -309v-658q0 -180 -218 -180v-162q397 0 397 342v271q105 -80 212 -80q403 0 403 464q0 158 -44 264t-132.5 158.5t-220.5 52.5q-216 0 -317 -137q-81 137 -298 137q-399 0 -399 -468z M891 1000q0 309 218 309q220 0 220 -309q0 -292 -220 -292q-218 0 -218 292z" />
<glyph unicode="&#x10d0;" horiz-adv-x="978" d="M95 442q3 -442 395 -442h2q392 0 392 469q0 266 -306 389q-89 41 -109 163h-172q42 -243 271 -313q144 -91 144 -235v-8q0 -303 -218 -303q-219 0 -219 276v4l26 126l-165 39z" />
<glyph unicode="&#x10d1;" horiz-adv-x="978" d="M95 498q3 -498 399 -498h4q386 0 386 498q0 424 -281 497v145q-48 208 -163 230q-121 26 -121 104h-173q0 -175 136 -200q135 -23 148 -140v-139q-332 -53 -335 -497zM271 498v6q0 358 229 358q214 0 214 -364v-4q0 -332 -214 -332h-4q-225 0 -225 336z" />
<glyph unicode="&#x10d2;" horiz-adv-x="1073" d="M95 41q0 -446 444 -446q439 0 439 446v6q0 356 -303 412q153 98 153 255v2q0 92 -36 152.5t-108.5 91t-181.5 30.5q-333 0 -333 -249l31 -143l152 44l-14 84v2q0 107 166 107q152 0 152 -111q0 -163 -142 -240q-209 -30 -314 -141.5t-105 -301.5zM273 41q0 297 269 297 q269 -3 269 -297q0 -284 -269 -284h-11q-258 0 -258 284z" />
<glyph unicode="&#x10d3;" horiz-adv-x="1526" d="M95 516q3 -305 286 -566l-10 -30q-110 -8 -180 -70l82 -125q106 98 260 98q334 -17 465 -218h179q-99 285 -601 369q-301 232 -301 538v8q0 308 178 308h2q199 0 199 -328q0 -481 395 -481h5q375 0 378 481q0 495 -378 495q-235 0 -322 -203q-88 203 -283 203 q-176 0 -265 -120t-89 -359zM819 500q0 328 234 328h1q207 0 207 -318q0 -330 -207 -330q-235 0 -235 320z" />
<glyph unicode="&#x10d4;" horiz-adv-x="993" d="M95 -22q3 -379 399 -379q197 0 296 98t99 292v620q0 192 -92.5 288t-278.5 98q-378 0 -378 -334q2 -297 270 -344v171q-98 26 -98 173v6q0 159 206 159h2q192 0 192 -213v-4v-631v-6q0 -215 -218 -215h-4q-217 0 -217 221l28 117l-167 45z" />
<glyph unicode="&#x10d5;" horiz-adv-x="978" d="M95 -45q0 -354 391 -354h4q394 0 394 347v93q0 216 -191 269q187 94 187 297v4q0 386 -372 386q-374 0 -374 -349l68 -185l145 59l-37 126q3 187 198 187q194 0 194 -224v-2q0 -228 -173 -228h-2h-97v-134h97q185 0 185 -199v-5v-97q0 -189 -222 -189q-219 0 -219 198 l19 117l-166 49z" />
<glyph unicode="&#x10d6;" horiz-adv-x="1003" d="M76 1183q0 -246 191 -311q-151 -78 -154 -384q0 -488 397 -488q395 0 398 488q0 356 -290 459q104 77 104 243q0 282 -325 282q-321 0 -321 -284v-5zM236 1138v4q0 178 157 178q166 -3 166 -178q0 -208 -147 -208q-176 0 -176 204zM286 488v4q0 317 219 317h5 q218 0 218 -321q0 -326 -218 -326q-221 0 -224 326z" />
<glyph unicode="&#x10d7;" horiz-adv-x="1550" d="M95 498q0 -498 391 -498q403 0 403 481q0 174 49 259.5t150 85.5h4q189 0 189 -332q0 -131 -58.5 -214.5t-173.5 -117.5v-162q405 78 408 481q0 511 -367 514q-222 0 -292 -206q-73 206 -310 206q-393 0 -393 -497zM271 494q0 332 217 332q224 0 224 -345 q-2 -319 -224 -319q-217 0 -217 332z" />
<glyph unicode="&#x10d8;" horiz-adv-x="984" d="M95 498q3 -414 263 -517l41 110q-124 166 -124 407q0 328 219 328h2q216 0 216 -324v-10q0 -232 -127 -401l41 -110q263 103 263 517q0 497 -395 497q-399 0 -399 -497z" />
<glyph unicode="&#x10d9;" horiz-adv-x="980" d="M95 -19q0 -382 393 -382q397 0 397 382v38v3q0 247 -243 292q214 108 214 312v5q0 344 -509 344h-5v-166h16q329 0 329 -180q0 -223 -199 -226h-98v-164h98q220 0 220 -220v-38q0 -224 -220 -224q-217 0 -217 221v3l9 79h-167z" />
<glyph unicode="&#x10da;" horiz-adv-x="2057" d="M95 516q39 -410 410 -544v-9q-105 -34 -165 -91l104 -128q99 128 286 128q649 -50 649 -267h168q-9 178 -173 277.5t-485 121.5q-281 29 -434.5 157t-179.5 355v4q0 299 194 299h2q209 0 212 -221l8 -236h137l11 236q0 230 184 230h6q191 0 191 -230l9 -236h141l9 236v3 q0 218 203 218h4q200 0 200 -290q0 -198 -180 -311v-160q354 128 357 471v2q0 453 -377 453q-196 0 -283 -176q-81 184 -276 187q-177 0 -268 -184q-87 173 -288 173q-376 -3 -376 -468z" />
<glyph unicode="&#x10db;" horiz-adv-x="993" d="M95 498q0 -495 395 -498q399 3 399 498v595q0 379 -395 379q-360 0 -360 -338h178q0 175 182 175q228 0 228 -216v-217q-80 119 -228 119q-399 0 -399 -497zM271 500v4q0 322 223 322h2q226 0 226 -324v-4q0 -336 -228 -336q-223 0 -223 338z" />
<glyph unicode="&#x10dc;" horiz-adv-x="989" d="M105 498q0 -495 395 -498q395 0 395 498q0 248 -98.5 371.5t-296.5 125.5q-138 0 -227 -143v301q0 155 130 158h381v161h-381q-298 0 -298 -316v-3v-655zM273 498q0 328 217 328q230 0 230 -324v-4q0 -336 -220 -336q-227 0 -227 336z" />
<glyph unicode="&#x10dd;" horiz-adv-x="1520" d="M95 504q0 -377 415 -514v162q-235 108 -235 346v12q0 315 190 315q218 0 218 -244l8 -239h139l9 239v2q0 242 217 242q192 0 195 -321v-2q0 -252 -241 -350v-162q416 128 416 512v2v4q0 489 -366 489q-208 0 -299 -189q-74 189 -296 189q-370 0 -370 -493z" />
<glyph unicode="&#x10de;" horiz-adv-x="984" d="M95 393q0 -393 395 -393q399 0 399 469q0 274 -215 350q176 109 176 261q0 256 -288 298q-222 38 -228 94h-172q0 -166 287 -208q226 -17 226 -182q0 -181 -167 -181h-115v-166h97q223 0 222 -262v-12q0 -299 -222 -299q-215 0 -215 231v2v95h-180v-97z" />
<glyph unicode="&#x10df;" horiz-adv-x="984" d="M76 323l2 -156q454 3 457 290q-3 145 -154 288l327 101v-861q0 -228 -241 -228q-218 0 -218 187v4h-169q0 -347 389 -347h4q403 0 409 382v1036l-711 -163v-105q215 -131 215 -292v-6q0 -130 -310 -130z" />
<glyph unicode="&#x10e0;" horiz-adv-x="1540" d="M95 539q3 -443 425 -549v162q-245 103 -245 387q0 287 209 287q207 0 207 -258v-4l11 -226h137l11 226q0 262 210 262h2q102 0 154 -72t52 -215q0 -287 -249 -387v-162q426 107 429 549q0 456 -382 456q-209 -3 -296 -186q-86 183 -293 186l-121 -52q195 278 792 423 l-58 147q-615 -155 -804 -420q-191 -267 -191 -554z" />
<glyph unicode="&#x10e1;" horiz-adv-x="988" d="M105 488q0 -488 397 -488q391 0 391 488q0 143 -136 273q-70 67 -70 121q0 53 68 98l-105 104q-125 -77 -125 -217q0 -59 56 -110q135 -120 135 -269q0 -326 -214 -326h-2q-222 0 -222 324v2v958h-173v-958z" />
<glyph unicode="&#x10e2;" horiz-adv-x="1270" d="M95 294q0 -231 61 -385.5t182 -232t302 -77.5h4q531 0 531 689q0 642 -471 659l7 323h-141l6 -319q-481 -23 -481 -657zM275 286v8v3q0 451 301 526l-6 -492h141l-7 494q300 -79 300 -531q0 -537 -366 -537q-363 0 -363 529z" />
<glyph unicode="&#x10e3;" horiz-adv-x="1021" d="M76 835h47q219 0 219 -187l10 -193h144l9 193q0 174 117 177q124 0 127 -214v-633q0 -221 -222 -221q-224 0 -224 221l28 228l-168 28l-25 -256q0 -126 43.5 -211t130 -127.5t215.5 -42.5q389 0 392 381v633q-3 386 -283 386h-1q-135 0 -213 -182q-57 182 -299 182h-2 h-45v-162z" />
</font>
</defs>
</svg>
